<svg id="svg" xmlns="http://www.w3.org/2000/svg" xmlns:xlink="http://www.w3.org/1999/xlink" width="400" height="400" viewBox="0, 0, 400,400"><g id="svgg"><path id="path0" d="M158.012 5.984 C 157.688 6.189,157.527 6.461,157.654 6.588 C 157.969 6.903,159.200 6.401,159.200 5.957 C 159.200 5.501,158.760 5.511,158.012 5.984 M240.800 5.995 C 240.800 6.271,241.741 6.800,242.233 6.800 C 242.779 6.800,242.266 6.058,241.600 5.884 C 241.160 5.769,240.800 5.819,240.800 5.995 M154.900 7.426 C 152.799 8.686,152.708 9.021,154.700 8.169 C 155.525 7.816,156.425 7.434,156.700 7.321 C 157.240 7.098,157.392 6.398,156.900 6.404 C 156.735 6.406,155.835 6.866,154.900 7.426 M250.886 11.000 C 252.459 12.069,252.800 12.189,252.800 11.674 C 252.800 11.362,250.273 10.000,249.694 10.000 C 249.540 10.000,250.077 10.450,250.886 11.000 M253.705 12.676 C 254.077 13.048,254.515 13.218,254.679 13.054 C 254.843 12.891,254.712 12.589,254.388 12.384 C 253.415 11.769,252.982 11.953,253.705 12.676 M140.856 15.500 C 139.041 16.765,137.164 18.018,136.685 18.283 C 136.206 18.549,135.631 19.003,135.407 19.292 C 135.183 19.581,132.892 21.846,130.316 24.326 C 127.740 26.805,125.620 28.912,125.606 29.007 C 125.591 29.103,125.119 29.677,124.557 30.284 C 123.995 30.891,122.515 32.981,121.267 34.928 C 120.020 36.876,118.610 39.069,118.134 39.802 C 117.658 40.535,117.373 41.240,117.501 41.367 C 117.629 41.495,117.513 41.600,117.243 41.600 C 116.973 41.600,116.864 41.780,117.000 42.000 C 117.136 42.220,117.046 42.400,116.800 42.400 C 116.554 42.400,116.464 42.580,116.600 42.800 C 116.736 43.020,116.646 43.200,116.400 43.200 C 116.154 43.200,116.064 43.380,116.200 43.600 C 116.336 43.820,116.257 44.000,116.024 44.000 C 115.791 44.000,115.600 44.180,115.600 44.400 C 115.600 45.439,116.346 44.560,117.550 42.100 C 121.468 34.099,129.957 24.318,138.649 17.789 C 141.131 15.925,143.328 14.400,143.531 14.400 C 143.735 14.400,144.126 14.130,144.400 13.800 C 145.374 12.626,144.110 13.233,140.856 15.500 M255.600 13.800 C 255.874 14.130,256.346 14.400,256.649 14.400 C 256.952 14.400,257.200 14.580,257.200 14.800 C 257.200 15.020,257.470 15.200,257.800 15.200 C 258.130 15.200,258.400 15.341,258.400 15.514 C 258.400 15.686,258.985 16.172,259.700 16.594 C 260.415 17.015,261.347 17.682,261.771 18.076 C 262.662 18.903,263.242 18.661,262.376 17.824 C 260.382 15.894,254.380 12.330,255.600 13.800 M264.000 19.800 C 264.517 20.350,265.002 20.800,265.079 20.800 C 265.156 20.800,264.924 20.350,264.563 19.800 C 264.203 19.250,263.717 18.800,263.484 18.800 C 263.251 18.800,263.483 19.250,264.000 19.800 M269.238 24.634 C 274.681 30.280,275.088 30.767,278.050 35.162 C 282.352 41.546,285.122 47.485,287.210 54.800 C 288.397 58.958,288.391 58.942,288.650 58.684 C 289.328 58.006,283.268 40.908,282.028 40.000 C 281.877 39.890,281.518 39.215,281.229 38.500 C 280.940 37.785,280.545 37.200,280.351 37.200 C 280.158 37.200,280.000 36.930,280.000 36.600 C 280.000 36.270,279.844 36.000,279.653 36.000 C 279.462 36.000,278.858 35.322,278.310 34.494 C 276.147 31.226,272.317 26.858,269.139 24.034 L 265.800 21.068 269.238 24.634 M113.857 48.900 C 112.497 52.752,111.087 58.020,111.345 58.279 C 111.459 58.393,111.842 57.432,112.195 56.143 C 112.773 54.035,114.650 48.496,115.395 46.700 C 115.559 46.305,115.510 46.000,115.283 46.000 C 115.062 46.000,114.420 47.305,113.857 48.900 M163.000 59.382 C 164.320 60.582,165.580 61.563,165.800 61.563 C 166.020 61.563,165.120 60.582,163.800 59.382 C 162.480 58.183,161.220 57.201,161.000 57.201 C 160.780 57.201,161.680 58.183,163.000 59.382 M110.806 59.700 C 110.811 60.428,110.886 60.485,111.200 60.000 C 111.701 59.224,111.701 58.800,111.200 58.800 C 110.980 58.800,110.803 59.205,110.806 59.700 M110.406 61.700 C 110.411 62.428,110.486 62.485,110.800 62.000 C 111.301 61.224,111.301 60.800,110.800 60.800 C 110.580 60.800,110.403 61.205,110.406 61.700 M288.800 61.376 C 288.800 61.693,288.980 62.064,289.200 62.200 C 289.420 62.336,289.600 62.077,289.600 61.624 C 289.600 61.171,289.420 60.800,289.200 60.800 C 288.980 60.800,288.800 61.059,288.800 61.376 M146.100 62.446 C 145.386 62.903,144.909 63.453,145.041 63.666 C 145.181 63.893,145.556 63.785,145.940 63.409 C 146.303 63.054,146.960 62.507,147.400 62.194 C 148.653 61.304,147.551 61.517,146.100 62.446 M167.019 62.972 C 167.707 64.024,169.600 65.428,169.600 64.888 C 169.600 64.486,167.079 62.000,166.672 62.000 C 166.512 62.000,166.668 62.437,167.019 62.972 M110.267 63.067 C 110.120 63.213,110.015 63.798,110.034 64.367 C 110.068 65.381,110.075 65.379,110.421 64.220 C 110.785 63.003,110.731 62.602,110.267 63.067 M289.200 63.564 C 289.200 63.970,289.470 64.526,289.800 64.800 C 290.306 65.220,290.400 65.141,290.400 64.292 C 290.400 63.738,290.130 63.182,289.800 63.055 C 289.400 62.902,289.200 63.071,289.200 63.564 M143.628 64.166 C 143.330 64.525,143.205 64.938,143.350 65.083 C 143.723 65.457,144.522 64.567,144.330 63.991 C 144.220 63.660,144.003 63.714,143.628 64.166 M170.000 65.050 C 170.000 65.270,170.540 65.968,171.200 66.600 C 171.860 67.232,172.400 67.570,172.400 67.350 C 172.400 67.130,171.860 66.432,171.200 65.800 C 170.540 65.168,170.000 64.830,170.000 65.050 M141.398 66.002 C 140.998 66.444,140.773 66.907,140.898 67.031 C 141.158 67.291,142.800 65.979,142.800 65.511 C 142.800 64.952,142.139 65.184,141.398 66.002 M109.600 67.000 C 109.600 67.550,109.669 68.000,109.753 68.000 C 109.838 68.000,109.993 67.550,110.098 67.000 C 110.203 66.450,110.134 66.000,109.945 66.000 C 109.755 66.000,109.600 66.450,109.600 67.000 M289.600 66.367 C 289.600 67.358,290.114 68.064,290.450 67.534 C 290.975 66.704,290.860 66.000,290.200 66.000 C 289.870 66.000,289.600 66.165,289.600 66.367 M138.378 69.100 L 137.000 70.600 138.500 69.222 C 139.325 68.463,140.000 67.788,140.000 67.722 C 140.000 67.416,139.662 67.704,138.378 69.100 M173.402 68.402 C 173.802 68.844,174.215 69.118,174.321 69.012 C 174.590 68.743,173.592 67.600,173.089 67.600 C 172.862 67.600,173.003 67.961,173.402 68.402 M175.200 69.506 C 175.200 69.815,176.585 70.966,177.900 71.749 C 178.907 72.349,178.359 71.701,176.800 70.448 C 175.920 69.741,175.200 69.317,175.200 69.506 M109.293 70.800 C 109.293 71.570,109.375 71.885,109.476 71.500 C 109.576 71.115,109.576 70.485,109.476 70.100 C 109.375 69.715,109.293 70.030,109.293 70.800 M290.028 70.700 C 290.067 71.672,290.733 73.184,290.777 72.400 C 290.796 72.070,290.919 71.395,291.052 70.900 C 291.229 70.238,291.122 70.000,290.647 70.000 C 290.287 70.000,290.012 70.310,290.028 70.700 M135.400 72.000 C 134.772 72.655,134.348 73.282,134.458 73.392 C 134.568 73.502,135.172 73.055,135.800 72.400 C 136.428 71.745,136.852 71.118,136.742 71.008 C 136.632 70.898,136.028 71.345,135.400 72.000 M178.892 72.475 C 179.091 73.073,180.000 73.402,180.000 72.876 C 180.000 72.661,179.715 72.376,179.367 72.243 C 178.977 72.093,178.794 72.182,178.892 72.475 M131.328 77.300 C 128.677 81.058,125.585 86.966,125.632 88.182 C 125.653 88.747,125.728 88.814,125.873 88.400 C 126.365 86.990,127.797 84.161,128.253 83.698 C 128.525 83.421,128.873 82.800,129.027 82.316 C 129.180 81.833,129.552 81.191,129.853 80.890 C 130.154 80.589,130.400 80.086,130.400 79.771 C 130.400 79.457,130.580 79.200,130.800 79.200 C 131.020 79.200,131.200 78.930,131.200 78.600 C 131.200 78.270,131.380 78.000,131.600 78.000 C 131.820 78.000,132.000 77.831,132.000 77.625 C 132.000 77.418,132.540 76.658,133.200 75.936 C 134.431 74.587,134.683 74.000,134.028 74.000 C 133.823 74.000,132.608 75.485,131.328 77.300 M181.600 74.335 C 181.600 74.813,185.553 77.380,185.843 77.090 C 185.960 76.973,185.279 76.350,184.328 75.707 C 181.871 74.043,181.600 73.906,181.600 74.335 M108.942 78.600 C 108.941 80.580,109.008 81.440,109.092 80.512 C 109.176 79.584,109.177 77.964,109.095 76.912 C 109.012 75.860,108.943 76.620,108.942 78.600 M186.400 77.514 C 186.400 77.921,188.795 79.338,189.051 79.083 C 189.247 78.887,187.085 77.200,186.638 77.200 C 186.507 77.200,186.400 77.341,186.400 77.514 M290.482 82.100 C 290.547 83.695,290.780 85.000,291.000 85.000 C 291.220 85.000,291.453 83.695,291.518 82.100 C 291.616 79.668,291.532 79.200,291.000 79.200 C 290.468 79.200,290.384 79.668,290.482 82.100 M194.000 81.794 C 194.000 82.031,198.651 84.404,199.089 84.391 C 199.366 84.383,194.410 81.600,194.119 81.600 C 194.053 81.600,194.000 81.687,194.000 81.794 M108.946 88.600 C 108.947 90.800,109.014 91.649,109.095 90.487 C 109.176 89.324,109.176 87.524,109.093 86.487 C 109.011 85.449,108.945 86.400,108.946 88.600 M201.692 85.675 C 201.891 86.273,202.800 86.602,202.800 86.076 C 202.800 85.861,202.515 85.576,202.167 85.443 C 201.777 85.293,201.594 85.382,201.692 85.675 M204.400 86.795 C 204.400 87.071,205.341 87.600,205.833 87.600 C 206.379 87.600,205.866 86.858,205.200 86.684 C 204.760 86.569,204.400 86.619,204.400 86.795 M206.510 87.731 C 206.702 88.307,208.000 88.607,208.000 88.076 C 208.000 87.866,207.630 87.596,207.177 87.478 C 206.654 87.341,206.411 87.433,206.510 87.731 M209.600 88.795 C 209.600 89.071,210.541 89.600,211.033 89.600 C 211.579 89.600,211.066 88.858,210.400 88.684 C 209.960 88.569,209.600 88.619,209.600 88.795 M290.260 95.165 C 290.096 96.161,290.133 97.093,290.345 97.305 C 290.914 97.874,291.212 96.416,290.858 94.800 L 290.551 93.400 290.260 95.165 M233.439 95.138 C 233.300 95.361,233.382 95.665,233.620 95.812 C 234.235 96.193,234.632 95.672,234.118 95.158 C 233.831 94.871,233.607 94.864,233.439 95.138 M235.456 95.478 C 235.005 95.928,235.181 96.400,235.800 96.400 C 236.130 96.400,236.400 96.231,236.400 96.024 C 236.400 95.519,235.775 95.158,235.456 95.478 M109.320 97.600 C 109.320 98.810,109.395 99.305,109.487 98.700 C 109.578 98.095,109.578 97.105,109.487 96.500 C 109.395 95.895,109.320 96.390,109.320 97.600 M237.788 96.020 C 237.407 96.635,237.928 97.032,238.442 96.518 C 238.729 96.231,238.736 96.007,238.462 95.839 C 238.239 95.700,237.935 95.782,237.788 96.020 M240.251 96.612 C 240.075 97.070,240.198 97.221,240.673 97.129 C 241.383 96.992,241.520 96.307,240.879 96.093 C 240.670 96.023,240.387 96.257,240.251 96.612 M243.200 97.000 C 243.200 97.367,243.394 97.602,243.630 97.523 C 243.867 97.445,244.060 97.209,244.060 97.000 C 244.060 96.791,243.867 96.556,243.630 96.477 C 243.394 96.398,243.200 96.633,243.200 97.000 M246.400 97.413 C 246.400 98.060,247.025 98.207,247.374 97.642 C 247.496 97.445,247.326 97.181,246.998 97.054 C 246.635 96.915,246.400 97.056,246.400 97.413 M249.806 97.590 C 249.491 98.100,250.146 98.404,250.753 98.029 C 251.154 97.781,251.131 97.659,250.646 97.473 C 250.305 97.342,249.927 97.395,249.806 97.590 M258.000 98.469 C 258.000 98.651,258.540 98.800,259.200 98.800 C 259.860 98.800,260.400 98.730,260.400 98.645 C 260.400 98.560,259.860 98.412,259.200 98.315 C 258.540 98.218,258.000 98.287,258.000 98.469 M263.600 98.810 C 263.600 99.025,264.260 99.200,265.067 99.200 C 266.781 99.200,266.723 99.014,264.900 98.667 C 264.153 98.525,263.600 98.586,263.600 98.810 M271.105 99.483 C 271.602 99.579,272.322 99.575,272.705 99.475 C 273.087 99.375,272.680 99.296,271.800 99.301 C 270.920 99.305,270.607 99.387,271.105 99.483 M289.856 100.999 C 289.432 102.103,289.565 102.800,290.200 102.800 C 290.852 102.800,290.991 101.721,290.450 100.866 C 290.180 100.441,290.060 100.468,289.856 100.999 M109.709 103.600 C 109.709 104.590,109.787 104.995,109.882 104.500 C 109.978 104.005,109.978 103.195,109.882 102.700 C 109.787 102.205,109.709 102.610,109.709 103.600 M125.309 104.400 C 125.309 105.390,125.387 105.795,125.482 105.300 C 125.578 104.805,125.578 103.995,125.482 103.500 C 125.387 103.005,125.309 103.410,125.309 104.400 M289.691 105.474 C 289.092 106.539,289.053 107.600,289.613 107.600 C 290.171 107.600,290.494 106.659,290.323 105.529 L 290.182 104.600 289.691 105.474 M110.000 108.000 C 110.000 108.660,110.149 109.200,110.331 109.200 C 110.513 109.200,110.582 108.660,110.485 108.000 C 110.388 107.340,110.240 106.800,110.155 106.800 C 110.070 106.800,110.000 107.340,110.000 108.000 M125.693 108.800 C 125.693 109.570,125.775 109.885,125.876 109.500 C 125.976 109.115,125.976 108.485,125.876 108.100 C 125.775 107.715,125.693 108.030,125.693 108.800 M289.049 109.930 C 288.872 110.442,288.833 110.967,288.963 111.097 C 289.378 111.511,289.670 110.900,289.518 109.934 L 289.371 109.000 289.049 109.930 M110.428 110.900 C 110.413 111.505,110.580 112.000,110.800 112.000 C 111.269 112.000,111.269 111.693,110.800 110.600 C 110.495 109.891,110.453 109.925,110.428 110.900 M126.093 112.400 C 126.093 113.170,126.175 113.485,126.276 113.100 C 126.376 112.715,126.376 112.085,126.276 111.700 C 126.175 111.315,126.093 111.630,126.093 112.400 M288.649 113.130 C 288.472 113.642,288.433 114.167,288.563 114.297 C 288.978 114.711,289.270 114.100,289.118 113.134 L 288.971 112.200 288.649 113.130 M288.212 115.717 C 288.041 116.112,288.013 116.547,288.151 116.684 C 288.557 117.090,288.884 116.520,288.697 115.731 C 288.532 115.033,288.510 115.032,288.212 115.717 M111.206 116.276 C 111.203 116.758,111.380 117.264,111.600 117.400 C 112.109 117.715,112.109 116.788,111.600 116.000 C 111.285 115.512,111.211 115.564,111.206 116.276 M126.806 118.500 C 126.811 119.228,126.886 119.285,127.200 118.800 C 127.701 118.024,127.701 117.600,127.200 117.600 C 126.980 117.600,126.803 118.005,126.806 118.500 M111.023 118.633 C 110.374 119.107,110.354 119.200,110.900 119.200 C 111.259 119.200,111.671 119.008,111.816 118.773 C 112.240 118.087,111.861 118.020,111.023 118.633 M106.943 119.917 C 105.434 120.737,102.000 123.857,102.000 124.408 C 102.000 124.624,101.840 124.800,101.643 124.800 C 101.166 124.800,100.165 127.385,99.804 129.551 C 99.597 130.794,99.641 131.222,99.956 131.027 C 100.200 130.876,100.400 130.271,100.400 129.682 C 100.400 126.879,104.543 121.424,107.793 119.948 C 108.677 119.546,109.130 119.221,108.800 119.226 C 108.470 119.230,107.634 119.541,106.943 119.917 M127.200 120.800 C 127.200 121.240,127.380 121.600,127.600 121.600 C 127.820 121.600,128.000 121.240,128.000 120.800 C 128.000 120.360,127.820 120.000,127.600 120.000 C 127.380 120.000,127.200 120.360,127.200 120.800 M295.386 122.300 C 296.221 123.125,297.421 124.880,298.052 126.200 C 299.308 128.826,299.646 128.420,298.431 125.745 C 297.621 123.960,294.972 120.800,294.287 120.800 C 294.056 120.800,294.550 121.475,295.386 122.300 M127.600 123.200 C 127.600 123.640,127.780 124.000,128.000 124.000 C 128.220 124.000,128.400 123.640,128.400 123.200 C 128.400 122.760,128.220 122.400,128.000 122.400 C 127.780 122.400,127.600 122.760,127.600 123.200 M128.000 125.600 C 128.000 126.040,128.180 126.400,128.400 126.400 C 128.620 126.400,128.800 126.040,128.800 125.600 C 128.800 125.160,128.620 124.800,128.400 124.800 C 128.180 124.800,128.000 125.160,128.000 125.600 M121.578 126.900 C 122.248 127.615,122.797 128.425,122.798 128.700 C 122.799 128.975,122.989 129.200,123.221 129.200 C 123.452 129.200,123.830 129.740,124.060 130.400 C 124.290 131.060,124.641 131.600,124.839 131.600 C 125.038 131.600,125.200 131.870,125.200 132.200 C 125.200 132.530,125.391 132.800,125.624 132.800 C 125.857 132.800,125.936 132.980,125.800 133.200 C 125.664 133.420,125.754 133.600,126.000 133.600 C 126.246 133.600,126.336 133.780,126.200 134.000 C 126.064 134.220,126.154 134.400,126.400 134.400 C 126.646 134.400,126.736 134.580,126.600 134.800 C 126.464 135.020,126.554 135.200,126.800 135.200 C 127.046 135.200,127.136 135.380,127.000 135.600 C 126.864 135.820,126.917 136.000,127.117 136.000 C 127.317 136.000,128.037 137.260,128.718 138.800 C 129.974 141.645,131.600 142.786,131.600 140.824 C 131.600 139.902,130.945 139.380,130.689 140.098 C 130.433 140.814,130.304 140.623,128.193 136.400 C 125.204 130.418,121.861 125.600,120.701 125.600 C 120.513 125.600,120.908 126.185,121.578 126.900 M276.963 127.750 C 275.060 129.714,268.418 141.752,268.946 142.279 C 269.315 142.649,270.400 141.046,271.166 138.999 C 273.185 133.603,276.850 127.645,278.932 126.376 C 279.629 125.951,279.940 125.602,279.623 125.601 C 279.305 125.601,278.108 126.567,276.963 127.750 M283.102 126.635 C 284.337 127.609,286.400 131.347,286.400 132.612 C 286.400 132.935,286.600 133.200,286.843 133.200 C 287.397 133.200,287.051 131.725,285.947 129.377 C 285.214 127.816,282.962 125.593,282.127 125.604 C 281.947 125.607,282.386 126.071,283.102 126.635 M128.651 128.900 C 128.920 130.658,129.076 131.058,129.374 130.759 C 129.684 130.450,129.107 127.200,128.743 127.200 C 128.549 127.200,128.508 127.965,128.651 128.900 M113.616 129.640 C 113.177 130.608,112.826 131.670,112.837 132.000 C 112.848 132.330,113.113 131.899,113.427 131.042 C 113.741 130.185,114.204 129.236,114.456 128.932 C 114.708 128.629,114.802 128.268,114.664 128.131 C 114.527 127.993,114.055 128.673,113.616 129.640 M299.701 132.200 C 299.705 133.080,299.787 133.393,299.883 132.895 C 299.979 132.398,299.975 131.678,299.875 131.295 C 299.775 130.913,299.696 131.320,299.701 132.200 M129.206 131.900 C 129.203 132.395,129.380 132.800,129.600 132.800 C 130.101 132.800,130.101 132.376,129.600 131.600 C 129.286 131.115,129.211 131.172,129.206 131.900 M129.606 133.876 C 129.603 134.358,129.780 134.864,130.000 135.000 C 130.509 135.315,130.509 134.388,130.000 133.600 C 129.685 133.112,129.611 133.164,129.606 133.876 M286.800 137.000 C 286.800 138.930,286.947 139.957,287.200 139.800 C 287.420 139.664,287.600 138.404,287.600 137.000 C 287.600 135.596,287.420 134.336,287.200 134.200 C 286.947 134.043,286.800 135.070,286.800 137.000 M130.000 136.376 C 130.000 136.829,130.180 137.200,130.400 137.200 C 130.620 137.200,130.800 136.941,130.800 136.624 C 130.800 136.307,130.620 135.936,130.400 135.800 C 130.180 135.664,130.000 135.923,130.000 136.376 M130.400 138.376 C 130.400 138.829,130.580 139.200,130.800 139.200 C 131.020 139.200,131.200 138.941,131.200 138.624 C 131.200 138.307,131.020 137.936,130.800 137.800 C 130.580 137.664,130.400 137.923,130.400 138.376 M299.714 140.600 C 299.717 141.700,299.795 142.103,299.887 141.495 C 299.979 140.886,299.977 139.986,299.882 139.495 C 299.787 139.003,299.711 139.500,299.714 140.600 M99.628 142.276 C 99.613 143.198,99.780 144.064,100.000 144.200 C 100.486 144.500,100.486 142.531,100.000 141.400 C 99.733 140.778,99.650 140.973,99.628 142.276 M286.612 141.717 C 286.441 142.112,286.413 142.547,286.551 142.684 C 286.957 143.090,287.284 142.520,287.097 141.731 C 286.932 141.033,286.910 141.032,286.612 141.717 M286.232 143.643 C 286.130 143.949,285.579 145.715,285.008 147.567 C 283.757 151.628,281.284 156.503,279.509 158.406 C 278.795 159.173,278.028 160.090,277.805 160.444 C 277.582 160.798,276.736 161.968,275.924 163.044 C 274.304 165.192,271.440 170.423,271.021 172.000 C 270.875 172.550,271.743 171.150,272.950 168.889 C 274.862 165.307,276.031 163.632,279.315 159.772 C 281.871 156.767,285.106 150.240,286.393 145.489 C 286.850 143.800,286.712 142.210,286.232 143.643 M100.006 145.900 C 100.047 147.915,103.035 156.800,103.672 156.800 C 103.918 156.800,103.959 156.517,103.773 156.100 C 102.786 153.887,100.813 147.636,100.807 146.700 C 100.803 146.095,100.620 145.600,100.400 145.600 C 100.180 145.600,100.003 145.735,100.006 145.900 M113.629 145.829 C 113.588 146.433,114.857 150.076,115.044 149.890 C 115.128 149.805,114.851 148.760,114.428 147.568 C 114.005 146.376,113.645 145.593,113.629 145.829 M297.265 153.141 C 296.250 156.528,292.420 163.442,289.699 166.800 C 286.294 171.001,284.228 174.458,278.074 186.247 C 269.730 202.232,264.265 210.600,254.424 222.459 C 252.676 224.565,252.672 224.577,254.165 223.200 C 257.015 220.571,258.400 219.120,258.400 218.763 C 258.400 218.567,258.760 218.182,259.200 217.907 C 259.640 217.632,260.000 217.175,260.000 216.891 C 260.000 216.607,260.254 216.278,260.564 216.159 C 260.874 216.039,261.237 215.505,261.372 214.971 C 261.506 214.437,261.792 214.000,262.008 214.000 C 262.223 214.000,262.400 213.724,262.400 213.387 C 262.400 213.051,262.669 212.672,262.998 212.546 C 263.326 212.419,263.495 212.154,263.372 211.955 C 263.250 211.757,263.430 211.487,263.772 211.355 C 264.115 211.224,264.295 210.954,264.172 210.755 C 264.050 210.557,264.230 210.287,264.572 210.155 C 264.915 210.024,265.095 209.754,264.972 209.555 C 264.850 209.357,265.030 209.087,265.372 208.955 C 265.715 208.824,265.913 208.582,265.811 208.418 C 265.710 208.255,266.071 207.735,266.614 207.263 C 267.156 206.791,267.600 206.134,267.600 205.803 C 267.600 205.471,267.751 205.200,267.935 205.200 C 268.119 205.200,268.752 204.246,269.342 203.080 C 269.932 201.913,271.065 199.978,271.859 198.780 C 272.653 197.581,274.564 194.170,276.105 191.200 C 277.647 188.230,279.109 185.668,279.354 185.506 C 279.608 185.339,279.628 185.207,279.400 185.200 C 279.180 185.193,279.207 185.056,279.461 184.894 C 279.715 184.732,280.375 183.575,280.929 182.323 C 281.483 181.070,283.030 178.145,284.368 175.823 C 285.706 173.501,286.800 171.430,286.800 171.221 C 286.800 171.011,287.025 170.696,287.300 170.520 C 287.575 170.344,287.998 169.840,288.239 169.400 C 288.481 168.960,289.021 168.420,289.439 168.200 C 289.858 167.980,290.200 167.535,290.200 167.212 C 290.200 166.888,290.604 166.422,291.098 166.176 C 291.591 165.930,291.888 165.622,291.757 165.491 C 291.627 165.360,291.872 164.875,292.302 164.413 C 293.779 162.828,298.225 152.875,297.897 151.890 C 297.822 151.667,297.538 152.230,297.265 153.141 M117.258 154.909 C 117.803 155.928,120.404 159.699,120.768 160.000 C 122.280 161.246,128.800 171.412,128.800 172.523 C 128.800 172.635,129.630 174.498,130.645 176.663 C 131.659 178.828,133.167 182.063,133.996 183.850 C 138.560 193.697,148.035 209.137,152.866 214.600 C 153.256 215.040,153.924 215.850,154.353 216.400 C 154.781 216.950,155.268 217.263,155.436 217.096 C 155.604 216.929,155.468 216.569,155.134 216.296 C 154.800 216.023,153.373 214.270,151.963 212.400 C 150.554 210.530,149.261 208.939,149.090 208.863 C 148.752 208.714,145.600 204.174,145.600 203.836 C 145.600 203.722,144.641 202.047,143.469 200.114 C 139.663 193.836,128.400 171.122,128.400 169.724 C 128.400 169.505,128.032 168.893,127.583 168.363 C 127.133 167.834,125.876 166.050,124.788 164.400 C 123.701 162.750,121.985 160.410,120.975 159.200 C 119.965 157.990,118.853 156.423,118.504 155.718 C 118.154 155.012,117.624 154.341,117.325 154.227 C 116.882 154.057,116.870 154.184,117.258 154.909 M103.600 157.600 C 103.600 157.820,103.791 158.000,104.024 158.000 C 104.257 158.000,104.336 158.180,104.200 158.400 C 104.064 158.620,104.154 158.800,104.400 158.800 C 104.646 158.800,104.736 158.980,104.600 159.200 C 104.464 159.420,104.554 159.600,104.800 159.600 C 105.046 159.600,105.145 159.765,105.021 159.966 C 104.897 160.167,104.935 160.392,105.105 160.466 C 105.276 160.540,106.164 161.870,107.080 163.423 C 107.995 164.976,110.107 167.753,111.772 169.596 C 113.437 171.438,114.800 173.162,114.800 173.428 C 114.800 173.694,115.161 174.336,115.602 174.856 L 116.404 175.800 116.002 174.673 C 115.315 172.749,114.734 171.864,112.900 169.943 C 110.209 167.125,107.777 163.736,105.980 160.300 C 104.529 157.525,103.600 156.471,103.600 157.600 M269.199 176.001 C 268.685 177.101,268.114 178.000,267.932 178.000 C 267.749 178.000,267.600 178.180,267.600 178.400 C 267.600 178.620,267.743 178.800,267.917 178.800 C 268.273 178.800,270.523 174.389,270.287 174.154 C 270.204 174.070,269.714 174.902,269.199 176.001 M116.000 176.400 C 116.000 176.620,116.168 176.800,116.373 176.800 C 116.745 176.800,117.276 177.996,117.095 178.429 C 117.043 178.554,117.317 178.974,117.704 179.361 C 118.091 179.748,118.305 180.230,118.180 180.432 C 118.055 180.635,118.154 180.800,118.400 180.800 C 118.646 180.800,118.736 180.980,118.600 181.200 C 118.464 181.420,118.543 181.600,118.776 181.600 C 119.373 181.600,119.349 181.516,117.914 178.608 C 116.740 176.227,116.000 175.373,116.000 176.400 M266.241 181.652 C 264.561 185.527,257.630 198.554,256.991 199.040 C 256.673 199.281,256.530 199.596,256.673 199.740 C 256.816 199.883,256.723 200.000,256.467 200.000 C 256.210 200.000,256.000 200.270,256.000 200.600 C 256.000 200.930,255.820 201.200,255.600 201.200 C 255.380 201.200,255.200 201.470,255.200 201.800 C 255.200 202.130,255.032 202.400,254.827 202.400 C 254.622 202.400,254.331 202.787,254.181 203.260 C 253.825 204.381,249.597 210.372,247.117 213.269 C 246.049 214.516,245.324 215.629,245.505 215.741 C 246.232 216.191,252.595 207.541,257.342 199.648 C 260.189 194.915,268.000 180.103,268.000 179.437 C 268.000 178.504,267.132 179.597,266.241 181.652 M119.493 183.600 C 119.839 184.480,120.285 185.200,120.484 185.200 C 120.684 185.200,120.736 185.380,120.600 185.600 C 120.464 185.820,120.554 186.000,120.800 186.000 C 121.046 186.000,121.136 186.180,121.000 186.400 C 120.864 186.620,120.954 186.800,121.200 186.800 C 121.446 186.800,121.536 186.980,121.400 187.200 C 121.264 187.420,121.354 187.600,121.600 187.600 C 121.846 187.600,121.936 187.780,121.800 188.000 C 121.664 188.220,121.754 188.400,122.000 188.400 C 122.246 188.400,122.348 188.561,122.226 188.758 C 122.104 188.955,122.274 189.219,122.602 189.346 C 123.465 189.677,123.398 189.482,121.300 185.560 C 119.309 181.838,118.423 180.877,119.493 183.600 M124.164 192.780 C 124.897 194.310,126.122 196.515,126.887 197.680 C 129.367 201.459,131.200 204.411,131.200 204.626 C 131.200 204.950,135.077 210.620,135.778 211.321 C 136.120 211.663,136.400 212.092,136.400 212.275 C 136.400 212.458,136.767 212.837,137.216 213.117 C 137.664 213.397,137.923 213.800,137.792 214.013 C 137.660 214.226,137.719 214.400,137.923 214.400 C 138.127 214.400,138.746 215.075,139.299 215.900 C 140.799 218.139,145.643 223.691,145.885 223.449 C 146.001 223.333,144.690 221.564,142.973 219.519 C 141.256 217.474,138.523 214.000,136.899 211.800 C 135.275 209.600,133.689 207.483,133.374 207.095 C 133.058 206.708,132.800 206.213,132.800 205.995 C 132.800 205.778,132.620 205.600,132.400 205.600 C 132.180 205.600,132.000 205.434,132.000 205.232 C 132.000 205.029,131.132 203.454,130.072 201.732 C 129.011 200.009,127.111 196.665,125.850 194.300 C 123.305 189.529,122.073 188.419,124.164 192.780 M240.861 220.110 C 238.737 222.151,236.190 224.488,235.200 225.303 C 233.995 226.294,233.629 226.787,234.094 226.792 C 234.777 226.800,245.722 216.443,245.061 216.414 C 244.875 216.407,242.985 218.070,240.861 220.110 M157.583 219.700 C 159.241 221.466,159.600 221.784,159.600 221.483 C 159.600 221.419,158.745 220.564,157.700 219.583 L 155.800 217.800 157.583 219.700 M160.400 222.357 C 160.400 222.838,162.451 224.482,162.718 224.215 C 162.982 223.951,162.038 222.849,161.133 222.364 C 160.668 222.115,160.400 222.113,160.400 222.357 M149.687 227.882 C 151.822 230.017,153.679 231.655,153.813 231.521 C 154.130 231.203,146.927 224.000,146.292 224.000 C 146.024 224.000,147.552 225.747,149.687 227.882 M163.275 224.825 C 163.371 225.114,163.686 225.429,163.975 225.525 C 164.275 225.625,164.425 225.475,164.325 225.175 C 164.229 224.886,163.914 224.571,163.625 224.475 C 163.325 224.375,163.175 224.525,163.275 224.825 M164.800 225.964 C 164.800 226.384,169.988 229.745,170.243 229.490 C 170.336 229.397,169.329 228.653,168.006 227.836 C 166.683 227.019,165.600 226.182,165.600 225.975 C 165.600 225.769,165.420 225.600,165.200 225.600 C 164.980 225.600,164.800 225.764,164.800 225.964 M249.608 227.392 C 248.641 228.377,247.977 229.311,248.133 229.467 C 248.426 229.760,252.000 226.479,252.000 225.917 C 252.000 225.238,251.296 225.672,249.608 227.392 M229.083 229.268 C 227.809 229.946,226.846 230.580,226.943 230.676 C 227.143 230.876,232.000 228.493,232.000 228.194 C 232.000 227.819,231.379 228.048,229.083 229.268 M171.800 230.328 C 172.345 230.843,176.303 232.544,175.800 232.047 C 175.580 231.829,174.500 231.268,173.400 230.800 C 172.300 230.332,171.580 230.119,171.800 230.328 M245.590 231.313 C 245.035 231.801,243.869 232.785,242.999 233.500 C 242.129 234.215,241.594 234.800,241.809 234.799 C 242.200 234.799,247.178 230.442,246.800 230.431 C 246.690 230.428,246.146 230.825,245.590 231.313 M154.800 232.326 C 154.800 232.884,156.309 234.097,156.800 233.933 C 157.045 233.852,156.696 233.378,156.023 232.880 C 155.350 232.383,154.800 232.134,154.800 232.326 M157.600 234.790 C 157.600 235.026,158.035 235.385,158.568 235.588 C 159.100 235.790,159.685 236.204,159.868 236.507 C 160.385 237.366,162.759 238.975,163.062 238.672 C 163.211 238.522,163.258 238.344,163.167 238.275 C 160.521 236.291,157.600 234.462,157.600 234.790 M186.400 235.157 C 186.400 235.599,187.438 236.029,187.750 235.717 C 187.876 235.591,187.883 235.334,187.766 235.144 C 187.485 234.690,186.400 234.700,186.400 235.157 M211.784 235.227 C 211.315 235.986,211.999 236.173,212.695 235.476 C 213.319 234.853,213.320 234.800,212.709 234.800 C 212.345 234.800,211.929 234.992,211.784 235.227 M190.626 235.558 C 190.373 235.967,191.301 236.400,192.433 236.400 C 192.855 236.400,193.200 236.130,193.200 235.800 C 193.200 235.138,191.013 234.933,190.626 235.558 M207.200 235.800 C 207.200 236.251,207.481 236.416,208.100 236.328 C 208.595 236.258,209.000 236.020,209.000 235.800 C 209.000 235.580,208.595 235.342,208.100 235.272 C 207.481 235.184,207.200 235.349,207.200 235.800 M238.584 236.827 C 238.439 237.061,238.416 237.349,238.533 237.467 C 238.820 237.753,239.600 237.248,239.600 236.776 C 239.600 236.265,238.909 236.299,238.584 236.827 M163.600 239.093 C 163.600 239.430,166.418 241.200,166.954 241.200 C 167.090 241.200,167.200 241.009,167.200 240.776 C 167.200 240.543,167.020 240.464,166.800 240.600 C 166.580 240.736,166.400 240.685,166.400 240.488 C 166.400 240.183,165.851 239.830,163.900 238.880 C 163.735 238.799,163.600 238.895,163.600 239.093 M233.101 240.337 C 231.644 241.216,231.699 241.663,233.200 241.140 C 233.860 240.910,234.400 240.469,234.400 240.161 C 234.400 239.852,234.355 239.616,234.300 239.637 C 234.245 239.657,233.705 239.972,233.101 240.337 M168.976 242.213 C 169.404 242.536,169.944 242.794,170.176 242.787 C 170.409 242.780,170.251 242.510,169.824 242.187 C 169.396 241.864,168.856 241.606,168.624 241.613 C 168.391 241.620,168.549 241.890,168.976 242.213 M229.376 242.633 C 228.666 243.212,228.662 243.246,229.333 243.033 C 229.736 242.905,230.231 242.800,230.433 242.800 C 230.635 242.800,230.800 242.620,230.800 242.400 C 230.800 241.821,230.266 241.908,229.376 242.633 M173.200 243.943 C 173.200 244.354,174.412 244.922,174.692 244.642 C 174.789 244.544,174.493 244.264,174.034 244.018 C 173.575 243.773,173.200 243.739,173.200 243.943 M182.400 247.600 C 182.400 247.820,182.670 248.000,183.000 248.000 C 183.330 248.000,183.600 247.820,183.600 247.600 C 183.600 247.380,183.330 247.200,183.000 247.200 C 182.670 247.200,182.400 247.380,182.400 247.600 M213.300 247.865 C 212.604 248.146,212.673 248.800,213.400 248.800 C 213.730 248.800,214.000 248.530,214.000 248.200 C 214.000 247.870,213.955 247.614,213.900 247.632 C 213.845 247.649,213.575 247.754,213.300 247.865 M187.846 248.625 C 187.700 249.005,187.892 249.200,188.413 249.200 C 189.323 249.200,189.468 248.588,188.633 248.268 C 188.321 248.148,187.967 248.309,187.846 248.625 M190.800 249.200 C 190.800 249.420,191.070 249.600,191.400 249.600 C 191.730 249.600,192.000 249.420,192.000 249.200 C 192.000 248.980,191.730 248.800,191.400 248.800 C 191.070 248.800,190.800 248.980,190.800 249.200 M207.800 249.200 C 207.936 249.420,208.307 249.600,208.624 249.600 C 208.941 249.600,209.200 249.420,209.200 249.200 C 209.200 248.980,208.829 248.800,208.376 248.800 C 207.923 248.800,207.664 248.980,207.800 249.200 M194.800 249.600 C 194.800 249.820,195.610 250.000,196.600 250.000 C 197.590 250.000,198.400 249.820,198.400 249.600 C 198.400 249.380,197.590 249.200,196.600 249.200 C 195.610 249.200,194.800 249.380,194.800 249.600 M202.400 249.600 C 202.400 249.820,202.929 250.000,203.576 250.000 C 204.223 250.000,204.864 249.820,205.000 249.600 C 205.147 249.362,204.671 249.200,203.824 249.200 C 203.041 249.200,202.400 249.380,202.400 249.600 M184.188 263.864 C 182.655 265.306,181.760 266.248,182.200 265.956 C 182.640 265.663,183.847 264.654,184.883 263.712 L 186.766 262.000 200.283 261.994 C 209.282 261.990,213.599 261.856,213.200 261.595 C 212.837 261.356,207.544 261.209,199.788 261.221 L 186.977 261.241 184.188 263.864 M136.000 261.971 C 136.000 262.207,136.180 262.400,136.400 262.400 C 136.620 262.400,136.800 263.120,136.800 264.000 C 136.800 264.880,136.990 265.600,137.222 265.600 C 137.998 265.600,137.496 261.825,136.700 261.674 C 136.315 261.601,136.000 261.735,136.000 261.971 M214.000 262.330 C 214.000 262.673,215.214 263.826,216.600 264.800 C 217.040 265.109,216.688 264.606,215.819 263.681 C 214.156 261.913,214.000 261.797,214.000 262.330 M262.167 263.200 C 262.289 263.750,262.392 264.515,262.395 264.900 C 262.398 265.285,262.583 265.600,262.808 265.600 C 263.253 265.600,262.937 263.794,262.319 262.800 C 262.049 262.367,262.007 262.479,262.167 263.200 M218.000 265.925 C 218.000 266.104,218.540 266.768,219.200 267.400 C 220.027 268.192,220.400 268.362,220.400 267.947 C 220.400 267.615,219.949 266.952,219.397 266.472 C 218.321 265.536,218.000 265.411,218.000 265.925 M179.469 267.528 C 178.875 268.148,178.514 268.781,178.667 268.933 C 178.961 269.228,181.200 267.277,181.200 266.725 C 181.200 266.103,180.543 266.407,179.469 267.528 M278.800 266.800 C 278.800 267.020,279.070 267.200,279.400 267.200 C 279.730 267.200,280.000 267.020,280.000 266.800 C 280.000 266.580,279.730 266.400,279.400 266.400 C 279.070 266.400,278.800 266.580,278.800 266.800 M113.612 268.384 C 113.288 268.589,113.178 268.901,113.366 269.078 C 113.555 269.255,113.787 269.185,113.881 268.922 C 113.975 268.660,114.310 268.544,114.626 268.665 C 114.942 268.786,115.200 268.686,115.200 268.443 C 115.200 267.906,114.414 267.877,113.612 268.384 M262.963 274.800 C 262.963 278.430,263.023 279.915,263.098 278.100 C 263.172 276.285,263.172 273.315,263.098 271.500 C 263.023 269.685,262.963 271.170,262.963 274.800 M136.667 269.067 C 136.243 269.490,136.357 272.000,136.800 272.000 C 137.020 272.000,137.200 271.280,137.200 270.400 C 137.200 268.765,137.134 268.600,136.667 269.067 M221.247 269.500 C 223.402 272.265,224.990 273.999,225.363 273.994 C 225.603 273.991,225.530 273.813,225.200 273.600 C 224.870 273.387,224.706 273.209,224.836 273.206 C 224.966 273.203,224.291 272.349,223.336 271.309 C 222.381 270.269,221.600 269.279,221.600 269.109 C 221.600 268.939,221.398 268.800,221.151 268.800 C 220.856 268.800,220.889 269.040,221.247 269.500 M176.700 270.913 C 176.095 271.538,175.600 272.179,175.600 272.336 C 175.600 272.494,175.240 272.930,174.800 273.307 C 173.972 274.016,173.750 274.998,174.336 275.361 C 174.521 275.475,175.594 277.061,176.720 278.884 C 178.724 282.131,188.373 292.299,190.464 293.368 C 191.516 293.905,191.527 293.797,190.066 297.516 C 185.232 309.826,183.937 313.270,184.087 313.420 C 184.181 313.514,186.045 309.167,188.228 303.760 L 192.199 293.928 190.604 292.664 C 185.411 288.549,180.151 282.939,176.967 278.121 C 174.382 274.209,174.436 274.847,176.456 272.172 C 178.286 269.749,178.401 269.153,176.700 270.913 M223.251 277.300 C 222.036 279.086,221.875 279.457,222.688 278.600 C 224.246 276.957,225.730 274.800,225.304 274.800 C 225.111 274.800,224.187 275.925,223.251 277.300 M90.500 275.465 C 90.225 275.576,90.000 275.854,90.000 276.082 C 90.000 276.355,90.185 276.345,90.537 276.052 C 90.832 275.807,91.174 275.707,91.297 275.830 C 91.419 275.953,91.639 275.861,91.784 275.627 C 92.054 275.189,91.391 275.106,90.500 275.465 M310.616 276.427 C 310.761 276.661,310.981 276.753,311.103 276.630 C 311.226 276.507,311.568 276.607,311.863 276.852 C 312.201 277.133,312.400 277.147,312.400 276.892 C 312.400 276.668,312.115 276.376,311.767 276.243 C 310.807 275.874,310.323 275.951,310.616 276.427 M77.145 279.755 C 76.565 280.058,75.125 280.619,73.945 281.002 C 72.765 281.385,71.635 281.850,71.434 282.036 C 71.232 282.221,72.807 281.800,74.934 281.099 C 77.060 280.399,78.800 279.685,78.800 279.513 C 78.800 279.062,78.346 279.129,77.145 279.755 M214.571 287.103 L 207.741 294.151 208.805 296.776 C 209.390 298.219,213.081 307.452,217.007 317.294 C 220.933 327.136,224.225 335.108,224.323 335.011 C 224.420 334.913,223.589 332.531,222.476 329.717 C 218.993 320.909,215.925 313.016,215.823 312.600 C 215.347 310.652,215.022 309.764,214.712 309.560 C 214.511 309.428,214.297 309.068,214.236 308.760 C 214.175 308.452,213.763 307.390,213.322 306.400 C 212.880 305.410,212.111 303.449,211.612 302.041 C 211.114 300.634,210.201 298.256,209.583 296.758 L 208.459 294.033 215.029 287.388 C 220.464 281.893,222.300 279.804,221.500 280.028 C 221.445 280.043,218.327 283.227,214.571 287.103 M327.200 281.893 C 329.557 282.795,332.112 283.558,331.789 283.262 C 331.334 282.846,327.655 281.585,327.029 281.632 C 326.793 281.649,326.870 281.767,327.200 281.893 M136.400 283.976 C 136.400 284.403,136.580 284.864,136.800 285.000 C 137.027 285.140,137.200 284.804,137.200 284.224 C 137.200 283.661,137.020 283.200,136.800 283.200 C 136.580 283.200,136.400 283.549,136.400 283.976 M262.692 285.442 C 262.531 285.602,262.416 286.378,262.436 287.167 L 262.472 288.600 262.857 287.263 C 263.263 285.852,263.182 284.952,262.692 285.442 M56.800 287.431 L 55.800 288.033 56.800 287.768 C 58.252 287.384,59.203 286.824,58.400 286.826 C 58.070 286.827,57.350 287.099,56.800 287.431 M136.800 287.376 C 136.800 287.693,136.980 288.064,137.200 288.200 C 137.420 288.336,137.600 288.077,137.600 287.624 C 137.600 287.171,137.420 286.800,137.200 286.800 C 136.980 286.800,136.800 287.059,136.800 287.376 M344.206 287.990 C 344.086 288.185,344.170 288.458,344.393 288.596 C 344.617 288.734,344.803 288.702,344.806 288.524 C 344.809 288.346,344.987 288.470,345.200 288.800 C 345.537 289.321,345.589 289.313,345.594 288.743 C 345.601 288.009,344.548 287.437,344.206 287.990 M54.216 288.373 C 54.071 288.608,53.603 288.800,53.176 288.800 C 52.749 288.800,52.400 288.991,52.400 289.224 C 52.400 289.457,52.254 289.557,52.075 289.446 C 51.649 289.183,47.600 291.500,47.600 292.008 C 47.600 292.595,48.087 292.471,49.200 291.600 C 49.750 291.170,50.432 290.814,50.716 290.809 C 52.062 290.786,55.207 288.674,54.680 288.147 C 54.570 288.037,54.361 288.139,54.216 288.373 M137.200 289.776 C 137.200 290.093,137.380 290.464,137.600 290.600 C 137.820 290.736,138.000 290.477,138.000 290.024 C 138.000 289.571,137.820 289.200,137.600 289.200 C 137.380 289.200,137.200 289.459,137.200 289.776 M262.269 289.643 C 262.187 289.949,261.714 291.888,261.218 293.952 C 260.222 298.100,257.677 305.324,257.139 305.534 C 256.950 305.608,256.897 305.833,257.021 306.034 C 257.145 306.235,257.046 306.400,256.800 306.400 C 256.554 306.400,256.464 306.580,256.600 306.800 C 256.736 307.020,256.646 307.200,256.400 307.200 C 256.154 307.200,256.055 307.365,256.179 307.566 C 256.303 307.767,256.248 307.992,256.056 308.066 C 255.864 308.140,254.418 310.855,252.842 314.100 C 251.267 317.345,249.792 320.000,249.565 320.000 C 249.338 320.000,249.265 320.181,249.402 320.403 C 249.539 320.624,249.382 320.909,249.053 321.035 C 248.524 321.238,247.749 322.784,247.690 323.755 C 247.678 323.951,247.428 324.263,247.134 324.449 C 246.801 324.660,246.772 324.790,247.058 324.794 C 247.924 324.805,254.986 312.208,257.765 305.694 C 260.483 299.320,263.276 289.943,262.644 289.311 C 262.520 289.187,262.352 289.336,262.269 289.643 M349.389 290.417 C 349.259 290.628,349.239 290.800,349.344 290.800 C 349.449 290.800,349.819 290.909,350.167 291.043 C 350.515 291.176,350.800 291.106,350.800 290.886 C 350.800 290.326,349.676 289.953,349.389 290.417 M137.600 291.924 C 137.600 292.139,137.885 292.424,138.233 292.557 C 138.623 292.707,138.806 292.618,138.708 292.325 C 138.509 291.727,137.600 291.398,137.600 291.924 M352.000 291.901 C 352.000 292.343,354.751 293.782,355.041 293.492 C 355.171 293.362,354.540 292.880,353.639 292.420 C 352.737 291.960,352.000 291.726,352.000 291.901 M44.100 293.829 C 42.725 294.609,41.600 295.414,41.600 295.618 C 41.600 295.823,42.545 295.391,43.700 294.659 C 44.855 293.927,46.160 293.125,46.600 292.876 C 47.040 292.628,47.220 292.422,47.000 292.418 C 46.780 292.415,45.475 293.050,44.100 293.829 M138.000 293.800 C 138.000 294.130,138.180 294.400,138.400 294.400 C 138.620 294.400,138.800 294.130,138.800 293.800 C 138.800 293.470,138.620 293.200,138.400 293.200 C 138.180 293.200,138.000 293.470,138.000 293.800 M355.600 293.922 C 355.600 294.114,356.095 294.520,356.700 294.823 C 358.383 295.667,358.676 295.713,357.800 294.996 C 356.604 294.017,355.600 293.527,355.600 293.922 M138.400 295.099 C 138.400 300.176,157.812 336.369,160.549 336.397 C 160.741 336.398,160.674 336.130,160.400 335.800 C 160.126 335.470,160.059 335.197,160.251 335.194 C 160.443 335.191,160.404 335.056,160.164 334.894 C 159.517 334.458,152.562 323.940,152.231 322.897 C 152.074 322.404,151.798 322.000,151.616 322.000 C 151.435 322.000,151.174 321.550,151.036 321.000 C 150.898 320.450,150.608 320.000,150.392 320.000 C 150.177 320.000,150.000 319.745,150.000 319.433 C 150.000 319.122,149.865 318.807,149.700 318.733 C 148.398 318.155,142.798 306.505,140.654 299.914 C 139.259 295.625,138.400 293.790,138.400 295.099 M358.805 295.876 C 358.811 296.289,361.614 298.119,361.861 297.872 C 361.963 297.771,361.541 297.337,360.923 296.909 C 359.214 295.725,358.800 295.523,358.805 295.876 M38.300 297.266 C 37.023 297.958,36.312 298.800,37.006 298.800 C 37.416 298.800,39.990 296.992,39.995 296.700 C 40.001 296.326,40.090 296.296,38.300 297.266 M362.434 298.259 C 362.622 298.774,366.800 302.146,366.800 301.783 C 366.800 301.237,365.939 300.000,365.559 300.000 C 365.332 300.000,364.499 299.506,363.707 298.902 C 362.916 298.298,362.343 298.009,362.434 298.259 M34.400 300.000 C 33.693 300.660,32.975 301.200,32.804 301.200 C 32.632 301.200,32.221 301.614,31.889 302.120 C 31.557 302.626,30.462 303.661,29.455 304.420 C 28.449 305.179,27.619 305.981,27.612 306.201 C 27.606 306.422,27.079 307.095,26.441 307.696 C 25.804 308.298,24.662 310.007,23.903 311.495 C 23.144 312.983,21.686 315.745,20.662 317.633 C 19.638 319.521,18.800 321.366,18.800 321.733 C 18.800 322.100,18.632 322.400,18.427 322.400 C 18.047 322.400,17.377 323.954,17.521 324.500 C 17.564 324.665,17.401 324.800,17.157 324.800 C 16.914 324.800,16.818 325.070,16.945 325.400 C 17.071 325.730,17.039 326.000,16.873 326.000 C 16.706 326.000,16.543 326.360,16.510 326.800 C 16.477 327.240,16.619 327.600,16.825 327.600 C 17.031 327.600,17.200 327.404,17.200 327.164 C 17.200 326.362,21.877 316.468,24.176 312.407 C 26.746 307.868,29.566 304.620,33.622 301.527 C 35.150 300.362,36.400 299.271,36.400 299.104 C 36.400 298.494,35.655 298.827,34.400 300.000 M367.200 301.930 C 367.200 302.273,368.414 303.426,369.800 304.400 C 370.240 304.709,369.888 304.206,369.019 303.281 C 367.356 301.513,367.200 301.397,367.200 301.930 M372.480 307.400 C 376.114 312.173,381.717 323.174,383.984 329.989 C 385.318 333.999,385.884 335.120,385.404 332.800 C 384.536 328.610,379.272 316.651,376.447 312.455 C 376.057 311.875,375.076 310.396,374.267 309.168 C 373.458 307.940,372.314 306.500,371.724 305.968 C 371.074 305.380,371.370 305.943,372.480 307.400 M182.396 317.079 C 181.684 318.796,180.985 320.290,180.844 320.400 C 180.597 320.592,176.849 329.888,175.208 334.377 C 174.524 336.248,174.413 337.329,174.963 336.767 C 175.293 336.429,183.981 314.248,183.839 314.106 C 183.758 314.025,183.109 315.363,182.396 317.079 M246.498 325.466 C 246.221 325.577,246.098 325.834,246.223 326.037 C 246.348 326.240,246.169 326.514,245.825 326.646 C 245.481 326.778,245.200 327.136,245.200 327.443 C 245.200 327.749,245.020 328.000,244.800 328.000 C 244.580 328.000,244.400 328.255,244.400 328.567 C 244.400 328.878,244.254 329.193,244.075 329.267 C 243.669 329.433,240.400 333.863,240.400 334.247 C 240.400 334.637,237.536 338.391,235.817 340.254 C 235.032 341.104,233.717 342.677,232.895 343.748 C 232.073 344.820,230.905 346.228,230.300 346.879 C 229.695 347.529,229.200 348.205,229.200 348.380 C 229.200 348.555,228.390 349.445,227.400 350.357 C 225.558 352.055,225.318 352.400,225.976 352.400 C 226.937 352.400,243.600 331.657,243.600 330.461 C 243.600 330.244,243.745 330.007,243.923 329.933 C 244.331 329.765,247.478 325.141,247.124 325.232 C 247.056 325.249,246.774 325.354,246.498 325.466 M15.730 328.500 C 15.727 328.775,15.588 329.428,15.420 329.950 C 14.966 331.361,15.833 330.654,16.340 329.201 C 16.663 328.273,16.642 328.000,16.246 328.000 C 15.964 328.000,15.732 328.225,15.730 328.500 M224.406 335.900 C 224.420 336.557,225.176 337.356,225.478 337.034 C 225.655 336.845,225.574 336.610,225.298 336.511 C 225.021 336.412,224.897 336.167,225.021 335.966 C 225.145 335.765,225.057 335.600,224.824 335.600 C 224.591 335.600,224.403 335.735,224.406 335.900 M161.145 337.482 C 162.303 339.600,171.413 350.303,171.767 349.960 C 171.903 349.827,171.246 348.914,170.307 347.930 C 168.045 345.558,166.800 344.012,166.800 343.575 C 166.800 343.379,166.350 342.924,165.800 342.563 C 165.250 342.203,164.800 341.678,164.800 341.397 C 164.800 341.116,164.530 340.782,164.200 340.655 C 163.870 340.529,163.600 340.193,163.600 339.909 C 163.600 339.625,163.233 339.163,162.784 338.883 C 162.336 338.603,162.054 338.236,162.159 338.067 C 162.263 337.898,161.989 337.536,161.550 337.262 C 160.839 336.817,160.795 336.841,161.145 337.482 M174.400 338.000 C 174.400 338.220,174.580 338.400,174.800 338.400 C 175.020 338.400,175.200 338.651,175.200 338.957 C 175.200 339.264,175.470 339.618,175.800 339.745 C 176.130 339.871,176.400 340.251,176.400 340.587 C 176.400 340.924,176.580 341.200,176.800 341.200 C 177.020 341.200,177.200 341.451,177.200 341.757 C 177.200 342.064,177.470 342.418,177.800 342.545 C 178.130 342.671,178.400 343.041,178.400 343.367 C 178.400 343.693,179.659 345.274,181.198 346.880 C 184.819 350.658,184.774 350.112,181.100 345.681 C 179.505 343.757,177.495 341.152,176.634 339.892 C 175.157 337.731,174.400 337.090,174.400 338.000 M221.898 341.500 C 220.226 343.645,216.866 347.380,214.431 349.800 C 211.997 352.220,210.004 354.352,210.003 354.538 C 210.000 354.938,218.909 346.532,219.200 345.860 C 219.585 344.973,224.924 338.400,225.261 338.400 C 225.447 338.400,225.600 338.220,225.600 338.000 C 225.600 337.038,224.747 337.845,221.898 341.500 M386.687 341.900 C 386.598 342.065,386.660 342.650,386.823 343.200 C 387.101 344.135,387.123 344.115,387.160 342.900 C 387.199 341.646,387.022 341.273,386.687 341.900 M12.501 346.200 C 12.505 347.080,12.587 347.393,12.683 346.895 C 12.779 346.398,12.775 345.678,12.675 345.295 C 12.575 344.913,12.496 345.320,12.501 346.200 M387.109 347.500 C 387.339 349.822,387.534 349.991,387.568 347.900 C 387.586 346.855,387.456 346.000,387.280 346.000 C 387.104 346.000,387.028 346.675,387.109 347.500 M11.606 351.300 C 11.609 352.015,11.787 352.870,12.000 353.200 C 12.280 353.634,12.389 353.274,12.394 351.900 C 12.397 350.855,12.220 350.000,12.000 350.000 C 11.780 350.000,11.603 350.585,11.606 351.300 M186.725 352.203 C 187.936 353.414,189.029 354.305,189.153 354.181 C 189.370 353.963,185.245 350.052,184.761 350.017 C 184.629 350.008,185.513 350.991,186.725 352.203 M173.063 351.808 C 174.555 353.689,181.764 360.800,182.179 360.800 C 182.634 360.800,174.838 352.523,173.240 351.310 L 171.800 350.216 173.063 351.808 M223.765 354.311 C 223.085 354.910,221.465 356.563,220.165 357.985 L 217.800 360.570 219.880 358.865 C 221.623 357.436,225.584 353.176,225.137 353.211 C 225.062 353.217,224.444 353.712,223.765 354.311 M190.435 355.561 C 191.348 356.796,191.895 356.945,191.472 355.843 C 191.347 355.518,190.858 355.045,190.386 354.792 C 189.533 354.336,189.533 354.342,190.435 355.561 M207.600 356.200 C 206.876 356.971,206.804 357.200,207.284 357.200 C 207.627 357.200,208.203 356.750,208.563 356.200 C 208.924 355.650,209.066 355.200,208.879 355.200 C 208.692 355.200,208.117 355.650,207.600 356.200 M192.000 356.786 C 192.000 356.998,192.360 357.365,192.800 357.600 C 193.681 358.072,193.875 357.635,193.120 356.880 C 192.542 356.302,192.000 356.256,192.000 356.786 M205.222 358.176 C 204.491 358.955,204.409 359.200,204.881 359.200 C 205.630 359.200,206.532 358.197,206.330 357.590 C 206.250 357.349,205.751 357.613,205.222 358.176 M194.000 358.166 C 194.000 358.481,199.237 362.497,199.415 362.318 C 199.514 362.220,198.432 361.208,197.012 360.070 C 194.598 358.135,194.000 357.757,194.000 358.166 M11.761 364.800 C 11.761 368.210,11.822 369.605,11.897 367.900 C 11.972 366.195,11.972 363.405,11.897 361.700 C 11.822 359.995,11.761 361.390,11.761 364.800 M201.794 361.049 C 200.697 362.035,200.160 362.657,200.600 362.431 C 201.802 361.813,204.224 359.690,203.992 359.458 C 203.880 359.347,202.891 360.062,201.794 361.049 M215.578 362.250 C 214.746 363.125,214.517 363.536,215.000 363.287 C 216.016 362.762,217.868 360.800,217.348 360.800 C 217.133 360.800,216.337 361.453,215.578 362.250 M183.800 362.400 C 184.432 363.060,185.130 363.600,185.350 363.600 C 185.570 363.600,185.232 363.060,184.600 362.400 C 183.968 361.740,183.270 361.200,183.050 361.200 C 182.830 361.200,183.168 361.740,183.800 362.400 M186.000 364.152 C 186.000 364.528,189.670 367.263,189.886 367.047 C 190.211 366.722,188.806 365.200,188.181 365.200 C 187.908 365.200,187.582 364.930,187.455 364.600 C 187.260 364.091,186.000 363.703,186.000 364.152 M212.392 364.610 C 212.114 364.945,211.997 365.331,212.133 365.467 C 212.424 365.757,213.600 364.863,213.600 364.351 C 213.600 363.800,212.948 363.940,212.392 364.610 M210.000 366.542 C 208.365 367.987,207.599 369.045,208.600 368.477 C 210.140 367.603,211.304 366.513,211.153 366.088 C 211.065 365.842,210.573 366.036,210.000 366.542 M190.400 367.502 C 190.400 367.722,190.670 368.126,191.000 368.400 C 191.335 368.678,191.600 368.721,191.600 368.498 C 191.600 368.278,191.330 367.874,191.000 367.600 C 190.665 367.322,190.400 367.279,190.400 367.502 M192.000 368.702 C 192.000 368.922,192.270 369.326,192.600 369.600 C 192.935 369.878,193.200 369.921,193.200 369.698 C 193.200 369.478,192.930 369.074,192.600 368.800 C 192.265 368.522,192.000 368.479,192.000 368.702 M206.643 369.433 C 206.493 369.823,206.582 370.006,206.875 369.908 C 207.473 369.709,207.802 368.800,207.276 368.800 C 207.061 368.800,206.776 369.085,206.643 369.433 M195.292 371.275 C 195.379 371.536,195.664 371.821,195.925 371.908 C 196.218 372.006,196.307 371.823,196.157 371.433 C 195.878 370.706,195.052 370.555,195.292 371.275 M196.800 372.293 C 196.800 372.675,198.512 373.600,199.219 373.600 C 199.878 373.600,199.633 372.903,198.900 372.692 C 198.515 372.581,197.885 372.361,197.500 372.203 C 197.115 372.044,196.800 372.085,196.800 372.293 M202.100 372.488 C 200.862 373.085,200.957 373.694,202.200 373.127 C 202.750 372.877,203.200 372.520,203.200 372.336 C 203.200 371.941,203.247 371.935,202.100 372.488 M11.867 377.067 C 11.457 377.477,11.551 379.122,12.000 379.400 C 12.238 379.547,12.400 379.071,12.400 378.224 C 12.400 376.762,12.328 376.605,11.867 377.067 M385.240 385.412 C 384.156 387.599,382.675 389.759,381.118 391.424 C 379.782 392.852,378.820 394.152,378.982 394.311 C 379.609 394.929,383.528 390.009,385.413 386.237 C 386.468 384.125,387.241 382.308,387.131 382.198 C 387.021 382.088,386.170 383.534,385.240 385.412 M13.200 383.328 C 13.200 383.490,13.776 384.743,14.479 386.111 C 15.183 387.480,15.729 388.718,15.692 388.862 C 15.656 389.006,15.890 389.343,16.213 389.611 C 16.536 389.879,16.800 390.346,16.800 390.649 C 16.800 390.952,16.955 391.200,17.144 391.200 C 17.333 391.200,18.323 391.935,19.344 392.834 C 21.814 395.008,21.720 394.404,19.210 391.972 C 18.115 390.911,16.315 388.466,15.210 386.538 C 14.104 384.611,13.200 383.166,13.200 383.328 M25.200 396.990 C 25.200 397.306,27.660 398.474,27.874 398.259 C 27.984 398.149,27.527 397.776,26.857 397.429 C 25.588 396.773,25.200 396.670,25.200 396.990 M373.376 397.387 C 372.949 397.710,372.791 397.980,373.024 397.987 C 373.256 397.994,373.796 397.736,374.224 397.413 C 374.651 397.090,374.809 396.820,374.576 396.813 C 374.344 396.806,373.804 397.064,373.376 397.387 M370.400 398.800 C 369.630 399.222,369.221 399.574,369.490 399.583 C 369.760 399.592,370.570 399.241,371.290 398.801 C 372.958 397.785,372.257 397.784,370.400 398.800 M29.200 399.000 C 29.750 399.314,30.380 399.572,30.600 399.572 C 30.820 399.572,30.550 399.314,30.000 399.000 C 29.450 398.686,28.820 398.428,28.600 398.428 C 28.380 398.428,28.650 398.686,29.200 399.000 " stroke="none" fill="#b8b8b8" fill-rule="evenodd"></path><path id="path1" d="M181.956 0.178 C 181.841 0.292,181.129 0.472,180.374 0.577 C 179.618 0.681,178.417 0.941,177.705 1.154 C 176.838 1.413,176.327 1.405,176.155 1.128 C 175.984 0.851,175.808 0.864,175.620 1.167 C 175.466 1.416,173.644 2.074,171.570 2.628 C 136.162 12.091,113.900 35.669,110.413 67.400 C 110.171 69.600,109.888 72.030,109.784 72.800 C 109.064 78.104,109.845 100.190,111.077 109.400 C 112.124 117.225,112.064 119.393,110.800 119.428 C 104.069 119.619,100.580 125.724,100.643 137.200 C 100.713 150.085,104.297 160.057,111.825 168.309 C 113.943 170.632,115.156 172.725,120.684 183.600 C 131.118 204.129,135.484 210.851,146.126 222.773 C 156.426 234.312,169.485 243.274,179.700 245.813 C 180.305 245.964,180.800 246.258,180.800 246.467 C 180.800 246.676,180.964 246.746,181.164 246.622 C 181.879 246.180,185.600 247.308,185.606 247.969 C 185.611 248.465,185.684 248.486,185.949 248.069 C 186.218 247.645,186.753 247.625,188.616 247.969 C 189.898 248.206,191.535 248.400,192.254 248.400 C 193.063 248.400,193.729 248.667,194.003 249.100 C 194.321 249.601,194.506 249.658,194.657 249.300 C 194.809 248.937,196.272 248.800,200.000 248.800 C 203.728 248.800,205.191 248.937,205.343 249.300 C 205.494 249.658,205.679 249.601,205.997 249.100 C 206.518 248.277,208.785 248.149,209.549 248.900 C 209.956 249.301,210.032 249.283,209.929 248.809 C 209.851 248.452,210.155 248.165,210.700 248.082 C 211.195 248.006,211.600 248.137,211.600 248.372 C 211.600 248.607,211.780 248.800,212.000 248.800 C 212.220 248.800,212.355 248.609,212.300 248.376 C 212.245 248.142,214.201 247.441,216.646 246.818 C 226.525 244.298,234.599 240.105,243.113 233.075 C 255.556 222.798,265.795 209.017,277.538 186.738 C 284.669 173.209,285.785 171.321,289.121 167.146 C 301.442 151.724,303.503 124.807,292.669 120.802 C 291.971 120.544,291.117 120.187,290.772 120.008 C 290.427 119.830,289.680 119.772,289.112 119.881 C 287.634 120.163,287.474 119.233,288.186 114.494 C 288.518 112.283,288.909 108.928,289.054 107.037 C 289.304 103.789,289.715 102.735,290.124 104.300 C 290.262 104.827,290.319 104.777,290.354 104.100 C 290.379 103.605,290.211 103.200,289.981 103.200 C 289.721 103.200,289.607 102.252,289.681 100.700 C 289.775 98.726,289.926 98.227,290.400 98.329 C 290.881 98.432,290.901 98.356,290.500 97.949 C 289.739 97.175,289.821 90.236,290.600 89.457 C 291.275 88.783,291.443 85.200,290.800 85.200 C 290.567 85.200,290.400 83.875,290.400 82.024 C 290.400 80.277,290.580 78.736,290.800 78.600 C 291.398 78.231,291.283 76.967,290.600 76.400 C 289.819 75.752,289.733 69.774,290.500 69.465 C 290.799 69.344,290.718 69.250,290.300 69.232 C 289.768 69.208,289.600 68.852,289.600 67.750 C 289.600 66.953,289.156 64.109,288.614 61.430 C 283.311 35.242,264.481 14.727,237.200 5.416 C 234.890 4.628,232.730 3.872,232.400 3.736 C 232.070 3.600,231.530 3.449,231.200 3.400 C 230.870 3.351,229.160 2.918,227.400 2.439 C 224.307 1.597,223.419 1.385,221.500 1.036 C 221.005 0.946,220.060 0.729,219.400 0.555 C 218.076 0.205,182.289 -0.156,181.956 0.178 M166.400 61.233 C 182.464 75.447,194.951 83.038,211.530 88.666 C 213.878 89.463,215.998 90.357,216.240 90.652 C 216.481 90.946,216.773 91.094,216.887 90.980 C 217.001 90.866,217.793 90.951,218.647 91.169 C 228.661 93.726,231.447 94.383,234.100 94.810 C 236.452 95.189,237.208 95.465,237.232 95.955 C 237.252 96.369,237.335 96.421,237.465 96.100 C 237.576 95.825,238.186 95.600,238.821 95.600 C 239.542 95.600,239.929 95.787,239.853 96.100 C 239.786 96.375,239.807 96.465,239.899 96.300 C 240.263 95.650,242.399 95.987,242.432 96.700 C 242.450 97.118,242.544 97.199,242.665 96.900 C 242.977 96.127,245.490 96.279,245.968 97.100 C 246.194 97.488,246.381 97.577,246.388 97.300 C 246.406 96.553,248.800 96.652,248.800 97.400 C 248.800 97.730,248.980 98.000,249.200 98.000 C 249.420 98.000,249.600 97.809,249.600 97.576 C 249.600 97.330,250.232 97.204,251.100 97.276 C 251.925 97.344,252.565 97.595,252.522 97.833 C 252.479 98.072,252.704 98.267,253.022 98.267 C 253.340 98.267,253.600 98.117,253.600 97.933 C 253.600 97.537,256.547 97.481,256.936 97.870 C 257.084 98.018,258.281 98.095,259.596 98.042 C 260.910 97.988,262.179 98.063,262.415 98.209 C 262.882 98.498,267.323 98.752,271.829 98.749 C 275.199 98.747,275.815 99.214,275.444 101.494 C 275.309 102.323,275.207 103.768,275.218 104.708 C 275.229 105.647,275.125 106.598,274.987 106.822 C 274.849 107.045,274.669 108.257,274.588 109.514 C 274.371 112.890,272.605 123.506,270.759 132.535 C 268.894 141.651,268.913 142.088,270.968 137.300 C 276.145 125.235,281.891 121.832,285.771 128.535 C 290.483 136.677,287.150 150.491,277.647 162.200 C 275.503 164.841,274.046 167.460,269.303 177.200 C 262.161 191.863,260.857 194.396,257.875 199.400 C 250.609 211.589,240.933 222.638,232.908 227.908 C 227.115 231.711,214.934 236.603,214.500 235.300 C 214.408 235.025,214.033 234.814,213.667 234.832 C 213.251 234.851,213.188 234.939,213.500 235.065 C 214.428 235.439,214.008 236.000,212.800 236.000 C 212.140 236.000,211.600 235.820,211.600 235.600 C 211.600 235.380,211.420 235.200,211.200 235.200 C 210.980 235.200,210.800 235.470,210.800 235.800 C 210.800 236.253,210.311 236.400,208.800 236.400 C 207.700 236.400,206.800 236.220,206.800 236.000 C 206.800 235.780,206.215 235.614,205.500 235.632 C 204.785 235.649,204.426 235.754,204.702 235.866 C 206.068 236.416,204.325 236.799,200.476 236.795 C 195.706 236.788,193.693 236.481,195.021 235.961 C 195.635 235.721,195.525 235.650,194.500 235.628 C 193.785 235.613,193.200 235.780,193.200 236.000 C 193.200 236.220,192.210 236.400,191.000 236.400 C 189.311 236.400,188.800 236.261,188.800 235.800 C 188.800 235.470,188.620 235.200,188.400 235.200 C 188.180 235.200,188.000 235.380,188.000 235.600 C 188.000 235.820,187.460 236.000,186.800 236.000 C 185.926 236.000,185.598 235.810,185.594 235.300 C 185.589 234.725,185.523 234.703,185.224 235.174 C 184.153 236.867,171.774 231.525,164.688 226.312 C 152.321 217.213,142.866 203.189,127.922 171.775 C 125.443 166.564,124.235 164.671,120.056 159.439 C 112.018 149.378,109.517 132.966,115.121 127.064 C 116.453 125.662,118.400 124.578,118.400 125.239 C 118.400 125.577,118.550 125.574,118.971 125.224 C 120.591 123.880,123.852 127.452,127.432 134.492 C 130.532 140.590,130.496 140.565,129.532 135.900 C 125.774 117.722,123.744 98.635,124.747 90.918 C 126.039 80.971,139.208 64.869,149.930 60.125 C 159.682 55.810,160.320 55.853,166.400 61.233 M183.840 264.999 C 180.089 268.336,176.439 272.233,175.607 273.788 C 174.576 275.714,183.331 286.524,190.716 292.443 L 192.431 293.818 191.628 295.809 C 178.313 328.819,175.170 337.294,175.851 338.347 C 180.795 345.980,187.807 352.910,199.497 361.718 C 200.330 362.346,212.581 351.918,217.492 346.400 C 221.178 342.258,224.837 337.474,224.653 337.037 C 223.459 334.196,207.861 295.210,207.706 294.679 C 207.551 294.148,209.136 292.293,213.685 287.679 C 218.998 282.289,224.840 275.333,224.782 274.465 C 224.735 273.755,219.791 268.295,216.513 265.332 L 212.827 262.000 200.019 262.000 L 187.210 262.000 183.840 264.999 M262.962 264.442 C 262.983 265.516,263.135 266.396,263.300 266.398 C 263.632 266.400,263.723 283.743,263.393 284.074 C 263.279 284.187,263.110 285.882,263.018 287.840 C 262.083 307.598,235.935 347.120,210.292 367.533 C 199.745 375.929,200.615 375.903,190.513 368.138 C 173.232 354.855,157.040 335.080,145.367 313.000 C 140.196 303.218,135.626 287.959,136.500 283.389 C 136.606 282.834,136.537 282.285,136.346 282.167 C 135.922 281.904,135.879 272.800,136.303 272.800 C 136.470 272.800,136.541 271.360,136.461 269.600 C 136.381 267.840,136.471 266.400,136.661 266.400 C 136.850 266.400,136.941 265.590,136.863 264.600 C 136.784 263.610,136.662 262.800,136.592 262.800 C 136.522 262.800,132.548 263.973,127.761 265.407 C 121.070 267.411,118.982 267.897,118.734 267.507 C 118.489 267.121,118.411 267.143,118.405 267.600 C 118.401 268.035,116.169 268.846,110.299 270.548 C 91.044 276.130,73.211 281.640,70.600 282.815 C 70.160 283.013,67.852 283.905,65.470 284.797 C 49.888 290.637,36.052 298.659,29.140 305.862 C 24.173 311.037,16.138 327.795,14.578 336.232 C 14.215 338.194,13.833 340.070,13.729 340.400 C 13.625 340.730,13.457 342.530,13.355 344.400 C 13.254 346.270,13.054 348.160,12.911 348.600 C 12.768 349.040,12.702 349.842,12.765 350.382 C 12.991 352.333,12.289 357.521,11.978 356.200 C 11.717 355.094,11.691 355.133,11.647 356.700 C 11.621 357.648,11.785 358.400,12.019 358.400 C 12.426 358.400,12.330 367.596,11.864 373.400 C 11.728 375.085,11.756 375.323,11.957 374.200 C 12.218 372.735,12.268 372.869,12.544 375.800 C 13.578 386.765,17.613 392.401,28.309 397.825 L 31.800 399.595 200.000 399.597 L 368.200 399.598 372.200 397.565 C 379.004 394.106,382.580 390.655,385.275 384.944 C 388.901 377.262,387.832 342.740,383.570 329.862 C 373.740 300.159,359.876 291.166,294.400 272.016 C 273.379 265.868,269.902 264.805,269.363 264.364 C 269.123 264.168,268.838 264.095,268.731 264.203 C 268.623 264.310,267.272 263.969,265.729 263.444 L 262.923 262.490 262.962 264.442 " stroke="none" fill="#040404" fill-rule="evenodd"></path><path id="path2" d="M226.871 1.956 C 226.449 2.217,229.881 3.310,231.400 3.398 C 231.620 3.411,232.070 3.586,232.400 3.787 C 232.917 4.103,232.924 4.060,232.455 3.481 C 232.155 3.111,231.765 2.898,231.588 3.007 C 231.412 3.116,230.757 2.995,230.134 2.738 C 229.510 2.481,228.846 2.306,228.658 2.349 C 228.470 2.393,228.104 2.252,227.844 2.037 C 227.585 1.822,227.147 1.785,226.871 1.956 M167.600 3.329 C 167.600 3.525,167.336 3.584,167.013 3.460 C 166.690 3.336,166.334 3.382,166.223 3.563 C 166.112 3.743,165.206 4.118,164.210 4.397 C 163.215 4.676,162.400 5.025,162.400 5.172 C 162.400 5.438,168.578 3.556,168.961 3.172 C 169.072 3.062,168.810 2.971,168.381 2.971 C 167.951 2.971,167.600 3.132,167.600 3.329 M129.792 25.700 L 126.200 29.400 129.900 25.808 C 133.336 22.472,133.782 22.000,133.492 22.000 C 133.432 22.000,131.767 23.665,129.792 25.700 M269.200 25.000 C 270.395 26.210,271.463 27.200,271.573 27.200 C 271.683 27.200,270.795 26.210,269.600 25.000 C 268.405 23.790,267.337 22.800,267.227 22.800 C 267.117 22.800,268.005 23.790,269.200 25.000 M290.400 67.824 C 290.400 68.167,290.220 68.336,290.000 68.200 C 289.780 68.064,289.600 68.233,289.600 68.576 C 289.600 68.919,289.870 69.200,290.200 69.200 C 290.573 69.200,290.800 68.822,290.800 68.200 C 290.800 67.650,290.710 67.200,290.600 67.200 C 290.490 67.200,290.400 67.481,290.400 67.824 M109.800 68.400 C 109.650 68.873,109.617 69.350,109.727 69.460 C 109.837 69.570,110.050 69.273,110.200 68.800 C 110.350 68.327,110.383 67.850,110.273 67.740 C 110.163 67.630,109.950 67.927,109.800 68.400 M109.422 72.622 C 109.272 73.425,109.238 74.172,109.348 74.282 C 109.458 74.392,109.672 73.825,109.822 73.022 C 109.973 72.219,110.006 71.473,109.896 71.363 C 109.786 71.253,109.573 71.819,109.422 72.622 M290.032 74.451 C 290.013 75.287,290.254 76.113,290.600 76.400 C 291.117 76.829,291.200 76.667,291.200 75.225 C 291.200 74.305,291.035 73.655,290.834 73.779 C 290.633 73.903,290.377 73.779,290.266 73.502 C 290.154 73.226,290.049 73.653,290.032 74.451 M109.361 83.600 C 109.361 87.010,109.422 88.405,109.497 86.700 C 109.572 84.995,109.572 82.205,109.497 80.500 C 109.422 78.795,109.361 80.190,109.361 83.600 M200.800 84.800 C 201.570 85.222,202.380 85.566,202.600 85.566 C 202.820 85.566,202.370 85.222,201.600 84.800 C 200.830 84.378,200.020 84.034,199.800 84.034 C 199.580 84.034,200.030 84.378,200.800 84.800 M211.444 88.982 C 212.128 89.298,213.208 89.659,213.844 89.784 C 214.833 89.979,214.798 89.933,213.600 89.463 C 211.440 88.616,209.913 88.276,211.444 88.982 M290.243 89.833 C 290.109 90.181,290.021 91.036,290.046 91.733 C 290.075 92.521,290.166 92.714,290.287 92.242 C 290.443 91.633,290.550 91.594,290.834 92.042 C 291.071 92.416,291.190 92.040,291.194 90.900 C 291.200 89.200,290.701 88.640,290.243 89.833 M124.652 92.100 C 124.345 93.245,124.414 100.222,124.747 101.781 C 124.886 102.430,125.000 100.316,125.000 97.081 C 125.000 90.705,125.005 90.782,124.652 92.100 M109.482 95.000 C 109.609 96.100,109.777 97.075,109.856 97.167 C 110.155 97.514,109.928 94.564,109.597 93.800 C 109.374 93.285,109.333 93.713,109.482 95.000 M244.933 96.989 C 244.933 97.325,245.188 97.600,245.500 97.600 C 245.812 97.600,245.995 97.386,245.908 97.125 C 245.667 96.400,244.933 96.297,244.933 96.989 M247.958 97.166 C 248.406 97.450,248.367 97.557,247.758 97.713 C 247.116 97.878,247.137 97.914,247.900 97.954 C 248.454 97.982,248.800 97.769,248.800 97.400 C 248.800 97.070,248.485 96.803,248.100 96.806 C 247.540 96.811,247.512 96.883,247.958 97.166 M251.565 97.542 C 252.012 97.847,251.928 97.969,251.165 98.127 C 250.414 98.283,250.466 98.313,251.400 98.263 C 252.685 98.196,252.918 97.480,251.721 97.278 C 251.146 97.182,251.114 97.235,251.565 97.542 M290.145 97.511 C 290.292 97.749,290.230 98.058,290.007 98.196 C 289.783 98.334,289.603 98.842,289.606 99.324 C 289.611 100.000,289.695 100.070,289.973 99.630 C 290.245 99.201,290.379 99.348,290.519 100.230 C 290.626 100.912,290.692 100.597,290.676 99.477 C 290.661 98.419,290.474 97.446,290.262 97.315 C 290.050 97.184,289.997 97.272,290.145 97.511 M261.000 98.400 C 262.111 98.878,262.895 98.878,262.600 98.400 C 262.464 98.180,261.868 98.013,261.276 98.028 C 260.315 98.053,260.286 98.093,261.000 98.400 M266.800 98.800 C 268.330 99.290,269.558 99.290,268.800 98.800 C 268.470 98.587,267.660 98.427,267.000 98.446 C 265.824 98.479,265.820 98.486,266.800 98.800 M273.600 99.095 C 274.914 99.339,275.105 99.717,274.927 101.723 C 274.818 102.948,274.887 103.238,275.183 102.800 C 276.327 101.106,275.397 98.760,273.620 98.854 L 272.600 98.909 273.600 99.095 M109.862 101.400 C 109.996 102.280,110.172 103.075,110.253 103.167 C 110.556 103.510,110.329 101.368,109.981 100.600 C 109.729 100.042,109.693 100.285,109.862 101.400 M124.806 105.633 C 124.809 106.165,124.989 106.870,125.206 107.200 C 125.482 107.622,125.523 107.385,125.342 106.400 C 125.025 104.675,124.798 104.349,124.806 105.633 M110.028 105.876 C 110.118 106.915,110.744 107.796,110.772 106.924 C 110.787 106.442,110.620 105.936,110.400 105.800 C 110.180 105.664,110.013 105.698,110.028 105.876 M273.829 112.629 C 273.681 113.215,273.651 113.784,273.761 113.894 C 273.871 114.004,274.081 113.615,274.229 113.029 C 274.376 112.442,274.406 111.873,274.296 111.763 C 274.186 111.653,273.976 112.042,273.829 112.629 M272.846 119.667 C 272.821 120.034,272.696 120.664,272.570 121.067 C 272.352 121.762,272.363 121.763,272.797 121.087 C 273.048 120.696,273.173 120.066,273.073 119.687 C 272.911 119.068,272.888 119.066,272.846 119.667 M272.256 122.884 C 272.121 123.388,272.027 124.160,272.046 124.600 C 272.065 125.040,272.245 124.698,272.446 123.840 C 272.836 122.178,272.670 121.340,272.256 122.884 M100.846 128.039 C 100.601 128.743,100.412 129.698,100.427 130.160 C 100.442 130.622,100.696 130.100,100.992 129.000 C 101.604 126.721,101.514 126.124,100.846 128.039 M128.658 131.400 C 128.792 132.280,129.056 133.270,129.244 133.600 C 129.658 134.326,129.234 131.771,128.746 130.600 C 128.536 130.095,128.503 130.391,128.658 131.400 M99.843 132.633 C 99.488 133.557,99.599 138.067,100.000 139.000 C 100.225 139.523,100.353 138.451,100.372 135.900 C 100.400 132.017,100.305 131.429,99.843 132.633 M112.047 138.033 C 112.073 139.665,112.227 141.540,112.389 142.200 C 112.551 142.860,112.603 141.600,112.504 139.400 C 112.292 134.694,111.979 133.756,112.047 138.033 M129.880 138.936 C 129.598 139.670,130.206 140.638,130.574 140.043 C 130.724 139.799,130.662 139.600,130.436 139.600 C 130.210 139.600,130.129 139.330,130.255 139.000 C 130.382 138.670,130.396 138.400,130.286 138.400 C 130.176 138.400,129.993 138.641,129.880 138.936 M299.293 142.000 C 299.293 142.770,299.375 143.085,299.476 142.700 C 299.576 142.315,299.576 141.685,299.476 141.300 C 299.375 140.915,299.293 141.230,299.293 142.000 M100.331 143.600 C 100.248 144.480,100.319 145.200,100.489 145.200 C 100.660 145.200,100.800 144.480,100.800 143.600 C 100.800 142.720,100.729 142.000,100.642 142.000 C 100.555 142.000,100.415 142.720,100.331 143.600 M100.820 146.208 C 100.795 147.241,102.315 152.753,102.852 153.575 C 103.181 154.078,103.208 154.043,102.992 153.400 C 102.845 152.960,102.300 150.980,101.782 149.000 C 101.263 147.020,100.830 145.764,100.820 146.208 M244.769 216.167 C 244.177 216.812,244.597 217.546,245.230 216.973 C 245.654 216.589,246.000 216.244,246.000 216.205 C 246.000 216.136,244.831 216.099,244.769 216.167 M251.578 225.100 L 250.200 226.600 251.700 225.222 C 253.096 223.938,253.384 223.600,253.078 223.600 C 253.012 223.600,252.337 224.275,251.578 225.100 M188.800 235.800 C 188.800 236.130,189.081 236.400,189.424 236.400 C 189.767 236.400,189.944 236.234,189.819 236.030 C 189.693 235.827,189.907 235.578,190.295 235.477 C 190.735 235.362,190.586 235.275,189.900 235.246 C 189.168 235.216,188.800 235.401,188.800 235.800 M209.305 235.477 C 209.693 235.578,209.907 235.827,209.781 236.030 C 209.656 236.234,209.833 236.400,210.176 236.400 C 210.519 236.400,210.800 236.130,210.800 235.800 C 210.800 235.401,210.432 235.216,209.700 235.246 C 209.014 235.275,208.865 235.362,209.305 235.477 M195.021 235.961 C 193.693 236.481,195.706 236.788,200.476 236.795 C 204.444 236.800,206.072 236.420,204.565 235.842 C 203.671 235.499,195.956 235.595,195.021 235.961 M189.502 248.266 C 189.779 248.377,189.903 248.633,189.779 248.834 C 189.655 249.035,189.833 249.200,190.176 249.200 C 190.519 249.200,190.800 249.039,190.800 248.843 C 190.800 248.495,189.804 247.968,189.267 248.032 C 189.120 248.049,189.226 248.154,189.502 248.266 M192.507 248.964 C 193.264 249.721,194.135 249.806,193.902 249.100 C 193.811 248.825,193.317 248.539,192.804 248.464 C 191.950 248.339,191.925 248.382,192.507 248.964 M206.184 248.827 C 205.835 249.391,206.362 249.902,206.722 249.348 C 206.875 249.113,207.270 248.817,207.600 248.692 C 208.008 248.536,207.920 248.453,207.324 248.432 C 206.842 248.414,206.329 248.592,206.184 248.827 M198.300 249.093 C 199.235 249.177,200.765 249.177,201.700 249.093 C 202.635 249.009,201.870 248.940,200.000 248.940 C 198.130 248.940,197.365 249.009,198.300 249.093 M135.442 262.468 C 135.636 262.783,135.513 262.852,135.066 262.681 C 134.697 262.539,134.400 262.619,134.400 262.859 C 134.400 263.098,134.040 263.199,133.599 263.084 C 133.095 262.952,132.896 263.032,133.062 263.300 C 133.231 263.573,133.015 263.645,132.462 263.500 C 131.987 263.376,131.678 263.403,131.776 263.561 C 132.023 263.961,128.440 264.872,127.910 264.544 C 127.633 264.373,127.593 264.466,127.801 264.801 C 128.041 265.190,127.908 265.269,127.288 265.107 C 126.796 264.978,126.370 265.102,126.252 265.409 C 126.027 265.995,125.847 266.036,132.525 263.986 C 135.267 263.144,136.641 262.546,136.314 262.338 C 135.563 261.862,135.109 261.929,135.442 262.468 M266.349 263.626 C 267.906 264.176,268.678 264.271,269.149 263.973 C 269.675 263.641,269.627 263.609,268.900 263.808 C 268.387 263.948,268.000 263.875,268.000 263.640 C 268.000 263.412,267.730 263.329,267.400 263.455 C 267.070 263.582,266.800 263.531,266.799 263.343 C 266.799 263.154,266.214 262.970,265.499 262.934 C 264.401 262.878,264.532 262.985,266.349 263.626 M271.800 265.139 C 272.360 265.683,276.478 266.850,276.189 266.382 C 276.059 266.172,275.693 266.000,275.376 266.000 C 275.059 266.000,274.800 265.826,274.800 265.613 C 274.800 265.399,274.561 265.317,274.269 265.429 C 273.977 265.541,273.212 265.434,272.569 265.191 C 271.926 264.948,271.580 264.925,271.800 265.139 M122.228 266.671 C 122.093 267.022,122.346 267.038,123.224 266.732 C 124.661 266.231,124.712 266.067,123.405 266.142 C 122.857 266.174,122.328 266.412,122.228 266.671 M277.206 266.453 C 277.203 266.829,277.610 267.185,278.163 267.291 C 278.852 267.422,279.068 267.322,278.922 266.940 C 278.809 266.645,278.535 266.517,278.313 266.654 C 278.092 266.790,277.753 266.654,277.561 266.351 C 277.280 265.907,277.211 265.926,277.206 266.453 M136.400 267.224 C 136.400 267.677,136.580 267.936,136.800 267.800 C 137.020 267.664,137.200 267.293,137.200 266.976 C 137.200 266.659,137.020 266.400,136.800 266.400 C 136.580 266.400,136.400 266.771,136.400 267.224 M262.828 266.700 C 262.938 267.873,263.546 268.526,263.572 267.500 C 263.587 266.895,263.420 266.400,263.200 266.400 C 262.980 266.400,262.813 266.535,262.828 266.700 M179.375 268.900 L 178.200 270.200 179.500 269.025 C 180.712 267.930,180.984 267.600,180.675 267.600 C 180.606 267.600,180.021 268.185,179.375 268.900 M136.000 274.024 C 136.000 274.737,136.167 275.144,136.400 275.000 C 136.620 274.864,136.800 274.313,136.800 273.776 C 136.800 273.239,136.620 272.800,136.400 272.800 C 136.180 272.800,136.000 273.351,136.000 274.024 M136.000 280.753 C 136.000 281.413,136.180 282.064,136.400 282.200 C 136.633 282.344,136.800 281.945,136.800 281.247 C 136.800 280.587,136.620 279.936,136.400 279.800 C 136.167 279.656,136.000 280.055,136.000 280.753 M263.267 281.250 C 263.230 281.608,263.086 282.507,262.947 283.250 C 262.752 284.290,262.805 284.497,263.174 284.153 C 263.451 283.895,263.587 283.047,263.495 282.153 C 263.407 281.299,263.304 280.893,263.267 281.250 M68.875 283.073 C 67.926 283.409,67.222 283.755,67.310 283.843 C 67.520 284.053,70.091 283.190,70.580 282.745 C 71.055 282.314,70.984 282.327,68.875 283.073 M184.200 286.800 C 185.950 288.560,187.471 290.000,187.581 290.000 C 187.691 290.000,186.350 288.560,184.600 286.800 C 182.850 285.040,181.329 283.600,181.219 283.600 C 181.109 283.600,182.450 285.040,184.200 286.800 M64.000 285.000 C 62.694 285.747,63.151 285.755,64.854 285.016 C 65.594 284.694,65.930 284.431,65.600 284.430 C 65.270 284.429,64.550 284.686,64.000 285.000 M213.591 287.900 L 210.200 291.400 213.700 288.009 C 216.951 284.859,217.382 284.400,217.091 284.400 C 217.031 284.400,215.456 285.975,213.591 287.900 M335.000 284.986 C 336.352 285.637,337.200 285.753,337.200 285.286 C 337.200 285.113,336.885 284.966,336.500 284.959 C 336.115 284.951,335.350 284.825,334.800 284.677 C 333.998 284.461,334.038 284.523,335.000 284.986 M28.981 305.700 L 27.400 307.400 29.100 305.819 C 30.681 304.348,30.984 304.000,30.681 304.000 C 30.616 304.000,29.851 304.765,28.981 305.700 M174.900 336.598 C 174.625 336.911,174.400 337.245,174.400 337.340 C 174.400 338.084,175.411 337.710,175.458 336.949 C 175.489 336.427,175.489 336.007,175.458 336.015 C 175.426 336.024,175.175 336.286,174.900 336.598 M13.246 342.867 C 13.221 343.234,13.096 343.864,12.970 344.267 C 12.752 344.962,12.763 344.963,13.197 344.287 C 13.448 343.896,13.573 343.266,13.473 342.887 C 13.311 342.268,13.288 342.266,13.246 342.867 M386.468 343.800 C 386.462 344.240,386.611 344.960,386.800 345.400 C 387.238 346.419,387.238 345.368,386.800 344.000 C 386.543 343.196,386.477 343.157,386.468 343.800 M12.860 346.867 C 12.827 347.454,12.696 348.264,12.570 348.667 C 12.352 349.360,12.365 349.361,12.795 348.690 C 13.046 348.299,13.177 347.489,13.086 346.890 L 12.920 345.800 12.860 346.867 M386.897 349.800 C 386.896 350.680,387.032 351.940,387.200 352.600 C 387.640 354.330,387.655 352.443,387.220 350.000 L 386.900 348.200 386.897 349.800 M211.600 352.200 C 210.628 353.190,209.923 354.000,210.033 354.000 C 210.143 354.000,211.028 353.190,212.000 352.200 C 212.972 351.210,213.677 350.400,213.567 350.400 C 213.457 350.400,212.572 351.210,211.600 352.200 M226.575 352.100 L 225.400 353.400 226.700 352.225 C 227.415 351.579,228.000 350.994,228.000 350.925 C 228.000 350.616,227.670 350.888,226.575 352.100 M12.509 352.800 C 12.509 353.790,12.587 354.195,12.682 353.700 C 12.778 353.205,12.778 352.395,12.682 351.900 C 12.587 351.405,12.509 351.810,12.509 352.800 M177.200 356.600 C 179.060 358.470,180.672 360.000,180.782 360.000 C 180.892 360.000,179.460 358.470,177.600 356.600 C 175.740 354.730,174.128 353.200,174.018 353.200 C 173.908 353.200,175.340 354.730,177.200 356.600 M12.159 364.800 C 12.159 367.990,12.221 369.295,12.297 367.700 C 12.373 366.105,12.373 363.495,12.297 361.900 C 12.221 360.305,12.159 361.610,12.159 364.800 M182.400 361.058 C 182.400 361.274,182.985 361.979,183.700 362.625 L 185.000 363.800 183.800 362.402 C 183.140 361.633,182.555 360.928,182.500 360.835 C 182.445 360.743,182.400 360.843,182.400 361.058 M185.600 363.938 C 185.600 364.124,186.005 364.619,186.500 365.038 C 187.399 365.799,187.399 365.799,186.699 364.968 C 186.314 364.510,186.119 364.015,186.266 363.868 C 186.413 363.720,186.323 363.600,186.067 363.600 C 185.810 363.600,185.600 363.752,185.600 363.938 M196.400 372.579 C 196.400 373.605,200.059 374.292,200.796 373.405 C 201.225 372.888,201.131 372.866,200.078 373.233 C 199.127 373.564,198.601 373.518,197.633 373.017 C 196.955 372.666,196.400 372.469,196.400 372.579 M202.300 373.029 C 200.805 373.840,200.896 374.178,202.400 373.400 C 203.060 373.059,203.600 372.694,203.600 372.590 C 203.600 372.332,203.557 372.347,202.300 373.029 M12.080 373.800 C 12.068 374.460,12.203 375.810,12.380 376.800 C 12.616 378.128,12.705 378.285,12.720 377.400 C 12.732 376.740,12.597 375.390,12.420 374.400 C 12.184 373.072,12.095 372.915,12.080 373.800 M387.073 378.553 C 386.923 378.945,386.811 379.566,386.825 379.933 C 386.842 380.375,386.981 380.274,387.237 379.634 C 387.449 379.103,387.561 378.482,387.485 378.254 C 387.409 378.027,387.224 378.161,387.073 378.553 M22.800 394.955 C 22.800 395.231,25.621 396.912,25.794 396.739 C 25.878 396.655,25.238 396.180,24.373 395.682 C 23.508 395.184,22.800 394.857,22.800 394.955 M370.800 398.200 C 369.494 398.947,369.951 398.955,371.654 398.216 C 372.394 397.894,372.730 397.631,372.400 397.630 C 372.070 397.629,371.350 397.886,370.800 398.200 " stroke="none" fill="#565656" fill-rule="evenodd"></path><path id="path3" d="M138.207 68.793 C 137.352 69.669,136.730 70.434,136.826 70.494 C 136.922 70.553,137.744 69.836,138.653 68.901 C 139.562 67.965,140.184 67.200,140.034 67.200 C 139.885 67.200,139.063 67.917,138.207 68.793 M290.832 72.000 C 290.750 72.927,290.719 72.941,290.400 72.200 C 290.173 71.673,290.049 71.604,290.034 72.000 C 290.006 72.784,290.685 73.848,291.008 73.525 C 291.147 73.386,291.184 72.762,291.090 72.137 C 290.929 71.064,290.915 71.056,290.832 72.000 M108.901 83.400 C 108.905 84.280,108.987 84.593,109.083 84.095 C 109.179 83.598,109.175 82.878,109.075 82.495 C 108.975 82.113,108.896 82.520,108.901 83.400 M290.447 92.676 C 290.584 94.768,291.104 95.835,291.153 94.124 C 291.179 93.202,291.020 92.336,290.800 92.200 C 290.580 92.064,290.421 92.278,290.447 92.676 M124.914 95.000 C 124.917 96.100,124.995 96.503,125.087 95.895 C 125.179 95.286,125.177 94.386,125.082 93.895 C 124.987 93.403,124.911 93.900,124.914 95.000 M124.893 98.800 C 124.893 99.570,124.975 99.885,125.076 99.500 C 125.176 99.115,125.176 98.485,125.076 98.100 C 124.975 97.715,124.893 98.030,124.893 98.800 M299.731 136.200 C 299.733 137.740,299.805 138.321,299.892 137.491 C 299.979 136.661,299.977 135.401,299.889 134.691 C 299.800 133.981,299.729 134.660,299.731 136.200 M99.668 139.800 C 99.662 140.240,99.811 140.960,100.000 141.400 C 100.438 142.419,100.438 141.368,100.000 140.000 C 99.743 139.196,99.677 139.157,99.668 139.800 M241.586 220.300 L 239.400 222.600 241.700 220.414 C 243.837 218.382,244.183 218.000,243.886 218.000 C 243.824 218.000,242.789 219.035,241.586 220.300 M150.200 227.600 C 151.283 228.700,152.260 229.600,152.370 229.600 C 152.480 229.600,151.683 228.700,150.600 227.600 C 149.517 226.500,148.540 225.600,148.430 225.600 C 148.320 225.600,149.117 226.500,150.200 227.600 M226.076 231.024 C 225.788 231.350,225.355 231.496,225.114 231.347 C 224.851 231.184,224.791 231.261,224.962 231.539 C 225.289 232.067,226.800 231.448,226.800 230.786 C 226.800 230.281,226.704 230.313,226.076 231.024 M176.615 245.142 C 176.827 245.336,177.893 245.790,178.985 246.151 C 180.076 246.513,180.796 246.651,180.585 246.458 C 180.373 246.264,179.307 245.810,178.215 245.449 C 177.124 245.087,176.404 244.949,176.615 245.142 M198.400 249.600 C 198.400 249.820,198.760 250.000,199.200 250.000 C 199.640 250.000,200.000 249.820,200.000 249.600 C 200.000 249.380,199.640 249.200,199.200 249.200 C 198.760 249.200,198.400 249.380,198.400 249.600 M200.800 249.600 C 200.800 249.820,201.160 250.000,201.600 250.000 C 202.040 250.000,202.400 249.820,202.400 249.600 C 202.400 249.380,202.040 249.200,201.600 249.200 C 201.160 249.200,200.800 249.380,200.800 249.600 M263.353 274.600 C 263.353 277.240,263.418 278.268,263.497 276.884 C 263.575 275.501,263.574 273.341,263.495 272.084 C 263.416 270.828,263.352 271.960,263.353 274.600 M99.000 273.414 C 97.995 273.898,97.963 273.953,98.800 273.751 C 99.350 273.619,99.971 273.350,100.180 273.155 C 100.698 272.671,100.414 272.733,99.000 273.414 M136.236 276.865 C 136.078 277.850,136.139 278.699,136.385 278.945 C 136.672 279.232,136.800 278.717,136.800 277.280 C 136.800 274.769,136.595 274.619,136.236 276.865 M349.233 290.938 C 349.841 291.443,352.000 292.278,352.000 292.008 C 352.000 291.827,351.433 291.481,350.740 291.239 C 349.462 290.793,348.931 290.688,349.233 290.938 M387.309 358.800 C 387.309 359.790,387.387 360.195,387.482 359.700 C 387.578 359.205,387.578 358.395,387.482 357.900 C 387.387 357.405,387.309 357.810,387.309 358.800 " stroke="none" fill="#7c7c7c" fill-rule="evenodd"></path><path id="path4" d="M152.419 9.180 C 152.100 9.382,151.695 9.458,151.519 9.350 C 151.344 9.242,151.200 9.354,151.200 9.600 C 151.200 9.846,151.020 9.936,150.800 9.800 C 150.580 9.664,150.400 9.743,150.400 9.976 C 150.400 10.209,150.535 10.392,150.700 10.383 C 151.199 10.355,153.831 8.834,153.400 8.823 C 153.180 8.817,152.739 8.978,152.419 9.180 M136.154 275.377 C 136.032 275.694,136.003 276.279,136.089 276.677 C 136.187 277.128,136.324 276.912,136.454 276.100 C 136.671 274.738,136.530 274.396,136.154 275.377 M11.600 353.933 C 11.600 354.630,11.783 355.200,12.008 355.200 C 12.250 355.200,12.308 354.753,12.151 354.100 C 11.775 352.530,11.600 352.477,11.600 353.933 M387.367 367.800 C 387.367 371.980,387.426 373.636,387.498 371.479 C 387.571 369.323,387.570 365.903,387.498 363.879 C 387.425 361.856,387.366 363.620,387.367 367.800 " stroke="none" fill="#747474" fill-rule="evenodd"></path></g></svg>