<svg id="svg" xmlns="http://www.w3.org/2000/svg" xmlns:xlink="http://www.w3.org/1999/xlink" width="400" height="400" viewBox="0, 0, 400,400"><g id="svgg"><path id="path0" d="M178.400 0.800 C 178.400 1.020,178.670 1.200,179.000 1.200 C 179.330 1.200,179.600 1.020,179.600 0.800 C 179.600 0.580,179.330 0.400,179.000 0.400 C 178.670 0.400,178.400 0.580,178.400 0.800 M182.100 0.676 C 182.485 0.776,183.115 0.776,183.500 0.676 C 183.885 0.575,183.570 0.493,182.800 0.493 C 182.030 0.493,181.715 0.575,182.100 0.676 M217.600 5.000 C 218.150 5.314,218.780 5.572,219.000 5.572 C 219.220 5.572,218.950 5.314,218.400 5.000 C 217.850 4.686,217.220 4.428,217.000 4.428 C 216.780 4.428,217.050 4.686,217.600 5.000 M222.364 7.172 C 224.759 8.531,224.800 8.546,224.800 8.054 C 224.800 7.864,223.946 7.369,222.902 6.954 C 220.055 5.823,220.015 5.839,222.364 7.172 M153.065 8.247 C 152.440 8.586,152.012 8.945,152.113 9.046 C 152.380 9.313,154.400 8.333,154.400 7.936 C 154.400 7.515,154.427 7.509,153.065 8.247 M225.200 8.379 C 225.200 8.581,225.695 9.088,226.300 9.507 C 228.160 10.795,228.400 10.882,228.400 10.264 C 228.400 9.943,227.680 9.305,226.800 8.847 C 225.920 8.388,225.200 8.178,225.200 8.379 M228.800 10.777 C 228.800 11.235,230.475 12.458,230.740 12.193 C 230.979 11.954,229.590 10.400,229.138 10.400 C 228.952 10.400,228.800 10.570,228.800 10.777 M146.100 11.311 C 145.605 11.537,145.200 11.875,145.200 12.061 C 145.200 12.248,144.930 12.400,144.600 12.400 C 144.270 12.400,144.000 12.580,144.000 12.800 C 144.000 13.317,144.258 13.304,145.318 12.737 C 147.161 11.751,147.837 10.517,146.100 11.311 M231.600 13.100 C 231.600 13.265,232.230 13.903,233.000 14.517 C 234.706 15.879,234.871 15.352,233.203 13.866 C 231.964 12.762,231.600 12.588,231.600 13.100 M139.498 15.594 C 138.935 16.037,138.341 16.400,138.178 16.400 C 138.015 16.400,137.144 17.002,136.241 17.738 C 135.339 18.474,134.378 19.149,134.107 19.238 C 133.452 19.453,124.857 27.924,125.073 28.140 C 125.166 28.233,124.783 28.670,124.221 29.112 C 123.659 29.554,123.200 30.040,123.200 30.193 C 123.200 30.347,122.766 30.951,122.235 31.536 C 119.594 34.448,119.200 34.957,119.200 35.458 C 119.200 35.756,119.062 36.000,118.894 36.000 C 118.726 36.000,118.162 36.900,117.639 38.000 C 117.117 39.100,116.524 40.000,116.321 40.000 C 116.119 40.000,116.064 40.180,116.200 40.400 C 116.336 40.620,116.246 40.800,116.000 40.800 C 115.754 40.800,115.664 40.980,115.800 41.200 C 115.936 41.420,115.883 41.600,115.682 41.600 C 115.291 41.600,111.200 50.054,111.200 50.863 C 111.200 51.130,112.423 48.930,113.918 45.974 C 120.297 33.357,127.788 24.397,137.800 17.405 C 139.340 16.330,140.675 15.394,140.767 15.325 C 140.858 15.256,140.841 15.107,140.728 14.994 C 140.615 14.881,140.061 15.151,139.498 15.594 M235.633 15.745 C 236.036 16.095,239.200 16.288,239.200 15.962 C 239.200 15.763,238.360 15.600,237.333 15.600 C 236.307 15.600,235.542 15.665,235.633 15.745 M245.200 16.414 C 246.019 16.609,246.758 16.592,246.980 16.373 C 247.216 16.141,246.686 16.015,245.580 16.041 L 243.800 16.082 245.200 16.414 M250.139 16.854 C 250.668 17.161,251.002 17.158,251.319 16.841 C 251.640 16.520,251.441 16.403,250.580 16.412 C 249.546 16.423,249.491 16.477,250.139 16.854 M252.800 17.200 C 253.576 17.701,254.000 17.701,254.000 17.200 C 254.000 16.980,253.595 16.803,253.100 16.806 C 252.372 16.811,252.315 16.886,252.800 17.200 M255.120 17.680 C 255.493 18.053,255.707 18.053,256.080 17.680 C 256.453 17.307,256.347 17.200,255.600 17.200 C 254.853 17.200,254.747 17.307,255.120 17.680 M261.771 19.409 C 262.593 20.030,263.052 19.932,262.616 19.227 C 262.471 18.992,262.048 18.806,261.676 18.813 C 261.083 18.824,261.094 18.897,261.771 19.409 M263.600 19.939 C 263.600 20.126,264.320 20.561,265.200 20.907 C 267.177 21.684,267.321 21.196,265.386 20.274 C 263.770 19.503,263.600 19.471,263.600 19.939 M267.200 21.624 C 267.200 21.857,267.380 21.936,267.600 21.800 C 267.820 21.664,268.000 21.710,268.000 21.903 C 268.000 22.095,268.720 22.657,269.600 23.152 C 271.773 24.373,271.646 23.495,269.465 22.217 C 267.543 21.091,267.200 21.001,267.200 21.624 M273.600 25.800 C 273.874 26.130,274.278 26.400,274.498 26.400 C 274.721 26.400,274.678 26.135,274.400 25.800 C 274.126 25.470,273.722 25.200,273.502 25.200 C 273.279 25.200,273.322 25.465,273.600 25.800 M277.104 28.628 C 283.909 34.581,290.558 44.865,294.413 55.400 C 295.697 58.909,296.400 60.280,296.400 59.274 C 296.400 58.502,292.714 48.664,292.176 48.000 C 291.909 47.670,291.106 46.230,290.393 44.800 C 289.680 43.370,288.964 42.110,288.802 42.000 C 288.640 41.890,288.381 41.395,288.227 40.900 C 288.072 40.405,287.812 40.000,287.649 40.000 C 287.486 40.000,286.561 38.806,285.595 37.346 C 283.745 34.554,276.320 26.800,275.496 26.800 C 275.231 26.800,275.954 27.623,277.104 28.628 M108.792 56.625 C 106.625 63.126,106.958 63.488,109.242 57.117 C 110.209 54.421,111.060 52.077,111.133 51.908 C 111.207 51.739,111.087 51.600,110.866 51.600 C 110.646 51.600,109.713 53.861,108.792 56.625 M296.000 60.141 C 296.000 60.255,296.208 60.855,296.461 61.474 C 296.715 62.093,296.987 62.960,297.066 63.400 C 297.145 63.840,297.324 64.470,297.465 64.800 C 297.606 65.130,297.770 65.641,297.830 65.937 C 297.964 66.593,298.336 66.997,298.581 66.752 C 298.839 66.494,297.478 61.449,297.071 61.155 C 296.884 61.021,296.761 60.755,296.796 60.565 C 296.831 60.375,296.666 60.156,296.430 60.077 C 296.194 59.998,296.000 60.027,296.000 60.141 M104.850 69.450 C 104.364 71.567,104.059 73.393,104.173 73.507 C 104.424 73.758,104.541 73.398,105.381 69.800 C 105.741 68.260,106.129 66.685,106.244 66.300 C 106.360 65.915,106.292 65.600,106.094 65.600 C 105.896 65.600,105.336 67.332,104.850 69.450 M298.576 68.500 C 298.727 69.215,298.954 70.385,299.078 71.100 C 299.203 71.815,299.481 72.400,299.696 72.400 C 300.077 72.400,300.010 71.932,299.162 68.700 C 298.681 66.862,298.193 66.696,298.576 68.500 M299.600 73.576 C 299.600 74.029,299.780 74.400,300.000 74.400 C 300.220 74.400,300.400 74.141,300.400 73.824 C 300.400 73.507,300.220 73.136,300.000 73.000 C 299.780 72.864,299.600 73.123,299.600 73.576 M103.600 74.824 C 103.600 75.277,103.780 75.536,104.000 75.400 C 104.220 75.264,104.400 74.893,104.400 74.576 C 104.400 74.259,104.220 74.000,104.000 74.000 C 103.780 74.000,103.600 74.371,103.600 74.824 M300.000 75.576 C 300.000 76.003,300.180 76.464,300.400 76.600 C 300.627 76.740,300.800 76.404,300.800 75.824 C 300.800 75.261,300.620 74.800,300.400 74.800 C 300.180 74.800,300.000 75.149,300.000 75.576 M103.200 76.824 C 103.200 77.277,103.380 77.536,103.600 77.400 C 103.820 77.264,104.000 76.893,104.000 76.576 C 104.000 76.259,103.820 76.000,103.600 76.000 C 103.380 76.000,103.200 76.371,103.200 76.824 M300.400 78.200 C 300.400 78.530,300.580 78.800,300.800 78.800 C 301.020 78.800,301.200 78.530,301.200 78.200 C 301.200 77.870,301.020 77.600,300.800 77.600 C 300.580 77.600,300.400 77.870,300.400 78.200 M103.092 78.242 C 102.931 78.402,102.805 78.908,102.812 79.367 C 102.823 80.136,102.856 80.145,103.240 79.485 C 103.688 78.716,103.573 77.760,103.092 78.242 M300.800 80.576 C 300.800 80.893,300.980 81.264,301.200 81.400 C 301.420 81.536,301.600 81.277,301.600 80.824 C 301.600 80.371,301.420 80.000,301.200 80.000 C 300.980 80.000,300.800 80.259,300.800 80.576 M102.400 81.800 C 102.400 82.350,102.469 82.800,102.553 82.800 C 102.638 82.800,102.793 82.350,102.898 81.800 C 103.003 81.250,102.934 80.800,102.745 80.800 C 102.555 80.800,102.400 81.250,102.400 81.800 M301.200 83.367 C 301.200 84.235,301.644 85.200,302.043 85.200 C 302.239 85.200,302.400 84.660,302.400 84.000 C 302.400 83.200,302.200 82.800,301.800 82.800 C 301.470 82.800,301.200 83.055,301.200 83.367 M301.631 88.067 C 301.648 88.580,301.904 89.720,302.201 90.600 L 302.740 92.200 302.670 89.832 C 302.626 88.345,302.414 87.402,302.100 87.298 C 301.791 87.196,301.612 87.490,301.631 88.067 M100.806 91.500 C 100.809 92.105,100.987 92.870,101.200 93.200 C 101.484 93.639,101.589 93.345,101.594 92.100 C 101.597 91.165,101.420 90.400,101.200 90.400 C 100.980 90.400,100.803 90.895,100.806 91.500 M100.667 97.867 C 100.243 98.291,100.358 102.727,100.800 103.000 C 101.052 103.156,101.200 102.204,101.200 100.424 C 101.200 97.585,101.157 97.377,100.667 97.867 M302.273 102.661 C 301.863 103.070,301.944 114.718,302.358 114.974 C 303.014 115.380,303.200 113.979,303.194 108.667 C 303.188 103.742,302.923 102.011,302.273 102.661 M100.000 115.624 C 100.000 119.004,100.141 120.760,100.400 120.600 C 100.632 120.457,100.800 118.263,100.800 115.376 C 100.800 112.325,100.645 110.400,100.400 110.400 C 100.154 110.400,100.000 112.408,100.000 115.624 M302.100 127.246 C 301.492 130.464,301.464 132.000,302.013 132.000 C 302.691 132.000,302.842 131.094,302.718 127.765 L 302.600 124.600 302.100 127.246 M99.900 133.031 C 99.735 133.197,99.611 135.148,99.625 137.367 C 99.644 140.401,99.747 141.159,100.040 140.426 C 100.484 139.314,100.357 132.572,99.900 133.031 M301.664 137.419 C 301.004 138.869,301.073 140.400,301.800 140.400 C 302.253 140.400,302.400 139.911,302.400 138.400 C 302.400 136.119,302.311 136.000,301.664 137.419 M301.100 144.533 C 300.624 145.694,300.718 147.442,301.229 146.931 C 301.465 146.695,301.600 145.894,301.529 145.151 C 301.429 144.104,301.332 143.965,301.100 144.533 M99.500 145.829 C 99.335 145.996,99.205 147.048,99.212 148.167 C 99.222 149.752,99.315 150.045,99.635 149.495 C 100.094 148.707,99.970 145.352,99.500 145.829 M98.800 154.024 C 98.800 154.737,98.967 155.144,99.200 155.000 C 99.420 154.864,99.600 154.313,99.600 153.776 C 99.600 153.239,99.420 152.800,99.200 152.800 C 98.980 152.800,98.800 153.351,98.800 154.024 M98.696 156.933 C 98.203 158.151,98.319 159.581,98.838 158.688 C 99.066 158.297,99.194 157.577,99.123 157.088 C 99.006 156.289,98.963 156.273,98.696 156.933 M98.300 160.231 C 98.135 160.397,98.000 160.899,98.000 161.347 C 98.000 161.935,98.121 162.039,98.438 161.722 C 98.678 161.482,98.813 160.980,98.738 160.607 C 98.662 160.233,98.465 160.064,98.300 160.231 M300.800 161.953 C 300.800 162.613,300.980 163.264,301.200 163.400 C 301.433 163.544,301.600 163.145,301.600 162.447 C 301.600 161.787,301.420 161.136,301.200 161.000 C 300.967 160.856,300.800 161.255,300.800 161.953 M97.892 163.042 C 97.731 163.202,97.605 163.708,97.612 164.167 C 97.623 164.936,97.656 164.945,98.040 164.285 C 98.488 163.516,98.373 162.560,97.892 163.042 M97.206 166.300 C 97.211 167.157,97.298 167.268,97.600 166.800 C 98.106 166.017,98.106 165.200,97.600 165.200 C 97.380 165.200,97.203 165.695,97.206 166.300 M301.456 165.878 C 300.998 166.335,301.186 167.490,301.800 168.000 C 302.311 168.424,302.400 168.316,302.400 167.273 C 302.400 166.056,301.947 165.387,301.456 165.878 M96.800 169.000 C 96.800 169.550,96.620 170.000,96.400 170.000 C 96.180 170.000,96.000 170.360,96.000 170.800 C 96.000 171.987,96.747 171.769,97.030 170.500 C 97.164 169.895,97.360 169.085,97.464 168.700 C 97.569 168.315,97.462 168.000,97.227 168.000 C 96.992 168.000,96.800 168.450,96.800 169.000 M301.600 169.567 C 301.600 170.259,302.086 171.200,302.443 171.200 C 302.639 171.200,302.800 170.750,302.800 170.200 C 302.800 169.578,302.573 169.200,302.200 169.200 C 301.870 169.200,301.600 169.365,301.600 169.567 M95.636 172.700 C 95.684 173.085,95.615 173.670,95.483 174.000 C 94.666 176.047,94.259 178.400,94.723 178.400 C 94.901 178.400,95.327 177.275,95.670 175.900 C 96.013 174.525,96.427 173.085,96.590 172.700 C 96.803 172.195,96.700 172.000,96.218 172.000 C 95.815 172.000,95.584 172.278,95.636 172.700 M302.006 172.300 C 302.009 172.465,302.180 172.865,302.384 173.188 C 302.845 173.917,303.386 173.461,303.062 172.617 C 302.823 171.994,301.995 171.745,302.006 172.300 M302.639 174.738 C 302.500 174.961,302.582 175.265,302.820 175.412 C 303.435 175.793,303.832 175.272,303.318 174.758 C 303.031 174.471,302.807 174.464,302.639 174.738 M302.957 176.633 C 303.091 176.981,303.200 177.351,303.200 177.456 C 303.200 177.561,303.372 177.541,303.583 177.411 C 304.047 177.124,303.674 176.000,303.114 176.000 C 302.894 176.000,302.824 176.285,302.957 176.633 M94.000 179.400 C 94.000 179.730,94.180 180.000,94.400 180.000 C 94.620 180.000,94.800 179.730,94.800 179.400 C 94.800 179.070,94.620 178.800,94.400 178.800 C 94.180 178.800,94.000 179.070,94.000 179.400 M304.068 180.200 C 304.062 180.640,304.211 181.360,304.400 181.800 C 304.838 182.819,304.838 181.768,304.400 180.400 C 304.143 179.596,304.077 179.557,304.068 180.200 M93.894 180.673 C 93.791 180.853,93.206 182.530,92.594 184.400 C 91.982 186.270,91.331 187.898,91.149 188.019 C 90.966 188.139,90.380 189.399,89.846 190.819 C 88.192 195.217,87.836 196.000,87.489 196.000 C 87.304 196.000,87.264 196.180,87.400 196.400 C 87.536 196.620,87.469 196.800,87.251 196.800 C 87.032 196.800,86.728 197.205,86.573 197.700 C 86.419 198.195,86.181 198.690,86.046 198.800 C 85.911 198.910,85.080 200.079,84.200 201.398 C 83.320 202.717,81.160 205.309,79.400 207.157 C 77.640 209.006,76.560 210.330,77.000 210.099 C 81.566 207.698,89.711 194.913,93.069 184.875 C 94.236 181.389,94.629 179.384,93.894 180.673 M306.212 187.300 C 307.606 192.010,316.574 206.000,318.199 206.000 C 318.754 206.000,318.297 204.773,317.604 204.402 C 317.166 204.168,316.041 202.946,315.104 201.688 C 314.167 200.430,313.265 199.340,313.100 199.267 C 312.935 199.193,312.800 198.898,312.800 198.609 C 312.800 198.321,312.519 197.978,312.175 197.846 C 311.831 197.714,311.661 197.424,311.798 197.203 C 311.935 196.981,311.874 196.800,311.663 196.800 C 311.266 196.800,308.108 190.544,307.171 187.900 C 306.606 186.306,305.762 185.777,306.212 187.300 M321.400 209.013 C 324.629 211.823,325.401 212.375,325.152 211.700 C 324.958 211.174,320.561 207.596,320.127 207.611 C 319.947 207.617,320.520 208.248,321.400 209.013 M75.067 210.667 C 74.581 211.153,74.790 211.579,75.400 211.345 C 75.730 211.218,76.000 210.954,76.000 210.757 C 76.000 210.338,75.449 210.284,75.067 210.667 M72.976 212.187 C 72.324 212.681,72.304 212.777,72.851 212.787 C 73.209 212.794,73.726 212.530,74.000 212.200 C 74.638 211.431,73.987 211.423,72.976 212.187 M325.600 212.134 C 325.600 212.369,328.176 214.000,328.547 214.000 C 329.257 214.000,328.644 213.309,327.500 212.819 C 326.785 212.512,326.065 212.188,325.900 212.098 C 325.735 212.007,325.600 212.024,325.600 212.134 M67.827 214.359 C 67.332 214.553,67.214 214.761,67.499 214.938 C 67.744 215.089,68.060 215.027,68.200 214.800 C 68.340 214.573,68.610 214.483,68.800 214.600 C 68.990 214.717,69.258 214.630,69.396 214.407 C 69.685 213.940,68.954 213.918,67.827 214.359 M330.000 214.800 C 330.972 215.643,331.600 215.825,331.600 215.264 C 331.600 214.955,329.878 214.000,329.320 214.000 C 329.187 214.000,329.493 214.360,330.000 214.800 M65.600 215.380 C 65.600 215.699,65.915 216.144,66.300 216.368 C 66.685 216.592,66.892 216.781,66.759 216.788 C 66.395 216.806,70.550 221.207,70.928 221.203 C 71.109 221.201,72.110 221.920,73.154 222.800 C 74.198 223.680,75.179 224.400,75.334 224.400 C 75.490 224.400,76.337 224.876,77.217 225.459 C 78.096 226.041,78.903 226.430,79.009 226.324 C 79.115 226.218,77.716 225.157,75.901 223.966 C 72.019 221.419,66.275 216.103,66.571 215.331 C 66.683 215.038,66.511 214.800,66.187 214.800 C 65.864 214.800,65.600 215.061,65.600 215.380 M332.487 216.258 C 333.098 216.869,333.082 216.967,332.272 217.624 C 331.165 218.521,331.553 218.989,332.724 218.168 C 333.746 217.452,333.878 216.192,332.967 215.843 C 331.928 215.444,331.791 215.562,332.487 216.258 M329.731 219.733 C 329.109 220.246,328.015 221.005,327.300 221.419 C 326.158 222.081,325.592 222.800,326.214 222.800 C 326.471 222.800,328.516 221.519,328.800 221.180 C 328.910 221.049,329.303 220.830,329.674 220.693 C 330.280 220.470,331.489 218.800,331.045 218.800 C 330.944 218.800,330.353 219.220,329.731 219.733 M323.354 224.025 C 321.454 225.359,313.879 229.325,312.400 229.760 C 311.850 229.921,311.591 230.135,311.824 230.235 C 312.636 230.582,325.211 224.168,325.516 223.252 C 325.750 222.551,325.146 222.767,323.354 224.025 M81.600 227.793 C 81.600 228.027,85.443 230.002,85.887 229.996 C 86.059 229.994,85.261 229.454,84.114 228.796 C 82.030 227.601,81.600 227.429,81.600 227.793 M87.200 230.600 C 87.750 230.914,88.380 231.172,88.600 231.172 C 88.820 231.172,88.550 230.914,88.000 230.600 C 87.450 230.286,86.820 230.028,86.600 230.028 C 86.380 230.028,86.650 230.286,87.200 230.600 M308.976 231.387 C 308.549 231.710,308.380 231.975,308.600 231.975 C 308.820 231.975,309.349 231.710,309.776 231.387 C 310.204 231.064,310.373 230.800,310.153 230.800 C 309.933 230.800,309.404 231.064,308.976 231.387 M89.632 231.486 C 89.595 232.056,91.151 232.982,91.523 232.611 C 91.832 232.301,90.754 231.581,90.353 231.829 C 90.197 231.926,89.977 231.779,89.866 231.502 C 89.714 231.126,89.655 231.122,89.632 231.486 M92.400 232.795 C 92.400 233.071,93.341 233.600,93.833 233.600 C 94.379 233.600,93.866 232.858,93.200 232.684 C 92.760 232.569,92.400 232.619,92.400 232.795 M96.000 234.047 C 96.000 234.408,97.667 235.200,98.426 235.200 C 99.334 235.200,98.675 234.496,97.400 234.105 C 96.577 233.852,96.000 233.828,96.000 234.047 M106.400 237.200 C 106.400 237.420,106.670 237.600,107.000 237.600 C 107.330 237.600,107.600 237.420,107.600 237.200 C 107.600 236.980,107.330 236.800,107.000 236.800 C 106.670 236.800,106.400 236.980,106.400 237.200 M108.000 237.600 C 108.000 237.820,108.270 238.000,108.600 238.000 C 108.930 238.000,109.200 237.820,109.200 237.600 C 109.200 237.380,108.930 237.200,108.600 237.200 C 108.270 237.200,108.000 237.380,108.000 237.600 M285.000 238.000 C 284.864 238.220,285.123 238.400,285.576 238.400 C 286.029 238.400,286.400 238.220,286.400 238.000 C 286.400 237.780,286.141 237.600,285.824 237.600 C 285.507 237.600,285.136 237.780,285.000 238.000 M112.000 238.400 C 112.000 238.620,112.270 238.800,112.600 238.800 C 112.930 238.800,113.200 238.620,113.200 238.400 C 113.200 238.180,112.930 238.000,112.600 238.000 C 112.270 238.000,112.000 238.180,112.000 238.400 M280.200 238.800 C 280.064 239.020,280.323 239.200,280.776 239.200 C 281.229 239.200,281.600 239.020,281.600 238.800 C 281.600 238.580,281.341 238.400,281.024 238.400 C 280.707 238.400,280.336 238.580,280.200 238.800 M116.800 239.200 C 116.800 239.420,117.070 239.600,117.400 239.600 C 117.730 239.600,118.000 239.420,118.000 239.200 C 118.000 238.980,117.730 238.800,117.400 238.800 C 117.070 238.800,116.800 238.980,116.800 239.200 M274.200 239.600 C 274.064 239.820,274.334 240.000,274.800 240.000 C 275.266 240.000,275.536 239.820,275.400 239.600 C 275.264 239.380,274.994 239.200,274.800 239.200 C 274.606 239.200,274.336 239.380,274.200 239.600 M122.800 240.000 C 122.800 240.220,123.160 240.400,123.600 240.400 C 124.040 240.400,124.400 240.220,124.400 240.000 C 124.400 239.780,124.040 239.600,123.600 239.600 C 123.160 239.600,122.800 239.780,122.800 240.000 M270.600 240.000 C 270.464 240.220,270.723 240.400,271.176 240.400 C 271.629 240.400,272.000 240.220,272.000 240.000 C 272.000 239.780,271.741 239.600,271.424 239.600 C 271.107 239.600,270.736 239.780,270.600 240.000 M126.400 240.400 C 126.400 240.620,126.861 240.800,127.424 240.800 C 128.004 240.800,128.340 240.627,128.200 240.400 C 128.064 240.180,127.603 240.000,127.176 240.000 C 126.749 240.000,126.400 240.180,126.400 240.400 M265.800 240.400 C 265.656 240.633,266.063 240.800,266.776 240.800 C 267.449 240.800,268.000 240.620,268.000 240.400 C 268.000 240.180,267.561 240.000,267.024 240.000 C 266.487 240.000,265.936 240.180,265.800 240.400 M130.800 240.800 C 130.800 241.020,131.171 241.200,131.624 241.200 C 132.077 241.200,132.336 241.020,132.200 240.800 C 132.064 240.580,131.693 240.400,131.376 240.400 C 131.059 240.400,130.800 240.580,130.800 240.800 M259.200 240.800 C 258.761 241.084,259.055 241.189,260.300 241.194 C 261.235 241.197,262.000 241.020,262.000 240.800 C 262.000 240.290,259.990 240.290,259.200 240.800 M134.800 241.200 C 134.800 241.420,135.351 241.600,136.024 241.600 C 136.737 241.600,137.144 241.433,137.000 241.200 C 136.864 240.980,136.313 240.800,135.776 240.800 C 135.239 240.800,134.800 240.980,134.800 241.200 M249.844 241.129 C 249.732 241.311,250.531 241.500,251.620 241.549 C 252.793 241.603,253.600 241.468,253.600 241.220 C 253.600 240.728,250.143 240.645,249.844 241.129 M140.400 241.600 C 140.400 241.820,141.041 242.000,141.824 242.000 C 142.671 242.000,143.147 241.838,143.000 241.600 C 142.864 241.380,142.223 241.200,141.576 241.200 C 140.929 241.200,140.400 241.380,140.400 241.600 M149.606 241.814 C 149.617 242.503,150.348 243.385,150.654 243.079 C 150.818 242.915,150.648 242.477,150.276 242.105 C 149.904 241.733,149.603 241.602,149.606 241.814 M249.443 244.443 C 249.346 244.749,248.892 246.160,248.434 247.578 C 247.473 250.549,247.442 250.800,248.043 250.800 C 248.286 250.800,248.382 250.530,248.255 250.200 C 248.129 249.870,248.173 249.600,248.353 249.600 C 248.767 249.600,250.183 244.450,249.859 244.125 C 249.727 243.993,249.540 244.136,249.443 244.443 M150.589 246.299 C 150.885 247.478,151.102 247.833,151.365 247.567 C 151.675 247.253,151.107 245.200,150.710 245.200 C 150.477 245.200,150.427 245.654,150.589 246.299 M142.000 248.844 C 141.494 249.208,141.509 249.240,142.100 249.050 C 143.285 248.669,142.880 249.469,141.131 250.966 C 140.213 251.752,139.555 252.488,139.669 252.602 C 139.996 252.930,143.600 249.596,143.600 248.966 C 143.600 248.296,142.842 248.239,142.000 248.844 M258.003 250.300 C 258.008 250.696,270.114 262.343,271.289 263.082 C 271.790 263.397,269.230 260.740,265.600 257.178 C 261.970 253.616,259.045 250.544,259.100 250.351 C 259.155 250.158,258.930 250.000,258.600 250.000 C 258.270 250.000,258.002 250.135,258.003 250.300 M259.600 250.561 C 259.600 250.649,260.185 250.917,260.900 251.155 C 262.089 251.552,262.134 251.538,261.424 250.995 C 260.708 250.447,259.600 250.183,259.600 250.561 M263.600 252.200 C 264.909 252.948,265.618 252.939,264.624 252.187 C 264.196 251.864,263.566 251.606,263.224 251.614 C 262.824 251.623,262.959 251.834,263.600 252.200 M152.553 252.476 C 152.391 252.738,152.460 253.020,152.707 253.102 C 152.953 253.184,153.056 253.510,152.935 253.826 C 152.814 254.142,152.908 254.400,153.145 254.400 C 153.381 254.400,153.471 254.670,153.345 255.000 C 153.218 255.330,153.308 255.600,153.545 255.600 C 153.781 255.600,153.871 255.870,153.745 256.200 C 153.618 256.530,153.724 256.800,153.981 256.800 C 154.237 256.800,154.345 256.965,154.221 257.166 C 154.096 257.368,154.212 258.043,154.477 258.666 C 154.743 259.290,156.050 262.937,157.380 266.771 C 158.836 270.964,160.039 273.819,160.400 273.936 C 160.867 274.087,160.901 274.005,160.554 273.565 C 160.308 273.254,158.538 268.275,156.620 262.500 C 154.703 256.725,153.069 252.000,152.990 252.000 C 152.912 252.000,152.715 252.214,152.553 252.476 M128.000 254.200 C 127.459 254.851,127.589 254.933,128.567 254.557 C 128.915 254.424,129.200 254.154,129.200 253.957 C 129.200 253.404,128.552 253.535,128.000 254.200 M244.008 260.808 C 242.617 264.771,241.580 268.113,241.702 268.235 C 241.824 268.357,242.045 267.904,242.194 267.229 C 242.342 266.553,242.649 266.000,242.875 266.000 C 243.101 266.000,243.186 265.742,243.065 265.426 C 242.944 265.110,242.997 264.795,243.183 264.726 C 243.569 264.582,246.962 254.029,246.705 253.772 C 246.612 253.679,245.399 256.846,244.008 260.808 M133.101 258.300 C 127.958 263.036,124.935 266.455,129.008 262.929 C 131.592 260.693,138.314 254.000,137.976 254.000 C 137.863 254.000,135.669 255.935,133.101 258.300 M269.600 254.357 C 269.600 254.801,270.831 255.303,271.146 254.988 C 271.273 254.861,271.112 254.589,270.788 254.384 C 270.040 253.911,269.600 253.901,269.600 254.357 M126.100 254.665 C 125.825 254.776,125.600 255.128,125.600 255.447 C 125.600 255.904,125.771 255.937,126.400 255.600 C 127.678 254.916,127.425 254.130,126.100 254.665 M122.900 255.865 C 122.049 256.208,122.317 257.147,123.200 256.916 C 123.640 256.801,124.000 256.458,124.000 256.153 C 124.000 255.582,123.759 255.518,122.900 255.865 M273.600 256.133 C 273.600 256.427,273.825 256.675,274.100 256.686 C 274.375 256.696,274.960 256.833,275.400 256.990 C 276.047 257.220,276.009 257.116,275.200 256.446 C 274.032 255.478,273.600 255.394,273.600 256.133 M276.400 257.186 C 276.400 257.398,276.760 257.765,277.200 258.000 C 278.081 258.472,278.275 258.035,277.520 257.280 C 276.942 256.702,276.400 256.656,276.400 257.186 M118.600 258.077 L 117.400 258.832 118.600 258.560 C 120.016 258.238,120.128 258.165,119.942 257.686 C 119.864 257.486,119.260 257.662,118.600 258.077 M116.012 259.184 C 115.688 259.389,115.521 259.654,115.641 259.774 C 115.760 259.894,116.205 259.729,116.629 259.409 C 117.473 258.771,116.960 258.585,116.012 259.184 M280.400 259.153 C 280.400 259.348,280.760 259.601,281.200 259.716 C 282.145 259.963,282.286 259.395,281.367 259.043 C 280.528 258.721,280.400 258.735,280.400 259.153 M283.200 260.220 C 283.200 260.513,285.834 261.605,286.487 261.583 C 286.769 261.574,286.370 261.222,285.600 260.800 C 284.212 260.040,283.200 259.796,283.200 260.220 M111.300 261.065 C 110.481 261.395,110.733 261.943,111.600 261.716 C 112.040 261.601,112.400 261.348,112.400 261.153 C 112.400 260.772,112.088 260.747,111.300 261.065 M287.200 261.920 C 287.200 262.319,289.982 263.351,290.273 263.060 C 290.390 262.943,289.815 262.566,288.994 262.223 C 287.272 261.504,287.200 261.492,287.200 261.920 M106.500 263.098 C 104.662 264.013,104.882 264.460,106.800 263.707 C 107.680 263.361,108.400 262.926,108.400 262.739 C 108.400 262.272,108.013 262.345,106.500 263.098 M291.200 263.573 C 291.200 263.778,291.560 264.048,292.000 264.173 C 294.279 264.820,294.533 264.789,293.200 264.031 C 291.620 263.131,291.200 263.035,291.200 263.573 M103.200 264.582 C 99.714 265.892,95.601 268.002,95.606 268.477 C 95.610 268.797,95.727 268.844,95.906 268.600 C 96.068 268.380,96.461 268.143,96.779 268.074 C 97.098 268.004,98.842 267.239,100.655 266.374 C 102.469 265.508,104.143 264.800,104.376 264.800 C 104.609 264.800,104.800 264.620,104.800 264.400 C 104.800 264.180,104.755 264.013,104.700 264.028 C 104.645 264.044,103.970 264.293,103.200 264.582 M272.306 264.228 C 272.180 264.353,272.874 265.189,273.847 266.086 C 276.103 268.166,276.426 267.919,274.355 265.698 C 272.666 263.888,272.654 263.879,272.306 264.228 M294.800 264.990 C 294.800 265.094,295.340 265.459,296.000 265.800 C 296.711 266.168,297.200 266.249,297.200 266.000 C 297.200 265.769,296.738 265.405,296.174 265.190 C 295.017 264.750,294.800 264.719,294.800 264.990 M123.691 267.738 C 122.321 269.134,121.200 270.519,121.200 270.815 C 121.200 271.232,126.790 265.725,126.798 265.300 C 126.808 264.802,125.788 265.602,123.691 267.738 M298.800 266.761 C 298.800 266.959,299.340 267.310,300.000 267.540 C 301.459 268.049,301.603 267.512,300.181 266.864 C 298.955 266.305,298.800 266.294,298.800 266.761 M276.000 268.169 C 276.000 268.262,276.495 268.867,277.100 269.513 C 277.705 270.159,278.629 271.169,279.154 271.756 C 280.980 273.802,280.482 272.424,278.599 270.219 C 276.966 268.308,276.000 267.546,276.000 268.169 M240.798 270.433 C 240.796 270.745,240.537 271.495,240.221 272.100 C 239.906 272.705,239.803 273.200,239.993 273.200 C 240.427 273.200,241.364 270.431,241.040 270.107 C 240.908 269.975,240.799 270.122,240.798 270.433 M89.100 271.227 C 88.275 271.663,87.600 272.108,87.600 272.218 C 87.600 272.327,88.320 272.049,89.200 271.600 C 90.080 271.151,90.800 270.697,90.800 270.592 C 90.800 270.330,90.797 270.331,89.100 271.227 M118.953 273.104 C 118.108 274.147,117.200 275.226,116.935 275.502 C 110.640 282.063,100.887 299.755,99.075 307.900 C 98.579 310.129,99.498 308.507,100.138 306.025 C 100.531 304.498,100.976 303.193,101.126 303.125 C 101.444 302.980,103.973 297.032,104.284 295.700 C 104.399 295.205,104.630 294.800,104.798 294.800 C 104.966 294.800,105.327 294.260,105.600 293.600 C 105.873 292.940,106.266 292.400,106.472 292.400 C 106.678 292.400,106.736 292.220,106.600 292.000 C 106.464 291.780,106.554 291.600,106.800 291.600 C 107.046 291.600,107.136 291.420,107.000 291.200 C 106.864 290.980,106.913 290.800,107.110 290.800 C 107.306 290.800,107.468 290.575,107.470 290.300 C 107.476 289.592,109.993 285.600,110.434 285.600 C 110.635 285.600,110.800 285.330,110.800 285.000 C 110.800 284.670,110.980 284.400,111.200 284.400 C 111.420 284.400,111.602 284.175,111.604 283.900 C 111.611 283.168,115.579 277.600,116.095 277.600 C 116.336 277.600,116.441 277.508,116.328 277.395 C 116.115 277.182,118.186 274.638,120.110 272.750 C 120.721 272.150,121.056 271.558,120.855 271.434 C 120.654 271.310,119.798 272.061,118.953 273.104 M311.341 272.846 C 313.069 273.729,314.577 274.356,314.694 274.239 C 314.894 274.039,308.978 271.178,308.450 271.220 C 308.313 271.231,309.614 271.962,311.341 272.846 M280.800 273.489 C 280.800 273.716,281.068 274.124,281.396 274.396 C 281.723 274.668,281.909 275.023,281.809 275.185 C 281.709 275.347,282.071 275.717,282.614 276.007 C 283.156 276.298,283.600 276.731,283.600 276.971 C 283.600 277.211,283.967 277.637,284.416 277.917 C 284.864 278.197,285.135 278.581,285.018 278.771 C 284.901 278.961,285.099 279.229,285.460 279.368 C 285.820 279.506,286.000 279.733,285.860 279.874 C 285.720 280.014,285.967 280.382,286.409 280.691 C 286.852 281.001,287.110 281.422,286.983 281.627 C 286.856 281.832,286.932 282.000,287.151 282.000 C 287.371 282.000,288.040 282.900,288.639 284.000 C 289.237 285.100,289.879 286.000,290.064 286.000 C 290.249 286.000,290.400 286.272,290.400 286.604 C 290.400 286.936,290.751 287.508,291.180 287.875 C 291.608 288.242,291.868 288.691,291.756 288.871 C 291.644 289.052,291.728 289.200,291.942 289.200 C 292.725 289.200,298.333 300.687,299.461 304.600 C 299.842 305.920,300.215 306.718,300.291 306.374 C 300.515 305.364,298.090 298.938,295.762 294.373 C 292.000 286.996,280.800 271.364,280.800 273.489 M160.534 274.914 C 160.672 275.307,161.625 278.277,162.651 281.514 C 163.676 284.751,164.647 287.490,164.808 287.600 C 164.968 287.710,165.849 290.140,166.765 293.000 C 168.359 297.979,169.948 301.786,170.289 301.444 C 170.378 301.356,169.072 297.530,167.387 292.942 C 165.702 288.354,163.598 282.440,162.711 279.800 C 161.823 277.160,160.914 274.820,160.690 274.600 C 160.415 274.330,160.364 274.432,160.534 274.914 M238.222 277.100 C 237.823 278.365,237.411 279.625,237.306 279.900 C 237.201 280.175,237.314 280.400,237.557 280.400 C 237.801 280.400,238.000 280.130,238.000 279.800 C 238.000 279.470,238.199 279.200,238.443 279.200 C 238.686 279.200,238.782 278.930,238.655 278.600 C 238.529 278.270,238.588 278.000,238.788 278.000 C 238.987 278.000,239.131 277.685,239.107 277.300 C 239.083 276.915,239.196 276.195,239.358 275.700 C 239.521 275.205,239.495 274.800,239.300 274.800 C 239.105 274.800,238.620 275.835,238.222 277.100 M316.800 275.599 C 317.865 276.433,318.400 276.596,318.400 276.088 C 318.400 275.916,317.815 275.559,317.100 275.296 L 315.800 274.816 316.800 275.599 M79.465 275.847 C 78.840 276.186,78.418 276.552,78.527 276.661 C 78.741 276.874,81.200 275.705,81.200 275.390 C 81.200 275.063,80.640 275.210,79.465 275.847 M320.200 277.410 C 321.755 278.368,322.400 278.602,322.400 278.208 C 322.400 277.969,319.347 276.395,318.916 276.412 C 318.742 276.419,319.320 276.868,320.200 277.410 M75.500 277.876 C 75.115 277.976,74.800 278.225,74.800 278.429 C 74.800 278.994,75.443 278.872,76.000 278.200 C 76.274 277.870,76.431 277.621,76.349 277.646 C 76.267 277.672,75.885 277.775,75.500 277.876 M323.305 279.076 C 323.677 279.448,324.115 279.618,324.279 279.454 C 324.443 279.291,324.312 278.989,323.988 278.784 C 323.015 278.169,322.582 278.353,323.305 279.076 M72.900 279.288 C 72.405 279.527,72.000 279.875,72.000 280.061 C 72.000 280.588,72.387 280.468,73.491 279.600 C 74.593 278.733,74.334 278.597,72.900 279.288 M325.305 280.276 C 325.677 280.648,326.115 280.818,326.279 280.654 C 326.443 280.491,326.312 280.189,325.988 279.984 C 325.015 279.369,324.582 279.553,325.305 280.276 M69.800 280.878 C 69.360 281.127,68.910 281.442,68.800 281.577 C 68.690 281.712,67.835 282.159,66.900 282.572 C 65.965 282.984,65.200 283.455,65.200 283.617 C 65.200 283.780,64.750 284.026,64.200 284.164 C 63.650 284.302,63.200 284.592,63.200 284.808 C 63.200 285.023,63.010 285.200,62.778 285.200 C 62.191 285.200,57.494 288.427,57.733 288.666 C 57.840 288.773,59.608 287.802,61.664 286.507 C 63.719 285.213,66.704 283.445,68.297 282.577 C 69.891 281.710,71.196 280.865,71.197 280.700 C 71.201 280.285,70.743 280.343,69.800 280.878 M327.419 281.365 C 327.844 281.675,328.347 281.833,328.538 281.715 C 328.957 281.456,328.030 280.815,327.224 280.806 C 326.816 280.802,326.874 280.966,327.419 281.365 M233.635 290.303 C 230.427 299.281,226.634 309.775,226.191 310.900 C 226.031 311.305,226.096 311.600,226.346 311.600 C 226.583 311.600,227.077 310.565,227.442 309.300 C 227.807 308.035,228.234 306.910,228.391 306.800 C 228.548 306.690,229.626 303.765,230.786 300.300 C 231.947 296.835,233.074 294.000,233.291 294.000 C 233.508 294.000,233.582 293.730,233.455 293.400 C 233.329 293.070,233.419 292.800,233.655 292.800 C 233.892 292.800,233.986 292.542,233.865 292.226 C 233.744 291.910,233.794 291.595,233.975 291.526 C 234.247 291.422,237.200 282.889,237.200 282.207 C 237.200 280.906,236.103 283.398,233.635 290.303 M329.200 282.357 C 329.200 282.801,330.431 283.303,330.746 282.988 C 330.873 282.861,330.712 282.589,330.388 282.384 C 329.640 281.911,329.200 281.901,329.200 282.357 M334.000 285.090 C 334.000 285.265,334.360 285.632,334.800 285.907 C 335.243 286.184,335.600 286.233,335.600 286.017 C 335.600 285.803,335.240 285.435,334.800 285.200 C 334.360 284.965,334.000 284.915,334.000 285.090 M337.200 287.103 C 337.200 287.282,337.740 287.746,338.400 288.136 C 339.060 288.526,339.600 288.660,339.600 288.433 C 339.600 288.206,339.060 287.741,338.400 287.400 C 337.740 287.059,337.200 286.925,337.200 287.103 M341.600 289.930 C 341.600 290.379,345.963 293.370,346.229 293.104 C 346.343 292.990,345.754 292.380,344.918 291.748 C 342.918 290.235,341.600 289.513,341.600 289.930 M52.800 291.800 C 52.517 292.141,52.376 292.509,52.486 292.619 C 52.596 292.729,52.917 292.541,53.200 292.200 C 53.483 291.859,53.624 291.491,53.514 291.381 C 53.404 291.271,53.083 291.459,52.800 291.800 M50.546 293.345 C 49.916 293.888,49.514 294.446,49.654 294.586 C 49.793 294.726,50.423 294.397,51.054 293.855 C 51.684 293.312,52.086 292.754,51.946 292.614 C 51.807 292.474,51.177 292.803,50.546 293.345 M346.800 293.510 C 346.800 293.680,348.176 294.985,349.857 296.410 C 352.469 298.624,354.481 300.753,358.446 305.503 C 358.861 306.000,359.200 306.585,359.200 306.803 C 359.200 307.021,359.380 307.200,359.600 307.200 C 359.820 307.200,360.000 307.377,360.000 307.592 C 360.000 307.808,360.630 308.970,361.401 310.174 C 362.644 312.118,365.298 317.443,366.845 321.100 C 367.148 321.815,367.526 322.400,367.685 322.400 C 367.972 322.400,367.829 321.747,367.204 320.200 C 367.026 319.760,366.653 318.770,366.374 318.000 C 366.096 317.230,365.652 316.330,365.387 316.000 C 365.123 315.670,364.035 313.690,362.971 311.600 C 361.906 309.510,360.827 307.620,360.573 307.400 C 360.319 307.180,359.508 306.100,358.772 305.000 C 356.336 301.364,346.800 292.212,346.800 293.510 M44.559 298.933 C 42.367 301.184,40.050 303.739,39.410 304.613 C 38.770 305.486,38.033 306.384,37.772 306.608 C 37.512 306.832,36.242 309.052,34.950 311.542 C 33.657 314.031,32.209 316.817,31.732 317.734 C 31.255 318.650,30.189 321.380,29.363 323.800 C 28.538 326.220,27.690 328.315,27.480 328.455 C 27.270 328.596,27.221 328.911,27.372 329.155 C 27.524 329.400,27.494 329.600,27.307 329.600 C 27.120 329.600,26.660 330.755,26.284 332.166 C 25.482 335.173,25.480 335.200,26.000 335.200 C 26.220 335.200,26.400 334.851,26.400 334.424 C 26.400 333.997,26.580 333.536,26.800 333.400 C 27.020 333.264,27.200 332.711,27.200 332.171 C 27.200 331.631,27.382 330.877,27.604 330.495 C 27.827 330.113,28.735 327.662,29.623 325.050 C 33.193 314.546,38.133 306.265,44.862 299.504 C 47.214 297.142,49.004 295.126,48.841 295.025 C 48.677 294.924,46.751 296.683,44.559 298.933 M170.526 302.505 C 170.665 302.893,171.527 305.585,172.442 308.487 C 173.776 312.716,175.200 315.895,175.200 314.641 C 175.200 314.198,170.769 302.237,170.526 302.023 C 170.386 301.900,170.386 302.117,170.526 302.505 M300.000 307.776 C 300.000 308.093,300.180 308.464,300.400 308.600 C 300.620 308.736,300.800 308.477,300.800 308.024 C 300.800 307.571,300.620 307.200,300.400 307.200 C 300.180 307.200,300.000 307.459,300.000 307.776 M106.000 309.200 C 106.000 309.437,107.467 309.600,109.600 309.600 C 111.733 309.600,113.200 309.437,113.200 309.200 C 113.200 308.963,111.733 308.800,109.600 308.800 C 107.467 308.800,106.000 308.963,106.000 309.200 M279.200 309.200 C 279.200 309.420,280.111 309.600,281.224 309.600 C 282.471 309.600,283.152 309.447,283.000 309.200 C 282.864 308.980,281.953 308.800,280.976 308.800 C 279.999 308.800,279.200 308.980,279.200 309.200 M275.429 310.229 C 274.747 310.910,274.555 313.600,275.187 313.600 C 275.401 313.600,275.471 313.330,275.344 312.999 C 274.954 311.982,275.578 310.384,276.512 310.008 C 277.155 309.749,277.215 309.644,276.729 309.625 C 276.359 309.611,275.774 309.883,275.429 310.229 M124.002 311.002 C 124.277 311.334,124.641 312.189,124.810 312.902 C 125.024 313.803,125.131 313.933,125.159 313.326 C 125.216 312.114,124.514 310.400,123.961 310.400 C 123.634 310.400,123.646 310.573,124.002 311.002 M225.600 312.405 C 225.600 312.627,223.890 317.457,221.800 323.138 C 219.710 328.819,218.000 333.600,218.000 333.762 C 218.000 334.444,219.058 332.891,219.473 331.600 C 221.186 326.266,223.416 320.159,223.729 319.945 C 223.934 319.804,223.979 319.489,223.828 319.245 C 223.676 319.000,223.708 318.800,223.898 318.800 C 224.087 318.800,224.662 317.495,225.174 315.900 C 225.687 314.305,226.192 312.775,226.296 312.500 C 226.400 312.225,226.286 312.000,226.043 312.000 C 225.799 312.000,225.600 312.182,225.600 312.405 M275.200 314.599 C 275.200 315.545,276.169 318.400,276.490 318.400 C 276.708 318.400,276.764 318.085,276.615 317.700 C 276.466 317.315,276.243 316.501,276.120 315.892 C 275.927 314.931,275.200 313.911,275.200 314.599 M124.400 314.845 C 124.400 314.944,123.591 317.719,122.601 321.012 C 120.659 327.479,120.632 327.600,121.141 327.600 C 121.328 327.600,121.799 326.385,122.187 324.900 C 122.576 323.415,123.339 320.612,123.884 318.670 C 124.428 316.729,124.767 315.034,124.637 314.904 C 124.507 314.773,124.400 314.747,124.400 314.845 M175.284 315.600 C 175.400 315.930,176.262 318.585,177.200 321.500 C 178.138 324.415,179.072 326.800,179.276 326.800 C 179.480 326.800,179.524 327.000,179.372 327.245 C 179.221 327.489,179.274 327.804,179.489 327.945 C 179.705 328.085,180.376 329.696,180.982 331.525 C 181.587 333.354,182.172 334.762,182.281 334.653 C 182.559 334.375,175.852 315.678,175.302 315.200 C 175.176 315.090,175.167 315.270,175.284 315.600 M276.623 320.100 C 276.945 321.150,277.130 321.404,277.384 321.149 C 277.690 320.844,277.135 319.200,276.726 319.200 C 276.517 319.200,276.470 319.604,276.623 320.100 M277.485 321.862 C 277.331 322.112,277.472 322.830,277.800 323.458 C 278.415 324.638,278.528 324.147,278.043 322.404 C 277.874 321.796,277.656 321.585,277.485 321.862 M367.718 323.258 C 367.842 323.620,368.164 324.655,368.435 325.558 C 368.918 327.171,369.600 327.780,369.600 326.600 C 369.600 326.270,369.409 326.000,369.176 326.000 C 368.943 326.000,368.856 325.832,368.983 325.628 C 369.109 325.423,369.027 325.140,368.800 325.000 C 368.573 324.860,368.464 324.620,368.558 324.468 C 368.652 324.316,368.451 323.833,368.111 323.396 C 367.670 322.829,367.557 322.789,367.718 323.258 M369.734 329.646 C 369.874 330.171,369.992 330.735,369.995 330.900 C 369.998 331.065,370.186 331.200,370.414 331.200 C 371.009 331.200,370.641 329.080,370.009 328.870 C 369.625 328.742,369.549 328.956,369.734 329.646 M120.006 330.268 C 120.001 331.022,124.926 335.200,125.821 335.200 C 125.949 335.200,126.676 335.675,127.438 336.256 C 128.199 336.836,128.901 337.232,128.998 337.135 C 129.187 336.946,123.185 332.474,121.828 331.792 C 121.381 331.568,120.790 330.938,120.514 330.392 C 120.036 329.448,120.012 329.442,120.006 330.268 M279.625 330.780 C 279.608 331.727,279.729 332.031,280.012 331.748 C 280.285 331.475,280.294 331.009,280.038 330.368 C 279.674 329.458,279.649 329.483,279.625 330.780 M370.534 332.172 C 370.654 332.486,370.874 333.386,371.021 334.172 C 371.237 335.321,372.000 336.261,372.000 335.377 C 372.000 334.450,371.026 331.600,370.710 331.600 C 370.492 331.600,370.413 331.857,370.534 332.172 M278.000 332.600 C 277.722 332.935,277.679 333.200,277.902 333.200 C 278.122 333.200,278.526 332.930,278.800 332.600 C 279.078 332.265,279.121 332.000,278.898 332.000 C 278.678 332.000,278.274 332.270,278.000 332.600 M275.200 334.357 C 275.200 334.553,273.265 335.935,270.900 337.428 C 265.866 340.606,266.222 340.355,266.439 340.572 C 266.678 340.812,275.763 334.912,275.931 334.408 C 276.005 334.184,275.872 334.000,275.633 334.000 C 275.395 334.000,275.200 334.160,275.200 334.357 M216.095 338.709 C 215.185 341.069,214.321 343.315,214.177 343.700 C 214.033 344.085,214.086 344.400,214.295 344.400 C 214.658 344.400,218.144 334.810,217.878 334.545 C 217.808 334.474,217.006 336.348,216.095 338.709 M130.400 338.400 C 131.309 339.111,132.400 339.454,132.400 339.029 C 132.400 338.832,129.996 337.596,129.639 337.609 C 129.507 337.614,129.850 337.970,130.400 338.400 M372.030 337.820 C 372.047 338.029,372.316 338.830,372.627 339.600 L 373.193 341.000 372.954 339.600 C 372.742 338.352,371.951 336.829,372.030 337.820 M24.687 339.073 C 24.237 339.835,23.963 342.000,24.316 342.000 C 24.525 342.000,24.803 341.334,24.935 340.521 C 25.172 339.063,25.064 338.435,24.687 339.073 M183.489 339.249 C 183.736 339.496,183.842 339.946,183.726 340.249 C 183.610 340.552,183.708 340.800,183.945 340.800 C 184.181 340.800,184.271 341.070,184.145 341.400 C 183.995 341.790,184.155 342.000,184.600 342.000 C 185.063 342.000,185.206 341.793,185.041 341.363 C 184.907 341.012,184.688 340.292,184.555 339.763 C 184.422 339.233,184.027 338.800,183.677 338.800 C 183.206 338.800,183.157 338.917,183.489 339.249 M136.200 342.166 C 136.860 342.695,137.487 343.042,137.594 342.937 C 137.833 342.701,135.952 341.220,135.400 341.211 C 135.180 341.207,135.540 341.637,136.200 342.166 M23.887 342.673 C 23.437 343.435,23.163 345.600,23.516 345.600 C 23.725 345.600,24.003 344.934,24.135 344.121 C 24.372 342.663,24.264 342.035,23.887 342.673 M261.572 343.328 C 260.787 343.807,259.212 344.740,258.072 345.400 C 256.933 346.060,256.001 346.836,256.000 347.124 C 256.000 347.726,255.957 347.748,260.000 345.075 C 264.059 342.391,265.222 341.098,261.572 343.328 M185.200 344.000 C 185.200 344.220,185.391 344.400,185.624 344.400 C 185.857 344.400,185.936 344.580,185.800 344.800 C 185.664 345.020,185.743 345.200,185.976 345.200 C 186.467 345.200,186.487 345.093,186.157 344.233 C 185.889 343.535,185.200 343.367,185.200 344.000 M140.800 344.908 C 140.800 345.242,141.070 345.618,141.400 345.745 C 141.730 345.871,142.000 345.823,142.000 345.636 C 142.000 345.450,141.730 345.074,141.400 344.800 C 140.912 344.395,140.800 344.415,140.800 344.908 M374.262 346.600 C 374.396 347.480,374.572 348.275,374.653 348.367 C 374.956 348.710,374.729 346.568,374.381 345.800 C 374.129 345.242,374.093 345.485,374.262 346.600 M22.678 346.656 C 22.358 346.975,22.719 347.600,23.224 347.600 C 23.431 347.600,23.600 347.330,23.600 347.000 C 23.600 346.381,23.128 346.205,22.678 346.656 M144.000 346.953 C 144.000 347.283,144.180 347.664,144.400 347.800 C 144.620 347.936,144.800 347.777,144.800 347.447 C 144.800 347.117,144.620 346.736,144.400 346.600 C 144.180 346.464,144.000 346.623,144.000 346.953 M145.200 347.753 C 145.200 348.083,145.380 348.464,145.600 348.600 C 145.820 348.736,146.000 348.577,146.000 348.247 C 146.000 347.917,145.820 347.536,145.600 347.400 C 145.380 347.264,145.200 347.423,145.200 347.753 M212.193 349.274 C 211.814 350.443,211.264 351.940,210.970 352.600 C 209.233 356.505,208.637 358.400,209.145 358.400 C 209.549 358.400,213.380 347.647,213.083 347.349 C 212.972 347.239,212.572 348.105,212.193 349.274 M22.244 348.630 C 21.906 349.512,22.277 349.883,22.887 349.273 C 23.222 348.938,23.236 348.676,22.933 348.373 C 22.631 348.071,22.430 348.146,22.244 348.630 M186.945 348.700 C 187.906 352.088,188.597 354.000,188.860 354.000 C 189.033 354.000,189.071 354.270,188.945 354.600 C 188.818 354.930,188.890 355.200,189.105 355.200 C 189.320 355.200,190.440 357.945,191.593 361.300 C 192.746 364.655,193.823 367.490,193.985 367.600 C 194.147 367.710,195.236 370.677,196.404 374.193 C 198.508 380.525,198.857 381.253,200.007 381.704 C 200.452 381.879,200.412 381.945,199.847 381.968 C 199.433 381.986,198.479 381.619,197.726 381.154 C 196.974 380.689,196.263 380.403,196.148 380.519 C 195.914 380.752,199.256 382.807,199.835 382.787 C 200.602 382.761,201.801 381.571,201.350 381.284 C 201.043 381.088,201.329 379.901,202.274 377.455 C 203.027 375.506,203.544 373.811,203.422 373.689 C 203.119 373.386,203.131 373.363,201.552 377.174 C 200.783 379.030,199.984 380.605,199.777 380.674 C 199.415 380.793,197.623 376.097,191.580 359.200 C 190.046 354.910,188.523 350.833,188.196 350.140 C 187.868 349.446,187.600 348.681,187.600 348.440 C 187.600 348.198,187.408 348.000,187.173 348.000 C 186.938 348.000,186.835 348.315,186.945 348.700 M146.400 348.724 C 146.400 348.939,146.685 349.224,147.033 349.357 C 147.423 349.507,147.606 349.418,147.508 349.125 C 147.309 348.527,146.400 348.198,146.400 348.724 M374.800 349.800 C 374.800 350.130,374.980 350.400,375.200 350.400 C 375.420 350.400,375.600 350.130,375.600 349.800 C 375.600 349.470,375.420 349.200,375.200 349.200 C 374.980 349.200,374.800 349.470,374.800 349.800 M249.500 351.078 C 248.675 351.645,248.000 352.273,248.000 352.474 C 248.000 352.779,249.933 351.548,251.380 350.322 C 252.271 349.567,250.894 350.121,249.500 351.078 M21.867 350.667 C 21.268 351.266,21.573 352.120,22.200 351.600 C 22.530 351.326,22.800 350.944,22.800 350.751 C 22.800 350.337,22.247 350.287,21.867 350.667 M150.800 351.554 C 150.800 352.007,152.802 353.331,153.075 353.059 C 153.411 352.722,152.798 352.000,152.176 352.000 C 151.859 352.000,151.600 351.820,151.600 351.600 C 151.600 351.380,151.420 351.200,151.200 351.200 C 150.980 351.200,150.800 351.359,150.800 351.554 M375.200 351.800 C 375.200 352.130,375.380 352.400,375.600 352.400 C 375.820 352.400,376.000 352.130,376.000 351.800 C 376.000 351.470,375.820 351.200,375.600 351.200 C 375.380 351.200,375.200 351.470,375.200 351.800 M21.338 353.017 C 21.208 353.357,21.201 353.735,21.324 353.857 C 21.674 354.208,22.400 353.613,22.400 352.976 C 22.400 352.209,21.637 352.238,21.338 353.017 M375.600 353.776 C 375.600 354.339,375.780 354.800,376.000 354.800 C 376.220 354.800,376.400 354.451,376.400 354.024 C 376.400 353.597,376.220 353.136,376.000 353.000 C 375.773 352.860,375.600 353.196,375.600 353.776 M244.200 354.400 C 243.320 355.042,242.375 355.575,242.100 355.584 C 241.825 355.593,241.600 355.780,241.600 356.000 C 241.600 356.220,241.407 356.400,241.172 356.400 C 240.937 356.400,239.992 356.910,239.072 357.533 C 238.152 358.156,237.085 358.780,236.700 358.920 C 236.315 359.060,236.000 359.452,236.000 359.790 C 236.000 360.217,237.067 359.714,239.500 358.139 C 241.425 356.893,243.765 355.409,244.700 354.840 C 245.635 354.271,246.400 353.670,246.400 353.503 C 246.400 352.974,245.844 353.201,244.200 354.400 M155.205 354.338 C 155.213 354.803,159.641 357.692,159.919 357.414 C 160.237 357.097,158.424 355.622,157.700 355.609 C 157.425 355.604,157.199 355.465,157.197 355.300 C 157.195 355.135,156.745 354.792,156.197 354.538 C 155.649 354.283,155.202 354.193,155.205 354.338 M21.059 355.389 C 20.936 355.711,20.988 356.069,21.176 356.185 C 21.363 356.301,21.617 356.132,21.741 355.811 C 21.864 355.489,21.812 355.131,21.624 355.015 C 21.437 354.899,21.183 355.068,21.059 355.389 M376.000 356.176 C 376.000 356.493,376.180 356.864,376.400 357.000 C 376.620 357.136,376.800 356.877,376.800 356.424 C 376.800 355.971,376.620 355.600,376.400 355.600 C 376.180 355.600,376.000 355.859,376.000 356.176 M160.400 357.756 C 160.400 357.962,167.467 362.800,167.768 362.800 C 167.896 362.800,168.000 362.620,168.000 362.400 C 168.000 362.180,167.812 362.000,167.583 362.000 C 167.353 362.000,166.680 361.550,166.087 361.000 C 165.493 360.450,164.781 360.000,164.504 360.000 C 164.227 360.000,164.000 359.853,164.000 359.674 C 164.000 359.495,163.263 358.955,162.362 358.474 C 160.699 357.586,160.400 357.477,160.400 357.756 M376.400 358.576 C 376.400 358.893,376.580 359.264,376.800 359.400 C 377.020 359.536,377.200 359.277,377.200 358.824 C 377.200 358.371,377.020 358.000,376.800 358.000 C 376.580 358.000,376.400 358.259,376.400 358.576 M207.637 361.500 C 207.349 362.325,206.233 365.205,205.156 367.899 C 202.943 373.442,202.994 373.254,203.798 372.946 C 204.126 372.819,204.296 372.555,204.174 372.358 C 204.052 372.161,204.163 372.000,204.419 372.000 C 204.676 372.000,204.782 371.730,204.655 371.400 C 204.529 371.070,204.619 370.800,204.855 370.800 C 205.092 370.800,205.182 370.530,205.055 370.200 C 204.929 369.870,205.010 369.600,205.236 369.600 C 205.462 369.600,205.536 369.420,205.400 369.200 C 205.264 368.980,205.354 368.800,205.600 368.800 C 205.846 368.800,205.942 368.629,205.813 368.421 C 205.624 368.116,206.699 365.141,208.673 360.500 C 208.790 360.225,208.722 360.000,208.523 360.000 C 208.324 360.000,207.925 360.675,207.637 361.500 M234.581 360.326 C 233.615 361.020,232.961 362.153,233.800 361.679 C 235.351 360.803,235.682 360.498,235.324 360.276 C 235.125 360.153,234.790 360.176,234.581 360.326 M376.806 360.700 C 376.824 361.577,377.588 362.159,377.594 361.300 C 377.597 360.805,377.420 360.400,377.200 360.400 C 376.980 360.400,376.803 360.535,376.806 360.700 M229.705 363.725 C 228.993 364.206,228.408 364.738,228.405 364.906 C 228.402 365.074,229.120 364.735,230.000 364.153 C 230.880 363.570,231.600 363.028,231.600 362.947 C 231.600 362.621,230.933 362.895,229.705 363.725 M377.228 363.076 C 377.318 364.115,377.944 364.996,377.972 364.124 C 377.987 363.642,377.820 363.136,377.600 363.000 C 377.380 362.864,377.213 362.898,377.228 363.076 M172.000 365.600 C 172.550 366.030,173.180 366.382,173.400 366.382 C 173.620 366.382,173.350 366.030,172.800 365.600 C 172.250 365.170,171.620 364.818,171.400 364.818 C 171.180 364.818,171.450 365.170,172.000 365.600 M175.200 367.600 C 175.200 367.820,175.392 368.000,175.627 368.000 C 175.861 368.000,176.676 368.475,177.438 369.056 C 178.199 369.636,178.920 370.014,179.039 369.894 C 179.245 369.688,175.910 367.200,175.428 367.200 C 175.303 367.200,175.200 367.380,175.200 367.600 M219.200 370.316 C 218.870 370.429,217.575 371.214,216.322 372.061 C 215.069 372.907,213.879 373.600,213.676 373.600 C 213.474 373.600,212.835 374.075,212.255 374.655 C 211.675 375.235,211.195 375.550,211.188 375.355 C 211.181 375.160,210.990 375.319,210.763 375.708 C 210.536 376.098,210.201 376.324,210.017 376.211 C 209.834 376.097,209.575 376.288,209.442 376.635 C 209.158 377.375,211.846 375.912,212.700 374.862 C 212.975 374.524,213.200 374.377,213.200 374.536 C 213.200 374.873,217.683 372.076,218.045 371.513 C 218.179 371.303,218.449 371.131,218.645 371.130 C 219.189 371.127,220.219 370.483,219.997 370.285 C 219.889 370.188,219.530 370.202,219.200 370.316 M18.612 370.917 C 18.441 371.312,18.413 371.747,18.551 371.884 C 18.957 372.290,19.284 371.720,19.097 370.931 C 18.932 370.233,18.910 370.232,18.612 370.917 M18.212 373.717 C 18.041 374.112,18.013 374.547,18.151 374.684 C 18.557 375.090,18.884 374.520,18.697 373.731 C 18.532 373.033,18.510 373.032,18.212 373.717 M186.000 374.304 C 186.000 374.471,186.405 374.858,186.900 375.165 C 187.395 375.471,188.233 376.004,188.762 376.348 C 189.577 376.877,189.692 376.883,189.512 376.387 C 189.396 376.064,189.092 375.847,188.839 375.904 C 188.585 375.961,188.274 375.737,188.147 375.406 C 188.020 375.075,187.754 374.905,187.555 375.028 C 187.357 375.150,187.086 374.969,186.954 374.625 C 186.710 373.989,186.000 373.750,186.000 374.304 M17.600 377.024 C 17.600 377.604,17.773 377.940,18.000 377.800 C 18.220 377.664,18.400 377.203,18.400 376.776 C 18.400 376.349,18.220 376.000,18.000 376.000 C 17.780 376.000,17.600 376.461,17.600 377.024 M190.000 376.685 C 190.000 377.034,191.599 378.138,191.800 377.928 C 191.867 377.857,191.489 377.477,190.961 377.081 C 190.432 376.686,190.000 376.508,190.000 376.685 M379.600 377.400 C 379.600 377.950,379.780 378.400,380.000 378.400 C 380.220 378.400,380.400 377.950,380.400 377.400 C 380.400 376.850,380.220 376.400,380.000 376.400 C 379.780 376.400,379.600 376.850,379.600 377.400 M205.116 378.900 C 204.819 379.175,204.046 379.701,203.398 380.068 C 202.751 380.436,202.157 380.930,202.078 381.167 C 201.999 381.403,202.939 381.019,204.167 380.314 C 205.395 379.609,206.400 378.889,206.400 378.716 C 206.400 378.240,205.726 378.337,205.116 378.900 M17.200 380.224 C 17.200 380.804,17.373 381.140,17.600 381.000 C 17.820 380.864,18.000 380.403,18.000 379.976 C 18.000 379.549,17.820 379.200,17.600 379.200 C 17.380 379.200,17.200 379.661,17.200 380.224 M380.000 380.600 C 380.000 381.150,380.180 381.600,380.400 381.600 C 380.620 381.600,380.800 381.150,380.800 380.600 C 380.800 380.050,380.620 379.600,380.400 379.600 C 380.180 379.600,380.000 380.050,380.000 380.600 M16.800 383.424 C 16.800 384.004,16.973 384.340,17.200 384.200 C 17.420 384.064,17.600 383.603,17.600 383.176 C 17.600 382.749,17.420 382.400,17.200 382.400 C 16.980 382.400,16.800 382.861,16.800 383.424 M380.400 383.800 C 380.400 384.350,380.580 384.800,380.800 384.800 C 381.020 384.800,381.200 384.350,381.200 383.800 C 381.200 383.250,381.020 382.800,380.800 382.800 C 380.580 382.800,380.400 383.250,380.400 383.800 M16.400 387.024 C 16.400 387.604,16.573 387.940,16.800 387.800 C 17.020 387.664,17.200 387.203,17.200 386.776 C 17.200 386.349,17.020 386.000,16.800 386.000 C 16.580 386.000,16.400 386.461,16.400 387.024 M380.800 387.176 C 380.800 387.823,380.980 388.464,381.200 388.600 C 381.438 388.747,381.600 388.271,381.600 387.424 C 381.600 386.641,381.420 386.000,381.200 386.000 C 380.980 386.000,380.800 386.529,380.800 387.176 M16.300 389.831 C 16.135 389.997,16.011 390.688,16.025 391.367 C 16.050 392.573,16.059 392.579,16.440 391.625 C 16.869 390.552,16.775 389.352,16.300 389.831 M381.206 390.876 C 381.209 391.384,381.387 392.070,381.600 392.400 C 381.895 392.857,381.989 392.695,381.994 391.724 C 381.997 391.022,381.820 390.336,381.600 390.200 C 381.377 390.062,381.203 390.361,381.206 390.876 M381.567 397.000 C 381.341 399.002,381.405 399.529,381.824 399.110 C 381.947 398.987,381.990 398.012,381.920 396.943 L 381.793 395.000 381.567 397.000 M16.006 398.300 C 16.003 398.795,16.180 399.200,16.400 399.200 C 16.901 399.200,16.901 398.776,16.400 398.000 C 16.086 397.515,16.011 397.572,16.006 398.300 M18.400 399.200 C 18.400 399.420,18.951 399.600,19.624 399.600 C 20.337 399.600,20.744 399.433,20.600 399.200 C 20.464 398.980,19.913 398.800,19.376 398.800 C 18.839 398.800,18.400 398.980,18.400 399.200 M377.400 399.200 C 377.253 399.438,377.729 399.600,378.576 399.600 C 379.359 399.600,380.000 399.420,380.000 399.200 C 380.000 398.980,379.471 398.800,378.824 398.800 C 378.177 398.800,377.536 398.980,377.400 399.200 M31.300 399.497 C 32.785 399.574,35.215 399.574,36.700 399.497 C 38.185 399.420,36.970 399.357,34.000 399.357 C 31.030 399.357,29.815 399.420,31.300 399.497 M361.300 399.497 C 362.785 399.574,365.215 399.574,366.700 399.497 C 368.185 399.420,366.970 399.357,364.000 399.357 C 361.030 399.357,359.815 399.420,361.300 399.497 " stroke="none" fill="#b5b5b5" fill-rule="evenodd"></path><path id="path1" d="M180.938 0.894 C 181.192 1.056,180.770 1.191,180.000 1.195 C 176.338 1.214,159.631 6.384,151.447 10.030 C 124.161 22.188,108.963 45.458,102.744 84.600 C 102.325 87.240,101.997 90.210,102.015 91.200 C 102.066 94.016,101.572 96.999,101.162 96.351 C 100.883 95.911,100.811 95.936,100.806 96.476 C 100.803 96.848,100.980 97.264,101.200 97.400 C 101.420 97.536,101.599 98.762,101.597 100.124 C 101.593 103.863,101.130 108.004,100.743 107.765 C 100.554 107.648,100.400 108.093,100.400 108.753 C 100.400 109.413,100.607 110.081,100.860 110.237 C 101.426 110.587,100.969 128.788,100.379 129.380 C 99.847 129.914,99.906 132.295,100.459 132.637 C 101.038 132.994,100.598 144.280,99.976 145.029 C 99.686 145.378,99.702 145.616,100.027 145.817 C 100.588 146.163,100.166 151.517,99.517 152.300 C 99.223 152.654,99.246 152.800,99.596 152.800 C 99.936 152.800,100.013 153.205,99.844 154.105 C 99.710 154.822,99.502 156.487,99.383 157.805 C 99.264 159.122,99.091 160.470,98.999 160.800 C 98.906 161.130,98.718 162.300,98.580 163.400 C 95.932 184.518,86.492 204.130,75.406 211.545 C 72.287 213.630,68.242 215.378,67.336 215.031 C 65.973 214.508,67.069 216.153,69.829 218.776 C 76.615 225.222,88.520 231.343,101.000 234.802 C 102.760 235.289,104.377 235.795,104.593 235.925 C 104.809 236.056,105.259 236.187,105.593 236.218 C 107.831 236.423,109.689 236.967,109.884 237.473 C 110.012 237.809,110.218 237.897,110.356 237.676 C 110.679 237.160,116.001 238.154,116.404 238.806 C 116.633 239.177,116.740 239.179,116.862 238.815 C 117.053 238.241,119.200 238.680,119.200 239.292 C 119.200 239.562,119.367 239.560,119.700 239.284 C 120.285 238.801,122.494 239.124,122.172 239.646 C 122.051 239.841,122.143 240.000,122.376 240.000 C 122.609 240.000,122.800 239.806,122.800 239.568 C 122.800 239.047,125.274 239.503,125.650 240.093 C 125.807 240.339,126.005 240.316,126.181 240.030 C 126.518 239.485,129.258 239.895,129.683 240.554 C 129.887 240.870,130.097 240.863,130.431 240.529 C 130.963 239.997,133.652 240.298,134.070 240.936 C 134.252 241.216,134.510 241.218,134.870 240.943 C 135.439 240.508,139.200 240.695,139.200 241.159 C 139.200 241.312,140.905 241.362,142.988 241.271 C 145.072 241.180,147.097 241.254,147.488 241.436 C 147.880 241.618,148.740 241.775,149.400 241.784 C 150.409 241.797,150.600 241.959,150.600 242.800 C 150.600 243.350,150.697 243.890,150.816 244.000 C 150.934 244.110,151.627 246.180,152.356 248.600 C 154.903 257.058,172.369 306.301,183.002 335.000 C 184.469 338.960,186.813 345.350,188.211 349.200 C 189.609 353.050,192.217 360.160,194.006 365.000 C 195.795 369.840,197.806 375.295,198.475 377.121 C 199.144 378.948,199.757 380.377,199.837 380.296 C 200.296 379.838,206.123 364.951,210.601 352.800 C 217.698 333.542,220.184 326.733,224.837 313.800 C 227.687 305.880,230.388 298.410,230.839 297.200 C 231.291 295.990,232.845 291.670,234.293 287.600 C 246.696 252.731,249.200 245.218,249.200 242.878 L 249.200 240.881 251.100 240.706 C 252.145 240.610,253.171 240.682,253.380 240.866 C 253.882 241.307,255.600 241.296,255.600 240.853 C 255.600 240.303,261.675 240.040,262.504 240.554 C 263.025 240.877,263.304 240.879,263.512 240.562 C 263.956 239.885,267.612 239.512,268.289 240.074 C 268.673 240.393,268.950 240.413,269.130 240.136 C 269.596 239.423,271.686 239.095,272.062 239.677 C 272.297 240.041,272.491 240.068,272.700 239.765 C 273.162 239.094,274.897 238.783,275.479 239.266 C 275.814 239.543,276.000 239.553,276.000 239.292 C 276.000 238.659,278.075 238.273,278.426 238.842 C 278.653 239.209,278.892 239.165,279.392 238.665 C 279.758 238.299,280.539 237.972,281.129 237.937 C 283.000 237.828,284.154 237.654,285.896 237.220 C 286.829 236.988,287.729 236.827,287.896 236.862 C 288.063 236.898,288.470 236.819,288.800 236.686 C 289.130 236.554,291.650 235.907,294.400 235.249 C 297.150 234.590,301.020 233.520,303.000 232.870 C 305.568 232.028,306.684 231.820,306.894 232.145 C 307.090 232.449,307.190 232.399,307.194 231.994 C 307.198 231.626,308.024 231.098,309.300 230.649 C 316.821 228.001,332.375 218.746,332.395 216.907 C 332.398 216.635,331.455 215.937,330.300 215.355 C 317.537 208.922,307.638 195.674,303.396 179.347 C 301.733 172.945,300.366 162.180,301.018 160.624 C 301.228 160.125,301.176 159.792,300.872 159.691 C 300.365 159.522,300.165 148.769,300.659 148.274 C 300.802 148.131,300.881 146.571,300.834 144.807 C 300.787 143.043,300.896 141.600,301.075 141.600 C 301.254 141.600,301.337 139.970,301.259 137.977 C 301.141 134.935,301.233 134.227,301.830 133.567 C 302.375 132.965,302.431 132.671,302.071 132.311 C 301.312 131.552,301.427 120.642,302.200 120.000 C 302.889 119.428,303.050 115.402,302.400 115.000 C 302.162 114.853,302.000 112.337,302.000 108.800 C 302.000 105.263,302.162 102.747,302.400 102.600 C 303.068 102.187,302.898 96.580,302.200 96.000 C 301.398 95.334,301.301 86.601,302.100 87.006 C 302.375 87.145,302.314 87.021,301.964 86.730 C 301.565 86.397,301.227 85.208,301.056 83.532 C 300.763 80.658,298.088 68.040,296.765 63.294 C 289.667 37.829,273.189 20.308,253.935 17.754 C 252.871 17.612,252.000 17.376,252.000 17.229 C 252.000 17.081,251.371 17.034,250.602 17.124 C 249.833 17.214,248.888 17.151,248.502 16.986 C 248.116 16.820,246.540 16.722,245.000 16.769 C 243.150 16.825,241.679 16.634,240.664 16.206 C 239.819 15.850,239.244 15.748,239.387 15.979 C 239.558 16.255,238.833 16.400,237.280 16.400 C 234.937 16.400,234.878 16.371,231.556 13.609 C 227.681 10.386,222.698 7.529,217.000 5.260 C 212.808 3.592,211.597 3.125,211.100 2.985 C 210.935 2.938,210.755 2.864,210.700 2.819 C 210.645 2.775,210.330 2.679,210.000 2.605 C 209.670 2.532,208.327 2.186,207.016 1.836 C 205.705 1.486,203.950 1.200,203.116 1.200 C 202.282 1.200,201.600 1.065,201.600 0.900 C 201.600 0.735,196.847 0.600,191.038 0.600 C 185.229 0.600,180.684 0.732,180.938 0.894 M130.000 254.350 C 119.297 258.645,113.042 261.230,108.600 263.195 C 107.720 263.584,104.528 265.004,101.506 266.351 C 98.484 267.698,95.909 268.800,95.784 268.800 C 93.696 268.800,57.799 288.444,55.600 290.791 C 55.490 290.908,53.960 292.067,52.200 293.367 C 35.344 305.813,27.381 323.647,20.570 364.200 C 19.757 369.040,18.892 374.410,18.646 376.134 C 18.401 377.857,18.110 379.181,18.000 379.075 C 17.890 378.969,17.755 380.349,17.701 382.141 C 17.646 383.933,17.466 385.445,17.301 385.500 C 17.135 385.554,17.064 386.522,17.142 387.649 C 17.220 388.777,17.130 389.604,16.942 389.487 C 16.754 389.370,16.662 390.254,16.738 391.451 C 16.814 392.648,16.709 393.846,16.506 394.113 C 15.933 394.869,16.373 398.400,17.040 398.400 C 17.348 398.400,17.600 398.535,17.600 398.700 C 17.599 398.865,19.399 398.938,21.600 398.863 C 23.927 398.783,25.600 398.882,25.600 399.101 C 25.600 399.335,91.036 399.478,199.000 399.478 C 303.753 399.479,372.400 399.335,372.400 399.113 C 372.400 398.908,374.126 398.802,376.335 398.873 C 379.418 398.973,380.403 398.870,380.888 398.400 C 381.555 397.754,382.047 394.400,381.475 394.400 C 381.285 394.400,381.190 393.337,381.264 392.037 C 381.339 390.737,381.296 389.739,381.170 389.818 C 381.043 389.896,380.718 388.035,380.447 385.681 C 379.775 379.844,375.730 354.644,374.752 350.200 C 365.977 310.335,358.609 299.700,327.332 281.752 C 321.380 278.337,302.115 268.400,301.446 268.400 C 301.306 268.400,300.428 268.054,299.496 267.631 C 298.563 267.208,296.450 266.294,294.800 265.600 C 293.150 264.907,291.260 264.101,290.600 263.811 C 288.260 262.782,263.860 252.724,260.947 251.588 C 260.477 251.405,264.361 255.518,269.578 260.728 C 288.926 280.052,301.200 298.865,301.200 309.198 C 301.200 309.390,295.737 309.604,289.061 309.674 C 279.504 309.773,276.781 309.917,276.261 310.349 C 275.018 311.382,275.226 312.441,279.397 326.345 C 281.166 332.243,282.890 330.601,258.298 346.439 C 241.713 357.120,228.059 365.793,219.600 371.019 C 215.970 373.262,210.716 376.551,207.923 378.329 C 205.131 380.106,202.103 381.939,201.195 382.403 L 199.543 383.245 198.071 382.368 C 197.262 381.886,196.060 381.177,195.400 380.793 C 193.919 379.932,170.432 364.895,158.899 357.426 C 143.570 347.497,120.253 331.813,119.872 331.174 C 119.610 330.736,120.180 328.276,121.770 322.974 C 125.928 309.113,126.534 309.680,107.543 309.625 C 97.285 309.595,97.928 310.084,100.002 303.895 C 105.263 288.195,117.751 271.737,139.000 252.500 C 140.760 250.906,142.110 249.606,142.000 249.609 C 141.890 249.613,136.490 251.746,130.000 254.350 " stroke="none" fill="#040404" fill-rule="evenodd"></path><path id="path2" d="M168.800 3.255 C 168.800 3.492,168.530 3.582,168.200 3.455 C 167.870 3.329,167.600 3.399,167.600 3.613 C 167.600 3.826,167.285 4.014,166.900 4.032 C 166.515 4.049,166.389 4.142,166.620 4.238 C 166.851 4.335,167.738 4.172,168.591 3.877 C 169.746 3.477,169.970 3.274,169.471 3.082 C 169.099 2.940,168.800 3.017,168.800 3.255 M163.601 4.943 C 163.600 5.131,163.330 5.182,163.000 5.055 C 162.670 4.929,162.400 4.999,162.400 5.213 C 162.400 5.426,162.141 5.600,161.824 5.600 C 161.507 5.600,161.141 5.772,161.011 5.983 C 160.880 6.194,161.725 6.041,162.887 5.644 C 166.194 4.515,166.279 4.468,164.901 4.536 C 164.186 4.571,163.601 4.754,163.601 4.943 M158.466 6.667 C 158.175 6.979,157.621 7.134,157.235 7.011 C 156.788 6.869,156.533 6.997,156.533 7.364 C 156.533 7.856,156.773 7.847,158.167 7.305 C 160.175 6.524,160.150 6.543,159.515 6.300 C 159.229 6.190,158.758 6.355,158.466 6.667 M149.200 10.424 C 149.200 10.657,149.065 10.770,148.900 10.675 C 148.735 10.580,148.240 10.861,147.800 11.300 C 147.001 12.097,147.001 12.097,148.300 11.438 C 149.399 10.881,150.073 10.000,149.400 10.000 C 149.290 10.000,149.200 10.191,149.200 10.424 M241.200 16.400 C 241.530 16.613,242.340 16.773,243.000 16.754 C 244.176 16.721,244.180 16.714,243.200 16.400 C 241.670 15.910,240.442 15.910,241.200 16.400 M128.388 25.500 L 125.800 28.200 128.500 25.612 C 131.008 23.207,131.383 22.800,131.088 22.800 C 131.027 22.800,129.812 24.015,128.388 25.500 M298.868 72.000 C 298.888 73.039,299.518 74.746,299.532 73.800 C 299.538 73.360,299.389 72.640,299.200 72.200 C 298.989 71.710,298.861 71.632,298.868 72.000 M301.200 85.867 C 301.200 86.160,301.391 86.400,301.624 86.400 C 301.857 86.400,301.919 86.608,301.762 86.862 C 301.585 87.148,301.652 87.215,301.938 87.038 C 302.609 86.624,302.505 85.333,301.800 85.333 C 301.470 85.333,301.200 85.573,301.200 85.867 M101.714 93.000 C 101.717 94.100,101.795 94.503,101.887 93.895 C 101.979 93.286,101.977 92.386,101.882 91.895 C 101.787 91.403,101.711 91.900,101.714 93.000 M301.646 93.451 C 301.615 94.832,301.796 95.665,302.200 96.000 C 302.722 96.433,302.799 96.192,302.794 94.149 C 302.790 92.633,302.662 91.998,302.434 92.358 C 302.150 92.806,302.043 92.767,301.887 92.158 C 301.780 91.741,301.672 92.323,301.646 93.451 M100.812 95.000 C 100.812 95.440,100.987 96.070,101.200 96.400 C 101.521 96.897,101.588 96.862,101.588 96.200 C 101.588 95.760,101.413 95.130,101.200 94.800 C 100.879 94.303,100.812 94.338,100.812 95.000 M101.337 101.400 C 101.339 103.160,101.409 103.830,101.493 102.889 C 101.578 101.949,101.577 100.509,101.491 99.689 C 101.405 98.870,101.336 99.640,101.337 101.400 M100.400 106.353 C 100.400 107.013,100.580 107.664,100.800 107.800 C 101.033 107.944,101.200 107.545,101.200 106.847 C 101.200 106.187,101.020 105.536,100.800 105.400 C 100.567 105.256,100.400 105.655,100.400 106.353 M100.799 115.919 L 100.997 121.800 101.110 116.232 C 101.173 113.169,101.083 110.523,100.912 110.350 C 100.740 110.178,100.689 112.684,100.799 115.919 M302.080 120.080 C 301.798 120.362,301.623 121.560,301.654 122.980 C 301.684 124.311,301.797 124.950,301.904 124.400 C 302.087 123.467,302.121 123.453,302.422 124.200 C 302.634 124.729,302.753 124.084,302.772 122.300 C 302.802 119.386,302.796 119.364,302.080 120.080 M100.305 125.200 C 99.837 126.790,99.923 129.837,100.422 129.338 C 100.654 129.106,100.789 127.855,100.722 126.558 C 100.630 124.781,100.527 124.446,100.305 125.200 M100.546 136.600 C 100.547 138.800,100.614 139.649,100.695 138.487 C 100.776 137.324,100.776 135.524,100.693 134.487 C 100.611 133.449,100.545 134.400,100.546 136.600 M301.680 133.680 C 301.416 133.944,301.203 134.709,301.206 135.380 C 301.210 136.221,301.320 136.430,301.558 136.055 C 301.849 135.594,301.937 135.594,302.120 136.055 C 302.239 136.355,302.351 135.835,302.368 134.900 C 302.403 133.032,302.376 132.984,301.680 133.680 M300.800 142.424 C 300.800 142.877,300.980 143.136,301.200 143.000 C 301.420 142.864,301.600 142.493,301.600 142.176 C 301.600 141.859,301.420 141.600,301.200 141.600 C 300.980 141.600,300.800 141.971,300.800 142.424 M99.896 143.333 C 99.433 144.479,99.516 145.444,100.034 144.926 C 100.272 144.688,100.406 144.067,100.330 143.546 C 100.209 142.713,100.157 142.688,99.896 143.333 M100.109 147.600 C 100.109 148.590,100.187 148.995,100.282 148.500 C 100.378 148.005,100.378 147.195,100.282 146.700 C 100.187 146.205,100.109 146.610,100.109 147.600 M300.700 148.228 C 300.535 148.396,300.405 149.178,300.412 149.967 C 300.422 151.147,300.497 151.275,300.838 150.690 C 301.296 149.902,301.175 147.745,300.700 148.228 M99.492 151.042 C 99.331 151.202,99.200 151.609,99.200 151.947 C 99.200 152.397,99.318 152.442,99.645 152.115 C 99.890 151.870,100.021 151.463,99.937 151.210 C 99.852 150.957,99.652 150.881,99.492 151.042 M300.406 158.300 C 300.403 159.015,300.580 159.600,300.800 159.600 C 301.308 159.600,301.308 158.386,300.800 157.600 C 300.506 157.145,300.411 157.314,300.406 158.300 M94.629 180.229 C 94.481 180.815,94.438 181.372,94.532 181.466 C 94.627 181.560,94.824 181.158,94.971 180.571 C 95.119 179.985,95.162 179.428,95.068 179.334 C 94.973 179.240,94.776 179.642,94.629 180.229 M68.600 218.000 C 69.683 219.100,70.660 220.000,70.770 220.000 C 70.880 220.000,70.083 219.100,69.000 218.000 C 67.917 216.900,66.940 216.000,66.830 216.000 C 66.720 216.000,67.517 216.900,68.600 218.000 M301.867 233.204 C 298.028 234.431,297.392 234.751,298.974 234.659 C 299.538 234.627,300.000 234.446,300.000 234.257 C 300.000 234.069,300.270 234.018,300.600 234.145 C 300.930 234.271,301.200 234.188,301.200 233.960 C 301.200 233.728,301.551 233.658,302.000 233.800 C 302.459 233.946,302.800 233.872,302.800 233.627 C 302.800 233.392,302.991 233.200,303.224 233.200 C 303.457 233.200,303.533 233.425,303.394 233.700 C 303.255 233.975,303.412 233.867,303.744 233.460 C 304.075 233.053,304.520 232.827,304.731 232.958 C 304.943 233.088,305.219 232.926,305.346 232.598 C 305.472 232.269,305.536 232.017,305.487 232.037 C 305.439 232.058,303.810 232.583,301.867 233.204 M94.882 233.350 C 95.165 233.652,95.654 233.801,95.969 233.680 C 96.411 233.510,96.366 233.392,95.771 233.158 C 94.582 232.692,94.321 232.749,94.882 233.350 M293.000 235.609 C 290.580 236.223,288.510 236.761,288.400 236.805 C 288.123 236.916,287.215 237.044,285.800 237.171 C 284.620 237.278,284.617 237.285,285.600 237.568 C 286.150 237.726,286.713 237.689,286.850 237.485 C 286.988 237.281,287.483 237.236,287.950 237.384 C 288.490 237.556,288.800 237.481,288.800 237.180 C 288.800 236.891,289.189 236.781,289.800 236.898 C 290.350 237.003,290.800 236.913,290.800 236.698 C 290.800 236.483,291.160 236.401,291.600 236.516 C 292.040 236.631,292.400 236.541,292.400 236.316 C 292.400 236.091,292.751 235.999,293.181 236.111 C 293.610 236.223,294.021 236.137,294.093 235.920 C 294.166 235.703,294.889 235.507,295.700 235.484 C 296.511 235.461,297.265 235.208,297.375 234.921 C 297.485 234.634,297.536 234.421,297.487 234.446 C 297.439 234.471,295.420 234.994,293.000 235.609 M101.223 235.285 C 101.488 235.568,102.241 235.820,102.895 235.845 C 103.549 235.869,104.215 236.100,104.374 236.358 C 104.534 236.616,104.965 236.712,105.332 236.571 C 105.699 236.430,106.000 236.497,106.000 236.720 C 106.000 236.943,106.360 237.031,106.800 236.916 C 107.240 236.801,107.600 236.891,107.600 237.116 C 107.600 237.341,107.978 237.426,108.441 237.305 C 108.928 237.178,109.446 237.320,109.671 237.643 C 110.000 238.112,110.036 238.109,109.904 237.622 C 109.745 237.035,108.374 236.530,106.200 236.259 C 105.540 236.176,104.550 235.931,104.000 235.713 C 102.007 234.924,100.695 234.722,101.223 235.285 M281.200 238.006 C 280.048 238.243,280.207 238.286,282.100 238.247 C 283.365 238.221,284.400 238.104,284.400 237.987 C 284.400 237.670,282.788 237.680,281.200 238.006 M113.600 238.345 C 113.600 238.534,114.050 238.603,114.600 238.498 C 115.150 238.393,115.600 238.238,115.600 238.153 C 115.600 238.069,115.150 238.000,114.600 238.000 C 114.050 238.000,113.600 238.155,113.600 238.345 M263.600 240.400 C 263.600 240.620,263.859 240.800,264.176 240.800 C 264.493 240.800,264.864 240.620,265.000 240.400 C 265.136 240.180,264.877 240.000,264.424 240.000 C 263.971 240.000,263.600 240.180,263.600 240.400 M255.600 240.800 C 255.600 241.020,255.949 241.200,256.376 241.200 C 256.803 241.200,257.264 241.020,257.400 240.800 C 257.540 240.573,257.204 240.400,256.624 240.400 C 256.061 240.400,255.600 240.580,255.600 240.800 M138.000 241.200 C 138.000 241.420,138.270 241.600,138.600 241.600 C 138.930 241.600,139.200 241.420,139.200 241.200 C 139.200 240.980,138.930 240.800,138.600 240.800 C 138.270 240.800,138.000 240.980,138.000 241.200 M249.309 242.400 C 249.309 243.390,249.387 243.795,249.482 243.300 C 249.578 242.805,249.578 241.995,249.482 241.500 C 249.387 241.005,249.309 241.410,249.309 242.400 M144.600 241.600 C 144.736 241.820,145.567 242.000,146.447 242.000 C 147.412 242.000,147.949 241.841,147.800 241.600 C 147.664 241.380,146.833 241.200,145.953 241.200 C 144.988 241.200,144.451 241.359,144.600 241.600 M140.459 249.814 C 139.721 250.134,138.975 250.308,138.801 250.200 C 138.626 250.093,138.383 250.268,138.259 250.590 C 138.078 251.063,138.406 251.028,139.974 250.410 C 141.040 249.990,142.022 249.756,142.156 249.890 C 142.290 250.024,142.400 249.923,142.400 249.667 C 142.400 249.074,142.112 249.096,140.459 249.814 M259.206 250.304 C 259.216 250.792,259.767 251.393,260.300 251.500 C 260.986 251.637,260.931 251.490,260.000 250.693 C 259.560 250.316,259.203 250.141,259.206 250.304 M138.575 252.900 L 137.400 254.200 138.700 253.025 C 139.912 251.930,140.184 251.600,139.875 251.600 C 139.806 251.600,139.221 252.185,138.575 252.900 M264.400 253.003 C 264.400 253.068,264.929 253.306,265.576 253.532 C 266.454 253.838,266.707 253.822,266.572 253.471 C 266.420 253.077,264.400 252.642,264.400 253.003 M264.783 256.100 C 266.441 257.866,266.800 258.184,266.800 257.883 C 266.800 257.819,265.945 256.964,264.900 255.983 L 263.000 254.200 264.783 256.100 M134.175 256.900 L 133.000 258.200 134.300 257.025 C 135.512 255.930,135.784 255.600,135.475 255.600 C 135.406 255.600,134.821 256.185,134.175 256.900 M305.490 269.854 C 305.350 270.082,305.863 270.568,306.631 270.934 C 308.332 271.746,308.586 271.767,307.916 271.042 C 307.632 270.735,307.265 270.566,307.100 270.666 C 306.935 270.765,306.800 270.646,306.800 270.400 C 306.800 270.154,306.635 270.055,306.434 270.179 C 306.233 270.303,305.996 270.188,305.907 269.922 C 305.802 269.607,305.658 269.583,305.490 269.854 M308.800 271.779 C 308.800 271.889,309.340 272.259,310.000 272.600 C 310.660 272.941,311.200 273.131,311.200 273.021 C 311.200 272.911,310.660 272.541,310.000 272.200 C 309.340 271.859,308.800 271.669,308.800 271.779 M86.819 272.780 C 86.500 272.982,86.095 273.058,85.919 272.950 C 85.744 272.842,85.600 272.922,85.600 273.128 C 85.600 273.334,85.056 273.728,84.391 274.004 C 83.727 274.279,83.079 274.672,82.952 274.878 C 82.758 275.192,87.470 273.007,87.967 272.553 C 88.306 272.242,87.380 272.425,86.819 272.780 M163.029 280.400 C 163.176 280.950,163.464 281.670,163.667 282.000 C 163.925 282.417,163.957 282.295,163.771 281.600 C 163.624 281.050,163.336 280.330,163.133 280.000 C 162.875 279.583,162.843 279.705,163.029 280.400 M339.847 289.496 C 341.358 290.625,342.000 290.867,341.749 290.212 C 341.621 289.878,341.354 289.705,341.155 289.828 C 340.957 289.950,340.698 289.799,340.580 289.492 C 340.462 289.185,340.080 288.933,339.730 288.933 C 339.204 288.933,339.225 289.031,339.847 289.496 M230.646 297.446 C 230.292 298.485,230.072 299.405,230.156 299.490 C 230.241 299.574,230.600 298.793,230.954 297.754 C 231.308 296.715,231.528 295.795,231.444 295.710 C 231.359 295.626,231.000 296.407,230.646 297.446 M44.778 299.500 L 43.400 301.000 44.900 299.622 C 45.725 298.863,46.400 298.188,46.400 298.122 C 46.400 297.816,46.062 298.104,44.778 299.500 M98.652 308.991 C 98.785 309.337,99.342 309.586,99.943 309.568 C 100.563 309.550,100.752 309.445,100.400 309.314 C 100.070 309.192,99.489 308.932,99.109 308.737 C 98.575 308.462,98.471 308.520,98.652 308.991 M278.856 325.200 C 278.856 325.530,279.011 326.160,279.200 326.600 C 279.417 327.104,279.544 327.178,279.544 326.800 C 279.544 326.470,279.389 325.840,279.200 325.400 C 278.983 324.896,278.856 324.822,278.856 325.200 M24.800 341.200 C 24.530 342.324,24.389 343.323,24.487 343.420 C 24.584 343.517,24.877 342.670,25.138 341.538 C 25.400 340.406,25.541 339.407,25.452 339.319 C 25.363 339.230,25.070 340.076,24.800 341.200 M169.207 364.136 C 171.366 365.586,173.330 366.704,172.009 365.730 C 171.463 365.329,170.698 364.685,170.309 364.300 C 169.919 363.915,169.600 363.726,169.600 363.880 C 169.600 364.034,169.384 363.944,169.120 363.680 C 168.856 363.416,168.454 363.200,168.227 363.200 C 168.000 363.200,168.441 363.621,169.207 364.136 M228.400 365.236 C 227.736 365.779,227.669 365.915,228.200 365.640 C 229.505 364.966,230.228 364.412,229.800 364.415 C 229.580 364.417,228.950 364.786,228.400 365.236 M19.869 366.356 C 19.721 367.095,19.620 368.082,19.644 368.550 C 19.668 369.018,19.847 368.590,20.042 367.600 C 20.237 366.610,20.338 365.623,20.267 365.406 C 20.196 365.190,20.017 365.617,19.869 366.356 M16.288 392.933 C 15.842 394.066,15.915 394.645,16.438 394.122 C 16.678 393.882,16.808 393.351,16.726 392.942 C 16.582 392.226,16.566 392.226,16.288 392.933 M22.400 399.200 C 22.400 399.420,23.120 399.600,24.000 399.600 C 24.880 399.600,25.600 399.420,25.600 399.200 C 25.600 398.980,24.880 398.800,24.000 398.800 C 23.120 398.800,22.400 398.980,22.400 399.200 M372.400 399.200 C 372.400 399.420,373.210 399.600,374.200 399.600 C 375.190 399.600,376.000 399.420,376.000 399.200 C 376.000 398.980,375.190 398.800,374.200 398.800 C 373.210 398.800,372.400 398.980,372.400 399.200 M57.273 399.499 C 61.604 399.564,68.804 399.564,73.273 399.500 C 77.743 399.435,74.200 399.382,65.400 399.382 C 56.600 399.382,52.943 399.435,57.273 399.499 M324.700 399.500 C 329.155 399.564,336.445 399.564,340.900 399.500 C 345.355 399.435,341.710 399.382,332.800 399.382 C 323.890 399.382,320.245 399.435,324.700 399.500 " stroke="none" fill="#575757" fill-rule="evenodd"></path><path id="path3" d="M301.680 89.800 C 301.680 90.240,301.824 91.050,302.000 91.600 C 302.254 92.392,302.320 92.433,302.320 91.800 C 302.320 91.360,302.176 90.550,302.000 90.000 C 301.746 89.208,301.680 89.167,301.680 89.800 M100.806 93.476 C 100.803 93.958,100.980 94.464,101.200 94.600 C 101.709 94.915,101.709 93.988,101.200 93.200 C 100.885 92.712,100.811 92.764,100.806 93.476 M100.400 103.553 C 100.400 103.993,100.580 104.464,100.800 104.600 C 101.020 104.736,101.200 104.487,101.200 104.047 C 101.200 103.607,101.020 103.136,100.800 103.000 C 100.580 102.864,100.400 103.113,100.400 103.553 M100.300 120.628 C 100.135 120.796,100.000 121.479,100.000 122.147 C 100.000 123.014,100.123 123.237,100.431 122.929 C 100.668 122.692,100.803 122.008,100.731 121.410 C 100.659 120.812,100.465 120.461,100.300 120.628 M301.833 126.433 C 301.683 127.566,301.641 128.574,301.739 128.672 C 301.837 128.771,302.045 127.928,302.200 126.800 C 302.355 125.672,302.398 124.664,302.294 124.561 C 302.191 124.458,301.984 125.300,301.833 126.433 M99.829 141.029 C 99.681 141.615,99.651 142.184,99.761 142.294 C 99.871 142.404,100.081 142.015,100.229 141.429 C 100.376 140.842,100.406 140.273,100.296 140.163 C 100.186 140.053,99.976 140.442,99.829 141.029 M300.934 154.400 C 300.934 156.050,301.005 156.725,301.091 155.900 C 301.178 155.075,301.178 153.725,301.091 152.900 C 301.005 152.075,300.934 152.750,300.934 154.400 M143.000 241.600 C 143.136 241.820,143.517 242.000,143.847 242.000 C 144.177 242.000,144.336 241.820,144.200 241.600 C 144.064 241.380,143.683 241.200,143.353 241.200 C 143.023 241.200,142.864 241.380,143.000 241.600 M266.400 253.453 C 266.400 253.919,267.990 254.340,268.238 253.939 C 268.415 253.652,268.348 253.585,268.062 253.762 C 267.808 253.919,267.600 253.887,267.600 253.690 C 267.600 253.494,267.330 253.333,267.000 253.333 C 266.670 253.333,266.400 253.387,266.400 253.453 M269.600 261.000 C 270.795 262.210,271.863 263.200,271.973 263.200 C 272.083 263.200,271.195 262.210,270.000 261.000 C 268.805 259.790,267.737 258.800,267.627 258.800 C 267.517 258.800,268.405 259.790,269.600 261.000 M125.170 265.900 L 124.200 267.000 125.400 266.000 C 126.060 265.450,126.675 264.955,126.767 264.900 C 126.858 264.845,126.755 264.800,126.536 264.800 C 126.318 264.800,125.703 265.295,125.170 265.900 M95.200 268.357 C 95.200 268.627,95.047 268.752,94.859 268.636 C 94.671 268.520,94.176 268.699,93.759 269.034 C 93.038 269.611,93.050 269.628,94.000 269.376 C 95.202 269.057,95.848 268.514,95.473 268.140 C 95.323 267.990,95.200 268.087,95.200 268.357 M353.000 299.600 C 354.083 300.700,355.060 301.600,355.170 301.600 C 355.280 301.600,354.483 300.700,353.400 299.600 C 352.317 298.500,351.340 297.600,351.230 297.600 C 351.120 297.600,351.917 298.500,353.000 299.600 M103.300 309.476 C 103.685 309.576,104.315 309.576,104.700 309.476 C 105.085 309.375,104.770 309.293,104.000 309.293 C 103.230 309.293,102.915 309.375,103.300 309.476 M285.305 309.487 C 285.914 309.579,286.814 309.577,287.305 309.482 C 287.797 309.387,287.300 309.311,286.200 309.314 C 285.100 309.317,284.697 309.395,285.305 309.487 M159.860 357.503 C 159.741 357.695,160.219 358.182,160.922 358.583 C 161.625 358.985,161.930 359.063,161.600 358.757 C 161.270 358.451,160.792 357.964,160.538 357.676 C 160.285 357.388,159.979 357.310,159.860 357.503 M194.277 379.475 C 194.149 379.683,194.571 380.165,195.217 380.546 C 196.216 381.136,196.355 381.148,196.153 380.622 C 196.023 380.282,195.766 380.097,195.583 380.211 C 195.399 380.324,195.083 380.120,194.880 379.757 C 194.677 379.394,194.406 379.267,194.277 379.475 M40.300 399.489 C 41.015 399.578,42.185 399.578,42.900 399.489 C 43.615 399.401,43.030 399.328,41.600 399.328 C 40.170 399.328,39.585 399.401,40.300 399.489 M354.691 399.489 C 355.401 399.577,356.661 399.579,357.491 399.492 C 358.321 399.405,357.740 399.333,356.200 399.331 C 354.660 399.329,353.981 399.400,354.691 399.489 " stroke="none" fill="#7c7c7c" fill-rule="evenodd"></path><path id="path4" d="M100.300 123.031 C 100.135 123.197,100.011 123.888,100.025 124.567 C 100.050 125.773,100.059 125.779,100.440 124.825 C 100.869 123.752,100.775 122.552,100.300 123.031 M99.800 142.400 C 99.650 142.873,99.617 143.350,99.727 143.460 C 99.837 143.570,100.050 143.273,100.200 142.800 C 100.350 142.327,100.383 141.850,100.273 141.740 C 100.163 141.630,99.950 141.927,99.800 142.400 M300.643 151.033 C 300.302 151.921,300.351 156.904,300.706 157.460 C 300.868 157.713,301.000 156.228,301.000 154.160 C 301.000 150.089,301.001 150.099,300.643 151.033 M100.576 309.161 C 100.784 309.498,105.600 309.321,105.967 308.963 C 106.058 308.873,104.833 308.800,103.243 308.800 C 101.625 308.800,100.451 308.959,100.576 309.161 M285.600 309.212 C 290.379 309.663,300.000 309.655,300.000 309.200 C 300.000 308.944,296.876 308.823,291.300 308.865 C 284.982 308.912,283.421 309.007,285.600 309.212 M45.300 399.491 C 46.125 399.578,47.475 399.578,48.300 399.491 C 49.125 399.405,48.450 399.334,46.800 399.334 C 45.150 399.334,44.475 399.405,45.300 399.491 M349.900 399.489 C 350.615 399.578,351.785 399.578,352.500 399.489 C 353.215 399.401,352.630 399.328,351.200 399.328 C 349.770 399.328,349.185 399.401,349.900 399.489 " stroke="none" fill="#747474" fill-rule="evenodd"></path></g></svg>